<?xml version="1.0" encoding="utf-8"?>
<!-- Generator: Adobe Illustrator 26.5.2, SVG Export Plug-In . SVG Version: 6.00 Build 0)  -->
<svg version="1.1" id="Capa_1" xmlns="http://www.w3.org/2000/svg" xmlns:xlink="http://www.w3.org/1999/xlink" x="0px" y="0px"
	 viewBox="0 0 657.5 711" style="enable-background:new 0 0 657.5 711;" xml:space="preserve">
<style type="text/css">
	.st0{fill:#7D858B;}
	.st1{fill:#8079B2;}
</style>
<g>
	<g>
		<g>
			<path class="st0" d="M69.1,458.6c0,22.7-14.6,37.1-39.4,37.1H3.7v-74.1h25.9C54.4,421.5,69.1,436,69.1,458.6z M51,458.6
				c0-13.1-9.1-19.9-21.3-19.9h-7.7v39.9h7.7C41.8,478.6,51,471.7,51,458.6z"/>
			<path class="st0" d="M130.9,474.1H92.1c1.8,6.2,6.9,9.1,13.5,9.1c5.5,0,9.3-2.6,11-4.7l12.1,7.2c-4.3,6.7-12.6,11.3-23.1,11.3
				c-18.1,0-30.2-11.4-30.2-28.2c0-15.9,12.4-28.2,27.7-28.2C119,440.7,133,451.5,130.9,474.1z M115.3,463.7
				c-1.3-6.2-5.7-9.1-11.7-9.1c-5.4,0-10,3.2-11.5,9.1H115.3z"/>
			<path class="st0" d="M197.8,468.9c0,14.1-9.1,28.2-25.7,28.2c-7.3,0-12.1-2.8-15.1-6.6v25.6h-17.3V442H157v5.3
				c3.1-3.8,7.8-6.6,15.1-6.6C188.7,440.7,197.8,454.8,197.8,468.9z M180.5,468.9c0-6.7-4.3-11.5-11.5-11.5
				c-6.5,0-11.4,4.3-11.4,11.5c0,7.1,5,11.4,11.4,11.4C176.1,480.3,180.5,475.4,180.5,468.9z"/>
			<path class="st0" d="M258.6,474.1h-38.8c1.8,6.2,6.9,9.1,13.5,9.1c5.5,0,9.3-2.6,11-4.7l12.1,7.2c-4.3,6.7-12.6,11.3-23.1,11.3
				c-18.1,0-30.2-11.4-30.2-28.2c0-15.9,12.4-28.2,27.7-28.2C246.8,440.7,260.8,451.5,258.6,474.1z M243.1,463.7
				c-1.3-6.2-5.7-9.1-11.7-9.1c-5.4,0-10,3.2-11.5,9.1H243.1z"/>
			<path class="st0" d="M319,462.1v33.6h-17.3v-28.9c0-6.1-3.8-9.2-8.6-9.2c-5,0-8.6,3.3-8.6,9.2v28.9h-17.2V442h17.2v5
				c3.1-3.5,7.7-6.2,14.7-6.2C312.7,440.7,319,451.3,319,462.1z"/>
			<path class="st0" d="M385.5,421.5v74.1h-17.2v-5.2c-3.2,3.8-7.9,6.6-15.1,6.6c-16.7,0-25.7-14.1-25.7-28.2
				c0-14.1,9-28.2,25.7-28.2c7.2,0,12,2.8,15.1,6.6v-25.7H385.5z M367.8,468.9c0-7.2-5.1-11.5-11.5-11.5c-7.1,0-11.4,4.9-11.4,11.5
				c0,6.6,4.3,11.4,11.4,11.4C362.7,480.3,367.8,476,367.8,468.9z"/>
			<path class="st0" d="M449.5,474.1h-38.8c1.8,6.2,6.9,9.1,13.5,9.1c5.5,0,9.3-2.6,11-4.7l12.1,7.2c-4.3,6.7-12.6,11.3-23.1,11.3
				c-18.1,0-30.2-11.4-30.2-28.2c0-15.9,12.4-28.2,27.7-28.2C437.6,440.7,451.6,451.5,449.5,474.1z M433.9,463.7
				c-1.3-6.2-5.7-9.1-11.7-9.1c-5.4,0-10,3.2-11.5,9.1H433.9z"/>
			<path class="st0" d="M509.9,462.1v33.6h-17.3v-28.9c0-6.1-3.8-9.2-8.6-9.2c-5,0-8.6,3.3-8.6,9.2v28.9h-17.2V442h17.2v5
				c3.1-3.5,7.7-6.2,14.7-6.2C503.5,440.7,509.9,451.3,509.9,462.1z"/>
			<path class="st0" d="M556.8,475.3l14.8,8.9c-4.9,7.7-13.8,12.8-24.5,12.8c-16.7,0-28.8-12.3-28.8-28.2c0-16,12.1-28.2,28.8-28.2
				c10.7,0,19.6,5,24.5,12.8l-14.8,8.9c-2-3.1-5.4-5.1-9.6-5.1c-6.9,0-11.4,5.3-11.4,11.5c0,6.2,4.6,11.4,11.4,11.4
				C551.4,480.3,554.8,478.3,556.8,475.3z"/>
			<path class="st0" d="M578.1,426.9c0-5,4-9,9-9c5,0,9,4,9,9s-4,9.1-9,9.1C582.1,436,578.1,431.9,578.1,426.9z M578.5,442h17.2
				v53.7h-17.2V442z"/>
			<path class="st0" d="M654.3,462.3v33.4h-17.2v-5c-2.9,4.1-9.2,6.4-14.7,6.4c-7.2,0-18.3-2.8-18.3-15.8
				c0-17.8,23.1-17.8,26.7-17.8c2.4,0,5.2,0,6.4,0v-0.2c0-5.1-2.5-8.7-8.8-8.7c-4.3,0-8,1.7-10.2,3.4l-11.2-7.6
				c5.8-6.1,13.9-9.6,24.1-9.6C648.3,440.7,654.3,449.5,654.3,462.3z M637.2,472.1c-0.4,0-1,0-1.4,0c-8.6,0-14.3,1.6-14.3,7
				c0,3.9,3.2,5.4,6.9,5.4s7.3-1.8,8.8-3.8V472.1z"/>
			<path class="st0" d="M314,555v35.5h-17.2v-30.8c0-6-4.4-7.3-7.2-7.3s-7.1,1.4-7.1,7.3v30.8h-17.3v-30.8c0-6-4.3-7.3-7.1-7.3
				c-2.8,0-7.2,1.4-7.2,7.3v30.8h-17.3v-53.7H251v4.1c2.8-3.1,7-5.4,13.2-5.4c7.4,0,12.3,2.9,15.1,7.2c3.2-3.9,8-7.2,15.5-7.2
				C307.9,535.5,314,544.2,314,555z"/>
			<path class="st0" d="M372.7,557.1v33.4h-17.2v-5c-2.9,4.1-9.2,6.4-14.7,6.4c-7.2,0-18.3-2.8-18.3-15.8
				c0-17.8,23.1-17.8,26.7-17.8c2.4,0,5.2,0,6.4,0V558c0-5.1-2.5-8.7-8.8-8.7c-4.3,0-8,1.7-10.2,3.4l-11.2-7.6
				c5.8-6.1,13.9-9.6,24.1-9.6C366.6,535.5,372.7,544.3,372.7,557.1z M355.5,566.8c-0.4,0-1,0-1.4,0c-8.6,0-14.3,1.6-14.3,7
				c0,3.9,3.2,5.4,6.9,5.4s7.3-1.8,8.8-3.8V566.8z M364.8,514.5l-10.3,14.8h-13.7l6.9-14.8H364.8z"/>
			<path class="st0" d="M427.5,573.8c0,11.3-8.4,18-24,18c-10.8,0-21.2-3.5-23.4-12.9l15.6-4.9c0.6,2.1,2.8,4.3,7.6,4.3
				c3.6,0,6.5-1.1,6.5-3.8c0-3.7-5.6-3.5-12-4.9c-10.3-2.3-15.9-6-15.9-16.5c0-11.2,9.6-17.7,23.1-17.7c9.2,0,18.3,4.6,20.7,13.7
				l-14.4,3.5c-0.6-2.5-3-3.9-6.1-3.9c-3.4,0-6.6,1-6.6,3.9c0,3.5,5.8,3.7,10.1,4.6C422.1,560,427.5,564,427.5,573.8z"/>
			<path class="st0" d="M96,611.1v74.1H78.8V680c-3.2,3.8-7.9,6.6-15.1,6.6c-16.7,0-25.7-14.1-25.7-28.2c0-14.1,9-28.2,25.7-28.2
				c7.2,0,12,2.8,15.1,6.6v-25.7H96z M78.3,658.4c0-7.2-5.1-11.5-11.5-11.5c-7.1,0-11.4,4.9-11.4,11.5c0,6.6,4.3,11.4,11.4,11.4
				C73.2,669.8,78.3,665.5,78.3,658.4z"/>
			<path class="st0" d="M159.9,663.6h-38.8c1.8,6.2,6.9,9.1,13.5,9.1c5.5,0,9.3-2.6,11-4.7l12.1,7.2c-4.3,6.7-12.6,11.3-23.1,11.3
				c-18.1,0-30.2-11.4-30.2-28.2c0-15.9,12.4-28.2,27.7-28.2C148.1,630.2,162.1,641,159.9,663.6z M144.4,653.2
				c-1.3-6.2-5.7-9.1-11.7-9.1c-5.4,0-10,3.2-11.5,9.1H144.4z"/>
			<path class="st0" d="M220.3,651.6v33.6H203v-28.9c0-6.1-3.8-9.2-8.6-9.2c-5,0-8.6,3.3-8.6,9.2v28.9h-17.2v-53.7h17.2v5
				c3.1-3.5,7.7-6.2,14.7-6.2C213.9,630.2,220.3,640.8,220.3,651.6z"/>
			<path class="st0" d="M283.5,631.5v53.7h-17.3v-4.9c-3,3.5-7.6,6.2-14.6,6.2c-13.5,0-19.7-10.6-19.7-21.4v-33.7h17.2v29
				c0,6.1,3.9,9.2,8.6,9.2c5.1,0,8.6-3.3,8.6-9.2v-29H283.5z"/>
			<path class="st0" d="M346.8,651.6v33.6h-17.3v-28.9c0-6.1-3.8-9.2-8.6-9.2c-5,0-8.6,3.3-8.6,9.2v28.9h-17.2v-53.7h17.2v5
				c3.1-3.5,7.7-6.2,14.7-6.2C340.4,630.2,346.8,640.8,346.8,651.6z"/>
			<path class="st0" d="M393.7,664.9l14.8,8.9c-4.9,7.7-13.8,12.8-24.5,12.8c-16.7,0-28.8-12.3-28.8-28.2c0-16,12.1-28.2,28.8-28.2
				c10.7,0,19.6,5,24.5,12.8l-14.8,8.9c-2-3.1-5.4-5.1-9.6-5.1c-6.9,0-11.4,5.3-11.4,11.5c0,6.2,4.6,11.4,11.4,11.4
				C388.3,669.8,391.7,667.8,393.7,664.9z"/>
			<path class="st0" d="M415,616.5c0-5,4-9,9-9c5,0,9,4,9,9s-4,9.1-9,9.1C419,625.6,415,621.4,415,616.5z M415.4,631.5h17.2v53.7
				h-17.2V631.5z"/>
			<path class="st0" d="M491.2,651.8v33.4h-17.2v-5c-2.9,4.1-9.2,6.4-14.7,6.4c-7.2,0-18.3-2.8-18.3-15.8
				c0-17.8,23.1-17.8,26.7-17.8c2.4,0,5.2,0,6.4,0v-0.2c0-5.1-2.5-8.7-8.8-8.7c-4.3,0-8,1.7-10.2,3.4l-11.2-7.6
				c5.8-6.1,13.9-9.6,24.1-9.6C485.2,630.2,491.2,639,491.2,651.8z M474.1,661.6c-0.4,0-1,0-1.4,0c-8.6,0-14.3,1.6-14.3,7
				c0,3.9,3.2,5.4,6.9,5.4s7.3-1.8,8.8-3.8V661.6z"/>
			<path class="st0" d="M557.7,611.1v74.1h-17.2V680c-3.2,3.8-7.9,6.6-15.1,6.6c-16.7,0-25.7-14.1-25.7-28.2
				c0-14.1,9-28.2,25.7-28.2c7.2,0,12,2.8,15.1,6.6v-25.7H557.7z M540,658.4c0-7.2-5.1-11.5-11.5-11.5c-7.1,0-11.4,4.9-11.4,11.5
				c0,6.6,4.3,11.4,11.4,11.4C535,669.8,540,665.5,540,658.4z"/>
			<path class="st0" d="M616.4,651.8v33.4h-17.2v-5c-2.9,4.1-9.2,6.4-14.7,6.4c-7.2,0-18.3-2.8-18.3-15.8
				c0-17.8,23.1-17.8,26.7-17.8c2.4,0,5.2,0,6.4,0v-0.2c0-5.1-2.5-8.7-8.8-8.7c-4.3,0-8,1.7-10.2,3.4l-11.2-7.6
				c5.8-6.1,13.9-9.6,24.1-9.6C610.4,630.2,616.4,639,616.4,651.8z M599.2,661.6c-0.4,0-1,0-1.4,0c-8.6,0-14.3,1.6-14.3,7
				c0,3.9,3.2,5.4,6.9,5.4s7.3-1.8,8.8-3.8V661.6z"/>
		</g>
	</g>
	<g>
		<g>
			<g>
				<path class="st1" d="M487.9,232.5V2.4H169.6v230.1c0,87.9,71.3,159.2,159.2,159.2h0C416.7,391.7,487.9,320.4,487.9,232.5z
					 M396.2,278.5l1.2,0.4l1.4,0.4v5.8h-1.4l-1.3-2.5l-4.6,12.8l-0.9,2.7h-5.4l0,0H369l3.2-8.8l12-1.8c0.1,0,0.2,0,0.3,0
					c0,0,2-2.5-0.7-4.5c0,0,0,0,0,0c-0.1-0.1-0.2-0.1-0.3-0.2l0,0l0,0c-0.6-0.4-1.2-0.8-1.7-1.3l-0.7-0.5c-3.5-2.6-5.5-6.6-5.5-10.9
					v-7.8c0-0.1,0-0.2,0-0.4v-5.6c8.1,0.2,18.8,2.3,25.1,10.8l-3,2.1l-2.3,1.7l-0.3,0.2c-1.1,0.7-1.7,2-1.7,3.4
					C393.4,276.5,393.9,277.6,396.2,278.5z M417.3,207.9c0,6.1-2.1,11.8-5.6,16.2c-1.1,1.3-3.4,3.8-7.5,6.6
					c-6.1,4.2-8.6,7.9-8.7,13.5c0,0,2-4.7,12-10c0.8,3.4,2.4,6.5,4.6,9c2.1,2.3,7.8,7.4,15.5,3.9c0.8-0.5,1.6-1,2.2-1.7
					c3.4-3.5,3.6-9,0.5-12.7l-1.4-1.7c-2.3-2.7-3.5-6.2-3.5-9.8v-8.5c0-7,5.7-12.6,12.6-12.6s12.6,5.7,12.6,12.6v1.8v0v5.8
					c-3.2,0-5.8-2.6-5.8-5.8v-1.8c0-3.8-3.1-6.8-6.8-6.8c-3.8,0-6.8,3.1-6.8,6.8v8.5c0,2.2,0.8,4.4,2.2,6.1l1.4,1.7
					c5,6,4.7,14.8-0.8,20.5c-2.9,3-6.9,4.7-11,4.7h-3.8c-0.1,2.2-0.3,16.5,12.1,20.7l2.9,0.9v5.8h-1.4l-2-3.7l-3,17.5l-0.5,2.7
					c0,0-5.8,0-5.8,0h-16.1l3.4-8.9l10.8-1.7h0.1c0,0,1.9-3.6-1.8-4.2l0,0c-1-0.1-1.9-0.3-2.8-0.5c-3.2-0.9-6-2.6-8.3-4.8
					c-1.7-1.7-3.1-3.8-4.1-6c-0.5-1.2-0.9-2.5-1.2-3.7c0,0-1.8-12.4-17.3-16.3l-24.3-6.2l-0.1,0.3c-0.3,1.6-1.7,2.8-3.4,2.8h-8.6
					l1.9-10.6l23-1.5c0.1-1.1,0.2-2.2,0.6-3.3l-10.9,0.5l-9.2-17.2H352c-1.4,0-2.7-0.9-3.2-2.2l-3.9-9.7h12l13.2,17.7l10.6-0.2
					c0.7-0.8,1.5-1.6,2.3-2.4c0.9-1,1.9-2,2.7-3c7.2-8.2,5.6-13.3,5.6-13.3c-1.1,2.4-2,3.6-3.2,4.7h0l0,0c-0.5,0.4-1.1,0.8-1.8,1.3
					l-8.4,5.8c-1.1,1-2.9,0.6-3.5-0.8l-1.6-5.3c0,0,4.4-0.6,6.9-1.6c1.8-0.7,3.5-1.6,3.5-3.5c0-2-1.6-3.5-3.5-3.5
					c-1.9,0-3,1.2-4.9,3.1c-0.7,0.8-1.9,1.7-2.8,2.4c-0.9,0.8-2.2,0.6-3-0.2l-5.1-5.8l15.7-9l4.1-2.3l-5.6,1.1l-3.3-2.7
					c-0.6-0.5-0.7-1.2-0.5-1.8l0,0c0,0,0,0,0,0c0.1-0.2,0.2-0.3,0.3-0.5c1.5-2.3,3.9-3.9,6.4-5.1c9.3-4.5,20.5-1.9,27.8,5
					c6,5.7,9.2,13.9,8.6,22.1c0,0.3-0.1,0.5-0.1,0.8C417.2,207.7,417.3,207.8,417.3,207.9z M264.1,101.4c0-0.1,0-0.2,0-0.3
					c0-20.2,15.6-36.5,34.9-36.6c5.7-12.1,17.6-20.5,31.4-20.5c13.9,0,25.8,8.4,31.5,20.7c17.6,1.9,31.3,17.5,31.3,36.4
					c0,0,0,0.1,0,0.1c9.8,6.5,16.3,17.9,16.3,30.9c0,20.2-15.7,36.6-35,36.6c-1.8,0-3.5-0.2-5.2-0.4c-1.5-0.2-3-0.6-4.4-1
					c-7.1,9.6-17.5,16.2-29.5,18.1c-2.3,0.4-4.6,0.6-7,0.6c-2.1,0-4.1-0.2-6-0.4c-12.3-1.7-23-8.4-30.3-18.1c-1.5,0.4-3,0.7-4.5,0.9
					c-1.4,0.2-2.9,0.3-4.3,0.3c-19.3,0-35-16.4-35-36.6C248.1,119.2,254.5,107.9,264.1,101.4z M272.4,298.1H267l-0.9-2.7l-4.6-12.8
					l-1.3,2.5h-1.4v-5.8l1.4-0.4l1.2-0.4c2.3-0.8,2.9-2,2.9-4c0-1.4-0.7-2.6-1.7-3.4l-0.3-0.2l-2.3-1.7l-3-2.1
					c6.3-8.6,17-10.6,25.1-10.8v5.6c0,0.1,0,0.2,0,0.4v7.8c0,4.3-2,8.4-5.5,10.9l-0.7,0.5c-0.6,0.5-1.1,0.9-1.7,1.3l0,0l0,0
					c-0.1,0.1-0.2,0.1-0.3,0.2c0,0,0,0,0,0c-2.7,2-0.7,4.4-0.7,4.5c0.1,0,0.2,0,0.3,0l12,1.8l3.2,8.8L272.4,298.1L272.4,298.1z
					 M284.8,236.7l23,1.5l1.9,10.6h-8.6c-1.7,0-3.1-1.2-3.4-2.8l-0.1-0.3l-24.3,6.2c-15.6,4-17.3,16.3-17.3,16.3
					c-0.3,1.3-0.7,2.5-1.2,3.7c-1,2.2-2.4,4.3-4.1,6c-2.3,2.2-5.2,3.9-8.3,4.8c-0.9,0.3-1.8,0.4-2.8,0.5l0,0
					c-3.7,0.6-1.8,4.2-1.8,4.2h0.1l10.8,1.7l3.4,8.9h-16.1c0,0-5.8,0-5.8,0l-0.5-2.7l-3-17.5l-2,3.7h-1.5v-5.8l2.9-0.9
					c12.4-4.2,12.2-18.5,12.1-20.7h-3.8c-4.1,0-8.1-1.7-11-4.7c-5.5-5.6-5.8-14.4-0.8-20.5l1.4-1.7c1.4-1.7,2.2-3.9,2.2-6.1v-8.5
					c0-3.8-3.1-6.8-6.8-6.8c-3.8,0-6.8,3.1-6.8,6.8v1.8c0,3.2-2.6,5.8-5.8,5.8v-5.8v0v-1.8c0-7,5.7-12.6,12.6-12.6
					c7,0,12.6,5.7,12.6,12.6v8.5c0,3.6-1.3,7-3.5,9.8l-1.4,1.7c-3.1,3.8-2.9,9.2,0.5,12.7c0.7,0.7,1.4,1.2,2.2,1.7
					c7.7,3.5,13.5-1.6,15.5-3.9c2.2-2.5,3.8-5.6,4.6-9c10,5.2,12,10,12,10c-0.1-5.6-2.6-9.3-8.7-13.5c-4.1-2.8-6.4-5.3-7.5-6.6
					c-3.5-4.5-5.6-10.1-5.6-16.2c0-0.1,0-0.2,0-0.2c0-0.3-0.1-0.5-0.1-0.8c-0.5-8.2,2.7-16.4,8.6-22.1c7.3-7,18.5-9.5,27.8-5
					c2.5,1.2,4.8,2.8,6.4,5.1c0.1,0.1,0.2,0.3,0.3,0.5c0,0,0,0,0,0l0,0c0.2,0.6,0.1,1.3-0.5,1.8l-3.3,2.7l-5.6-1.1l4.1,2.3h0l15.7,9
					l-5.1,5.8c-0.8,0.9-2.1,1-3,0.2c-0.9-0.7-2.1-1.6-2.8-2.4c-1.9-1.9-2.9-3.1-4.9-3.1c-1.9,0-3.5,1.6-3.5,3.5
					c0,1.9,1.7,2.8,3.5,3.5c2.5,1,6.9,1.6,6.9,1.6l-1.6,5.3c-0.6,1.4-2.4,1.8-3.5,0.8l-8.4-5.8c-0.7-0.4-1.3-0.8-1.8-1.3l0,0h0
					c-1.3-1.1-2.1-2.3-3.2-4.7c0,0-1.6,5.1,5.6,13.3c0.9,1,1.8,2,2.7,3c0.8,0.8,1.6,1.6,2.3,2.4l10.6,0.2l13.2-17.7h12l-3.9,9.7
					c-0.5,1.3-1.8,2.2-3.2,2.2h-1.1l-9.2,17.2l-10.9-0.5C284.5,234.4,284.7,235.5,284.8,236.7z M383.8,192l-3.9,2.3l0.4,0.6
					c1.1,1.3,3.1,2,4.3,0.8l2.7-3.2l-1.3-0.5C385.4,191.6,384.5,191.6,383.8,192z M277.2,194.9l0.4-0.6l-3.9-2.3
					c-0.7-0.4-1.6-0.4-2.3-0.1l-1.3,0.5l2.7,3.2C274.1,196.8,276.1,196.2,277.2,194.9z M322.2,291.8v-98c2,0.3,4,0.5,6,0.5
					c2.4,0,4.7-0.2,7-0.6v98.2c0,0,3.9-0.8,6.1,2.9h-25.2C318.3,291,322.2,291.8,322.2,291.8z"/>
			</g>
		</g>
	</g>
</g>
</svg>
