<?xml version="1.0" encoding="utf-8"?>
<!-- Generator: Adobe Illustrator 26.5.3, SVG Export Plug-In . SVG Version: 6.00 Build 0)  -->
<svg version="1.1" id="Capa_1" xmlns="http://www.w3.org/2000/svg" xmlns:xlink="http://www.w3.org/1999/xlink" x="0px" y="0px"
	 viewBox="0 0 680.5 711" style="enable-background:new 0 0 680.5 711;" xml:space="preserve">
<style type="text/css">
	.st0{fill:#62599F;}
	.st1{fill:#9A95C2;}
	.st2{fill:#A5A0C8;}
	.st3{fill:#8079B2;}
	.st4{fill:#D5D3E6;}
	.st5{fill:#B6B2D3;}
	.st6{fill:#A9A5CB;}
	.st7{fill:#7D858B;}
</style>
<g>
	<g>
		<g>
			<g>
				<g>
					<polygon class="st0" points="335.3,212.2 335.3,120.7 233.1,120.7 214.2,152.8 23.2,152.8 23.2,212.2 					"/>
				</g>
			</g>
			<g>
				<polygon class="st1" points="346.5,212.2 346.5,120.7 244.4,120.7 225.5,152.8 34.5,152.8 34.5,212.2 				"/>
			</g>
		</g>
		<g>
			<g>
				<g>
					<polygon class="st0" points="428.6,212.2 428.6,120.7 326.5,120.7 307.6,152.8 116.6,152.8 116.6,212.2 					"/>
				</g>
			</g>
			<g>
				<polygon class="st2" points="439.9,212.2 439.9,120.7 337.8,120.7 318.9,152.8 127.9,152.8 127.9,212.2 				"/>
			</g>
		</g>
		<g>
			<g>
				<g>
					<g>
						<g>
							<g>
								
									<rect x="300.6" y="32.9" transform="matrix(0.7259 -0.6878 0.6878 0.7259 -12.9287 279.7987)" class="st3" width="88" height="246.4"/>
								<polygon class="st4" points="323.4,6.5 295.4,33 231.5,93.6 401,272.4 464.9,211.9 528.8,151.3 388.2,3 								"/>
							</g>
							<polygon class="st3" points="352.3,37 388.2,3 323.4,6.5 							"/>
						</g>
					</g>
				</g>
			</g>
			<g>
				<path class="st3" d="M288.9,129.3L288.9,129.3c1.3,1.4,5.1,0,8.3-3.1l91.9-87c3.3-3.1,4.9-6.8,3.5-8.2l0,0
					c-1.3-1.4-5.1,0-8.3,3.1l-91.9,87C289.1,124.2,287.5,127.9,288.9,129.3z"/>
			</g>
			<g>
				<path class="st3" d="M299.7,140.8L299.7,140.8c1.3,1.4,5.1,0,8.3-3.1l91.9-87c3.3-3.1,4.9-6.8,3.5-8.2l0,0
					c-1.3-1.4-5.1,0-8.3,3.1l-91.9,87C300,135.7,298.4,139.4,299.7,140.8z"/>
			</g>
			<g>
				<path class="st3" d="M309.3,150.8L309.3,150.8c1.3,1.4,5.1,0,8.3-3.1l91.9-87c3.3-3.1,4.9-6.8,3.5-8.2l0,0
					c-1.3-1.4-5.1,0-8.3,3.1l-91.9,87C309.6,145.8,308,149.4,309.3,150.8z"/>
			</g>
			<g>
				<path class="st3" d="M319.8,162L319.8,162c1.3,1.4,5.1,0,8.3-3.1l91.9-87c3.3-3.1,4.9-6.8,3.5-8.2l0,0c-1.3-1.4-5.1,0-8.3,3.1
					l-91.9,87C320.1,156.9,318.5,160.6,319.8,162z"/>
			</g>
			<g>
				<path class="st3" d="M267.8,107.1L267.8,107.1c1.5,1.6,4.1,1.7,5.7,0.2L319.2,64c1.6-1.5,1.7-4.1,0.2-5.7l0,0
					c-1.5-1.6-4.1-1.7-5.7-0.2L268,101.3C266.3,102.9,266.3,105.4,267.8,107.1z"/>
			</g>
			<g>
				<path class="st3" d="M279.4,119.2L279.4,119.2c1.5,1.6,4.1,1.7,5.7,0.2l45.6-43.2c1.6-1.5,1.7-4.1,0.2-5.7l0,0
					c-1.5-1.6-4.1-1.7-5.7-0.2l-45.6,43.2C277.9,115,277.8,117.6,279.4,119.2z"/>
			</g>
			<g>
				<path class="st3" d="M417.7,171.1L417.7,171.1c1.5,1.6,4.1,1.7,5.7,0.2l45.6-43.2c1.6-1.5,1.7-4.1,0.2-5.7l0,0
					c-1.5-1.6-4.1-1.7-5.7-0.2l-45.6,43.2C416.2,166.9,416.1,169.5,417.7,171.1z"/>
			</g>
			<g>
				<path class="st3" d="M429.5,183.6L429.5,183.6c1.5,1.6,4.1,1.7,5.7,0.2l45.6-43.2c1.6-1.5,1.7-4.1,0.2-5.7l0,0
					c-1.5-1.6-4.1-1.7-5.7-0.2l-45.6,43.2C428,179.4,428,182,429.5,183.6z"/>
			</g>
		</g>
		<g>
			<g>
				<g>
					<polygon class="st0" points="522,212.2 522,120.7 419.9,120.7 401,152.8 210,152.8 210,212.2 					"/>
				</g>
			</g>
			<g>
				<polygon class="st5" points="533.3,212.2 533.3,120.7 431.2,120.7 412.3,152.8 221.3,152.8 221.3,212.2 				"/>
			</g>
		</g>
		<g>
			<g>
				<g>
					<polygon class="st0" points="615.4,212.2 615.4,120.7 513.3,120.7 494.4,152.8 303.4,152.8 303.4,212.2 					"/>
				</g>
			</g>
			<g>
				<g>
					<polygon class="st4" points="626.7,212.2 626.7,120.7 524.6,120.7 505.7,152.8 314.7,152.8 314.7,212.2 					"/>
				</g>
			</g>
		</g>
		<rect x="1" y="212.2" class="st3" width="531.6" height="118.2"/>
		<g>
			<rect x="325" y="192.5" class="st6" width="342.8" height="157.6"/>
			<rect x="337.8" y="192.5" class="st0" width="342.8" height="157.6"/>
		</g>
		<g>
			<rect x="449.6" y="291" class="st3" width="112.3" height="34"/>
			<rect x="461.2" y="291" class="st6" width="107.6" height="34"/>
		</g>
	</g>
</g>
<g>
	<g>
		<g>
			<path class="st7" d="M72.6,497l-11.9-23.7c-0.3,0-0.6,0-1,0h-9.9V497H32.4v-70.8h27.2c18,0,27.2,10.3,27.2,24.5
				c0,8.5-4.1,14.9-10.9,18.7L91,497H72.6z M49.7,458.8h9.9c5.1,0,9.7-2,9.7-8.1c0-5.3-3.9-8.1-9.7-8.1h-9.9V458.8z"/>
			<path class="st7" d="M144.5,476.4h-37c1.7,6,6.6,8.7,12.8,8.7c5.3,0,8.9-2.5,10.5-4.5l11.5,6.9c-4.1,6.4-12,10.8-22.1,10.8
				c-17.3,0-28.8-10.9-28.8-26.9c0-15.2,11.8-26.9,26.5-26.9C133.2,444.5,146.5,454.8,144.5,476.4z M129.6,466.5
				c-1.2-6-5.5-8.7-11.1-8.7c-5.2,0-9.5,3-11,8.7H129.6z"/>
			<path class="st7" d="M194.2,481.1c0,10.8-8,17.2-23,17.2c-10.3,0-20.2-3.3-22.4-12.3l14.9-4.7c0.6,2,2.6,4.1,7.3,4.1
				c3.4,0,6.2-1,6.2-3.6c0-3.5-5.4-3.3-11.4-4.7c-9.8-2.2-15.2-5.8-15.2-15.8c0-10.7,9.2-16.9,22.1-16.9c8.8,0,17.5,4.3,19.7,13
				l-13.8,3.3c-0.6-2.4-2.8-3.7-5.9-3.7c-3.2,0-6.3,0.9-6.3,3.7c0,3.3,5.6,3.5,9.6,4.4C189,468,194.2,471.7,194.2,481.1z"/>
			<path class="st7" d="M253.8,471.4c0,15.2-11.4,26.9-27.5,26.9c-16,0-27.5-11.7-27.5-26.9c0-15.3,11.5-26.9,27.5-26.9
				C242.3,444.5,253.8,456.1,253.8,471.4z M237.3,471.4c0-6-4.4-11-11-11c-6.6,0-10.9,5.1-10.9,11s4.4,10.9,10.9,10.9
				C232.9,482.3,237.3,477.4,237.3,471.4z"/>
			<path class="st7" d="M278.4,426.2V497h-16.5v-70.8H278.4z"/>
			<path class="st7" d="M338.8,445.7V497h-16.5v-4.7c-2.8,3.3-7.3,6-14,6c-12.8,0-18.8-10.1-18.8-20.4v-32.2h16.4v27.7
				c0,5.9,3.7,8.8,8.2,8.8c4.9,0,8.2-3.1,8.2-8.8v-27.7H338.8z"/>
			<path class="st7" d="M383.6,477.6l14.2,8.5c-4.7,7.4-13.2,12.2-23.4,12.2c-16,0-27.5-11.7-27.5-26.9c0-15.3,11.5-26.9,27.5-26.9
				c10.2,0,18.7,4.8,23.4,12.2l-14.2,8.5c-1.9-2.9-5.2-4.9-9.2-4.9c-6.6,0-10.9,5.1-10.9,11s4.4,10.9,10.9,10.9
				C378.4,482.3,381.7,480.4,383.6,477.6z"/>
			<path class="st7" d="M403.9,431.3c0-4.8,3.8-8.6,8.6-8.6s8.6,3.8,8.6,8.6s-3.8,8.7-8.6,8.7S403.9,436.1,403.9,431.3z
				 M404.3,445.7h16.4V497h-16.4V445.7z"/>
			<path class="st7" d="M483.8,471.4c0,15.2-11.4,26.9-27.5,26.9c-16,0-27.5-11.7-27.5-26.9c0-15.3,11.5-26.9,27.5-26.9
				C472.4,444.5,483.8,456.1,483.8,471.4z M467.3,471.4c0-6-4.3-11-11-11c-6.6,0-10.9,5.1-10.9,11s4.4,10.9,10.9,10.9
				C463,482.3,467.3,477.4,467.3,471.4z"/>
			<path class="st7" d="M541.2,464.9V497h-16.5v-27.6c0-5.9-3.6-8.8-8.2-8.8c-4.8,0-8.2,3.1-8.2,8.8V497h-16.4v-51.3h16.4v4.8
				c2.9-3.3,7.4-6,14.1-6C535.1,444.5,541.2,454.6,541.2,464.9z"/>
			<path class="st7" d="M602.3,476.4h-37c1.7,6,6.6,8.7,12.8,8.7c5.3,0,8.9-2.5,10.5-4.5l11.5,6.9c-4.1,6.4-12,10.8-22.1,10.8
				c-17.3,0-28.8-10.9-28.8-26.9c0-15.2,11.8-26.9,26.5-26.9C591,444.5,604.3,454.8,602.3,476.4z M587.4,466.5
				c-1.2-6-5.5-8.7-11.1-8.7c-5.2,0-9.5,3-11,8.7H587.4z"/>
			<path class="st7" d="M652,481.1c0,10.8-8,17.2-23,17.2c-10.3,0-20.2-3.3-22.4-12.3l14.9-4.7c0.6,2,2.6,4.1,7.3,4.1
				c3.4,0,6.2-1,6.2-3.6c0-3.5-5.4-3.3-11.4-4.7c-9.8-2.2-15.2-5.8-15.2-15.8c0-10.7,9.2-16.9,22.1-16.9c8.8,0,17.5,4.3,19.7,13
				l-13.8,3.3c-0.6-2.4-2.8-3.7-5.9-3.7c-3.2,0-6.3,0.9-6.3,3.7c0,3.3,5.6,3.5,9.6,4.4C646.8,468,652,471.7,652,481.1z"/>
			<path class="st7" d="M209.6,561.9c0,13.5-8.7,26.9-24.6,26.9c-7,0-11.5-2.6-14.5-6.3V607H154v-70.8h16.5v5.1
				c2.9-3.6,7.5-6.3,14.5-6.3C200.9,535,209.6,548.5,209.6,561.9z M193,561.9c0-6.4-4.1-11-11-11c-6.2,0-10.9,4.1-10.9,11
				c0,6.8,4.8,10.9,10.9,10.9C188.8,572.9,193,568.2,193,561.9z"/>
			<path class="st7" d="M269.7,561.9c0,15.2-11.4,26.9-27.5,26.9c-16,0-27.5-11.7-27.5-26.9c0-15.3,11.5-26.9,27.5-26.9
				C258.2,535,269.7,546.7,269.7,561.9z M253.2,561.9c0-6-4.4-11-11-11c-6.6,0-10.9,5.1-10.9,11s4.4,10.9,10.9,10.9
				C248.8,572.9,253.2,567.9,253.2,561.9z"/>
			<path class="st7" d="M310.3,535v17.6c-14.6-2.2-16.2,6.1-16.2,14.7v20.2h-16.4v-51.3h16.4v7.8C297.8,538.3,304.3,535,310.3,535z"
				/>
			<path class="st7" d="M365.5,549.8V566c0,5.4,1.9,8.1,7,8.1c1.3,0,2.3-0.2,3.1-0.3v13.8c-1.7,0.6-3.8,0.9-7.1,0.9
				c-15.8,0-19.4-10.7-19.4-20.7v-17.9h-6.4v-13.6h6.4v-10.7h16.4v10.7h10.1v13.6H365.5z"/>
			<path class="st7" d="M385.8,521.9c0-4.8,3.8-8.6,8.6-8.6s8.6,3.8,8.6,8.6s-3.8,8.7-8.6,8.7S385.8,526.6,385.8,521.9z
				 M386.2,536.2h16.4v51.3h-16.4V536.2z"/>
			<path class="st7" d="M469.3,561.9c0,13.5-8.7,26.9-24.6,26.9c-7,0-11.5-2.6-14.5-6.3V607h-16.5v-70.8h16.5v5.1
				c2.9-3.6,7.5-6.3,14.5-6.3C460.6,535,469.3,548.5,469.3,561.9z M452.7,561.9c0-6.4-4.1-11-11-11c-6.2,0-10.9,4.1-10.9,11
				c0,6.8,4.8,10.9,10.9,10.9C448.5,572.9,452.7,568.2,452.7,561.9z"/>
			<path class="st7" d="M529.4,561.9c0,15.2-11.4,26.9-27.5,26.9c-16,0-27.5-11.7-27.5-26.9c0-15.3,11.5-26.9,27.5-26.9
				C517.9,535,529.4,546.7,529.4,561.9z M512.9,561.9c0-6-4.3-11-11-11c-6.6,0-10.9,5.1-10.9,11s4.4,10.9,10.9,10.9
				C508.5,572.9,512.9,567.9,512.9,561.9z"/>
			<path class="st7" d="M139.7,607.2V678h-16.4v-5c-3,3.6-7.6,6.3-14.5,6.3c-16,0-24.6-13.5-24.6-26.9s8.6-26.9,24.6-26.9
				c6.9,0,11.4,2.6,14.5,6.3v-24.6H139.7z M122.8,652.5c0-6.9-4.9-11-11-11c-6.8,0-10.9,4.7-10.9,11c0,6.3,4.1,10.9,10.9,10.9
				C117.9,663.4,122.8,659.2,122.8,652.5z"/>
			<path class="st7" d="M200.8,657.4h-37c1.7,6,6.6,8.7,12.8,8.7c5.3,0,8.9-2.5,10.5-4.5l11.5,6.9c-4.1,6.4-12,10.8-22.1,10.8
				c-17.3,0-28.8-10.9-28.8-26.9c0-15.2,11.8-26.9,26.5-26.9C189.4,625.5,202.8,635.9,200.8,657.4z M185.9,647.5
				c-1.2-6-5.5-8.7-11.1-8.7c-5.2,0-9.5,3-11,8.7H185.9z"/>
			<path class="st7" d="M276.7,662.2c0,10.8-8,17.2-23,17.2c-10.3,0-20.2-3.3-22.4-12.3l14.9-4.7c0.6,2,2.6,4.1,7.3,4.1
				c3.4,0,6.2-1,6.2-3.6c0-3.5-5.4-3.3-11.4-4.7c-9.8-2.2-15.2-5.8-15.2-15.8c0-10.7,9.2-16.9,22.1-16.9c8.8,0,17.5,4.3,19.7,13
				l-13.8,3.3c-0.6-2.4-2.8-3.7-5.9-3.7c-3.2,0-6.3,0.9-6.3,3.7c0,3.3,5.6,3.5,9.6,4.4C271.6,649,276.7,652.8,276.7,662.2z"/>
			<path class="st7" d="M330.3,646.2V678h-16.4v-4.8c-2.7,3.9-8.8,6.1-14.1,6.1c-6.9,0-17.5-2.6-17.5-15.1c0-17,22.1-17,25.5-17
				c2.3,0,5,0,6.1,0v-0.2c0-4.9-2.4-8.3-8.4-8.3c-4.1,0-7.7,1.6-9.7,3.2l-10.7-7.3c5.6-5.9,13.3-9.2,23.1-9.2
				C324.5,625.5,330.3,633.9,330.3,646.2z M313.9,655.5c-0.4,0-0.9,0-1.3,0c-8.2,0-13.7,1.5-13.7,6.7c0,3.7,3,5.2,6.6,5.2
				c3.5,0,7-1.7,8.4-3.6V655.5z"/>
			<path class="st7" d="M390.7,646V678h-16.5v-27.6c0-5.9-3.6-8.8-8.2-8.8c-4.8,0-8.2,3.1-8.2,8.8V678h-16.4v-51.3h16.4v4.8
				c2.9-3.3,7.4-6,14.1-6C384.6,625.5,390.7,635.7,390.7,646z"/>
			<path class="st7" d="M435.5,658.6l14.2,8.5c-4.7,7.4-13.2,12.2-23.4,12.2c-16,0-27.5-11.7-27.5-26.9c0-15.3,11.5-26.9,27.5-26.9
				c10.2,0,18.7,4.8,23.4,12.2l-14.2,8.5c-1.9-2.9-5.2-4.9-9.2-4.9c-6.6,0-10.9,5.1-10.9,11s4.4,10.9,10.9,10.9
				C430.3,663.4,433.6,661.5,435.5,658.6z"/>
			<path class="st7" d="M455.8,612.4c0-4.8,3.8-8.6,8.6-8.6s8.6,3.8,8.6,8.6s-3.8,8.7-8.6,8.7S455.8,617.1,455.8,612.4z
				 M456.2,626.8h16.4V678h-16.4V626.8z"/>
			<path class="st7" d="M535.7,652.5c0,15.2-11.4,26.9-27.5,26.9c-16,0-27.5-11.7-27.5-26.9c0-15.3,11.5-26.9,27.5-26.9
				C524.3,625.5,535.7,637.2,535.7,652.5z M519.2,652.5c0-6-4.3-11-11-11c-6.6,0-10.9,5.1-10.9,11s4.4,10.9,10.9,10.9
				C514.9,663.4,519.2,658.4,519.2,652.5z M523.7,605.5l-9.8,14.2h-13.1l6.6-14.2H523.7z"/>
			<path class="st7" d="M593.1,646V678h-16.5v-27.6c0-5.9-3.6-8.8-8.2-8.8c-4.8,0-8.2,3.1-8.2,8.8V678h-16.4v-51.3h16.4v4.8
				c2.9-3.3,7.4-6,14.1-6C587,625.5,593.1,635.7,593.1,646z"/>
		</g>
	</g>
</g>
</svg>
