<?xml version="1.0" encoding="utf-8"?>
<!-- Generator: Adobe Illustrator 26.5.3, SVG Export Plug-In . SVG Version: 6.00 Build 0)  -->
<svg version="1.1" id="Capa_1" xmlns="http://www.w3.org/2000/svg" xmlns:xlink="http://www.w3.org/1999/xlink" x="0px" y="0px"
	 viewBox="0 0 635.5 711" style="enable-background:new 0 0 635.5 711;" xml:space="preserve">
<style type="text/css">
	.st0{fill:#8079B2;}
	.st1{fill:#D5D3E6;}
	.st2{fill:#7D858B;}
</style>
<g>
	<g>
		<g>
			<g>
				<g>
					<g>
						<g>
							<g>
								<g>
									<rect x="194.3" y="44.8" class="st0" width="134.7" height="377.1"/>
									<polygon class="st1" points="395.6,44.8 336.5,44.8 201.9,44.8 201.9,421.9 336.5,421.9 471.3,421.9 471.3,109.2 									
										"/>
								</g>
								<polygon class="st0" points="395.6,109.2 471.3,109.2 395.6,44.8 								"/>
							</g>
						</g>
					</g>
				</g>
				<g>
					<path class="st0" d="M228,144.9L228,144.9c0,2.9,5.6,5.3,12.5,5.3h193.6c6.9,0,12.5-2.4,12.5-5.3l0,0c0-2.9-5.6-5.3-12.5-5.3
						H240.5C233.6,139.5,228,141.9,228,144.9z"/>
				</g>
				<g>
					<path class="st0" d="M228,169.1L228,169.1c0,2.9,5.6,5.3,12.5,5.3h193.6c6.9,0,12.5-2.4,12.5-5.3l0,0c0-2.9-5.6-5.3-12.5-5.3
						H240.5C233.6,163.7,228,166.1,228,169.1z"/>
				</g>
				<g>
					<path class="st0" d="M228,190.4L228,190.4c0,2.9,5.6,5.3,12.5,5.3h193.6c6.9,0,12.5-2.4,12.5-5.3l0,0c0-2.9-5.6-5.3-12.5-5.3
						H240.5C233.6,184.9,228,187.4,228,190.4z"/>
				</g>
				<g>
					<path class="st0" d="M228,213.8L228,213.8c0,2.9,5.6,5.3,12.5,5.3h193.6c6.9,0,12.5-2.4,12.5-5.3l0,0c0-2.9-5.6-5.3-12.5-5.3
						H240.5C233.6,208.4,228,210.9,228,213.8z"/>
				</g>
				<g>
					<path class="st0" d="M228,98.1L228,98.1c0,3.5,2.8,6.3,6.3,6.3h96.1c3.5,0,6.3-2.8,6.3-6.3l0,0c0-3.5-2.8-6.3-6.3-6.3h-96.1
						C230.8,91.8,228,94.6,228,98.1z"/>
				</g>
				<g>
					<path class="st0" d="M228,123.7L228,123.7c0,3.5,2.8,6.3,6.3,6.3h96.1c3.5,0,6.3-2.8,6.3-6.3l0,0c0-3.5-2.8-6.3-6.3-6.3h-96.1
						C230.8,117.5,228,120.3,228,123.7z"/>
				</g>
				<g>
					<path class="st0" d="M327,326.9L327,326.9c0,3.5,2.8,6.3,6.3,6.3h96.1c3.5,0,6.3-2.8,6.3-6.3l0,0c0-3.5-2.8-6.3-6.3-6.3h-96.1
						C329.8,320.7,327,323.5,327,326.9z"/>
				</g>
				<g>
					<path class="st0" d="M327,353.3L327,353.3c0,3.5,2.8,6.3,6.3,6.3h96.1c3.5,0,6.3-2.8,6.3-6.3l0,0c0-3.5-2.8-6.3-6.3-6.3h-96.1
						C329.8,347.1,327,349.9,327,353.3z"/>
				</g>
			</g>
		</g>
		<path class="st0" d="M245.3,257.3c53.9,0.1,98,43.8,97.7,96.9c-0.2,52.9-45.2,97.9-98,97.7c-52.9-0.1-97.9-45.1-97.7-97.9
			C147.3,300.9,191.4,257.3,245.3,257.3z M195.1,354.1c-4.5,0.2-8.8,2.1-12,6c-5.7,7.1-4.7,15.9,2.4,22.8
			c10.2,10,20.4,19.8,30.7,29.6c8.3,8.1,17.3,8,25.6-0.2c20.8-20.5,41.8-41,62.7-61.6c1.2-1.2,2.3-2.3,3.2-3.7
			c4.1-5.7,4.1-13,0-18.6c-4.2-5.8-11.2-8.3-18-5.8c-2.9,1.2-5.8,3.1-8.1,5.3c-16.9,16.4-33.7,32.9-50.4,49.5c-1.9,1.9-3,2-5,0
			c-6-6.1-12.3-12-18.4-18C204.5,356.3,200.6,354.3,195.1,354.1z"/>
		<path class="st1" d="M195.1,354.1c-4.5,0.2-8.8,2.1-12,6c-5.7,7.1-4.7,15.9,2.4,22.8c10.2,10,20.4,19.8,30.7,29.6
			c8.3,8.1,17.3,8,25.6-0.2c20.8-20.5,41.8-41,62.7-61.6c1.2-1.2,2.3-2.3,3.2-3.7c4.1-5.7,4.1-13,0-18.6c-4.2-5.8-11.2-8.3-18-5.8
			c-2.9,1.2-5.8,3.1-8.1,5.3c-16.9,16.4-33.7,32.9-50.4,49.5c-1.9,1.9-3,2-5,0c-6-6.1-12.3-12-18.4-18
			C204.5,356.3,200.6,354.3,195.1,354.1z"/>
	</g>
</g>
<g>
	<g>
		<g>
			<path class="st2" d="M198.5,503.9h-15.7v51.5h-16.4v-51.5h-15.7v-15.5h47.8V503.9z"/>
			<path class="st2" d="M206.3,493.3c0-4.5,3.6-8.1,8.1-8.1c4.5,0,8.1,3.6,8.1,8.1c0,4.5-3.6,8.2-8.1,8.2
				C209.9,501.5,206.3,497.8,206.3,493.3z M206.6,506.8h15.5v48.5h-15.5V506.8z"/>
			<path class="st2" d="M285.2,531.2c0,12.7-8.2,25.5-23.3,25.5c-6.6,0-10.9-2.5-13.7-5.9v23.2h-15.6v-67h15.6v4.8
				c2.8-3.4,7.1-5.9,13.7-5.9C277,505.7,285.2,518.4,285.2,531.2z M269.5,531.2c0-6-3.9-10.4-10.4-10.4c-5.8,0-10.3,3.9-10.3,10.4
				c0,6.4,4.5,10.3,10.3,10.3C265.6,541.5,269.5,537.1,269.5,531.2z"/>
			<path class="st2" d="M342.1,531.2c0,14.4-10.8,25.5-26,25.5c-15.1,0-26-11.1-26-25.5c0-14.5,10.9-25.5,26-25.5
				C331.3,505.7,342.1,516.7,342.1,531.2z M326.5,531.2c0-5.6-4.1-10.4-10.4-10.4c-6.2,0-10.3,4.8-10.3,10.4s4.1,10.3,10.3,10.3
				C322.4,541.5,326.5,536.8,326.5,531.2z"/>
			<path class="st2" d="M424.2,488.4v67h-15.5v-4.7c-2.9,3.4-7.2,5.9-13.7,5.9c-15.1,0-23.3-12.7-23.3-25.5s8.1-25.5,23.3-25.5
				c6.5,0,10.8,2.5,13.7,5.9v-23.3H424.2z M408.2,531.2c0-6.5-4.6-10.4-10.4-10.4c-6.4,0-10.3,4.4-10.3,10.4
				c0,5.9,3.9,10.3,10.3,10.3C403.6,541.5,408.2,537.6,408.2,531.2z"/>
			<path class="st2" d="M482,535.9h-35c1.6,5.6,6.2,8.2,12.2,8.2c5,0,8.4-2.4,10-4.2l10.9,6.5c-3.9,6-11.4,10.2-20.9,10.2
				c-16.4,0-27.3-10.3-27.3-25.5c0-14.4,11.2-25.5,25.1-25.5C471.3,505.7,484,515.5,482,535.9z M468,526.5
				c-1.1-5.6-5.2-8.2-10.5-8.2c-4.9,0-9,2.9-10.4,8.2H468z"/>
			<path class="st2" d="M117,591.3V608c-13.8-2.1-15.3,5.7-15.3,13.9V641H86.2v-48.5h15.5v7.4C105.2,594.4,111.3,591.3,117,591.3z"
				/>
			<path class="st2" d="M171,621.5h-35c1.6,5.6,6.2,8.2,12.2,8.2c5,0,8.4-2.4,10-4.2L169,632c-3.9,6-11.4,10.2-20.9,10.2
				c-16.4,0-27.3-10.3-27.3-25.5c0-14.4,11.2-25.5,25.1-25.5C160.3,591.3,173,601.1,171,621.5z M157,612.1
				c-1.1-5.6-5.2-8.2-10.5-8.2c-4.9,0-9,2.9-10.4,8.2H157z"/>
			<path class="st2" d="M218,626c0,10.2-7.6,16.3-21.7,16.3c-9.8,0-19.1-3.2-21.2-11.7l14.1-4.4c0.6,1.9,2.5,3.9,6.9,3.9
				c3.3,0,5.8-1,5.8-3.4c0-3.4-5.1-3.2-10.8-4.4c-9.3-2.1-14.4-5.5-14.4-14.9c0-10.1,8.7-16,20.9-16c8.3,0,16.6,4.1,18.7,12.3
				l-13,3.2c-0.6-2.3-2.7-3.5-5.6-3.5c-3.1,0-5.9,0.9-5.9,3.5c0,3.2,5.3,3.4,9.1,4.1C213.2,613.6,218,617.1,218,626z"/>
			<path class="st2" d="M274.4,616.8c0,14.4-10.8,25.5-26,25.5c-15.1,0-26-11.1-26-25.5c0-14.5,10.9-25.5,26-25.5
				C263.6,591.3,274.4,602.4,274.4,616.8z M258.8,616.8c0-5.6-4.1-10.4-10.4-10.4c-6.2,0-10.3,4.8-10.3,10.4s4.1,10.3,10.3,10.3
				C254.7,627.2,258.8,622.5,258.8,616.8z"/>
			<path class="st2" d="M297.7,574v67h-15.6v-67H297.7z"/>
			<path class="st2" d="M354.8,592.5V641h-15.6v-4.4c-2.7,3.2-6.9,5.6-13.2,5.6c-12.2,0-17.8-9.6-17.8-19.3v-30.4h15.5v26.2
				c0,5.6,3.5,8.3,7.8,8.3c4.6,0,7.8-3,7.8-8.3v-26.2H354.8z"/>
			<path class="st2" d="M397.2,622.7l13.4,8c-4.4,7-12.4,11.6-22.1,11.6c-15.1,0-26-11.1-26-25.5c0-14.5,10.9-25.5,26-25.5
				c9.7,0,17.7,4.5,22.1,11.6l-13.4,8c-1.8-2.8-4.9-4.6-8.7-4.6c-6.2,0-10.3,4.8-10.3,10.4s4.1,10.3,10.3,10.3
				C392.4,627.2,395.4,625.3,397.2,622.7z"/>
			<path class="st2" d="M416.5,578.9c0-4.5,3.6-8.1,8.1-8.1c4.5,0,8.1,3.6,8.1,8.1c0,4.5-3.6,8.2-8.1,8.2
				C420.1,587.1,416.5,583.4,416.5,578.9z M416.9,592.5h15.5V641h-15.5V592.5z"/>
			<path class="st2" d="M492.1,616.8c0,14.4-10.8,25.5-26,25.5c-15.1,0-26-11.1-26-25.5c0-14.5,10.9-25.5,26-25.5
				C481.3,591.3,492.1,602.4,492.1,616.8z M476.5,616.8c0-5.6-4.1-10.4-10.4-10.4c-6.2,0-10.3,4.8-10.3,10.4s4.1,10.3,10.3,10.3
				C472.4,627.2,476.5,622.5,476.5,616.8z M480.7,572.4l-9.3,13.4h-12.3l6.2-13.4H480.7z"/>
			<path class="st2" d="M546.4,610.7V641h-15.6v-26.1c0-5.6-3.4-8.3-7.8-8.3c-4.5,0-7.8,3-7.8,8.3V641h-15.5v-48.5h15.5v4.5
				c2.8-3.2,7-5.6,13.3-5.6C540.6,591.3,546.4,600.9,546.4,610.7z"/>
		</g>
	</g>
</g>
</svg>
