<?xml version="1.0" encoding="utf-8"?>
<!-- Generator: Adobe Illustrator 26.5.2, SVG Export Plug-In . SVG Version: 6.00 Build 0)  -->
<svg version="1.1" id="Capa_1" xmlns="http://www.w3.org/2000/svg" xmlns:xlink="http://www.w3.org/1999/xlink" x="0px" y="0px"
	 viewBox="0 0 745.5 711" style="enable-background:new 0 0 745.5 711;" xml:space="preserve">
<style type="text/css">
	.st0{fill:#8079B2;}
	.st1{fill:#4C4492;}
	.st2{fill:#CACFE5;}
	.st3{fill:#FAFBFC;}
	.st4{fill:#FDFDFD;}
	.st5{fill:#7D858B;}
</style>
<g>
	<g>
		<path class="st0" d="M249.3,2c55.1,0,110.1,0,165.2,0c6.5,2.6,10.1,7.2,10.1,14.4c-0.1,46.6,0,93.1-0.1,139.7
			c-10.5-3.9-20.9-7.9-31.4-11.8c-12.6-4.6-24.9,1-29.8,13.5c-2.8,7.3-5.6,14.6-8.3,21.8c-5.5,14.6-11.3,29.1-16.5,43.7
			c-4.7,13.1,2.8,26.6,16.2,29.7c10.8,2.5,21.9-3.4,26.1-14.3c4.9-12.6,9.7-25.2,14.4-37.9c0.8-2.3,1.6-3.1,4.1-1.8
			c7.3,3.9,14.8,7.5,22.2,11.2c1.1,0.5,2.5,0.9,2.2,2.5c-1.4,8.5,0.4,17,0.4,25.5c0.1,33.5,0.1,67,0.1,100.5c0,1.6-0.3,3.2,0.4,4.7
			c0,5.8,0,11.7-0.1,17.5c-0.1,10.3-5,15.3-15.2,15.3c-69.4,0-138.8,0-208.3,0c-10.3,0-15.3-4.9-15.3-15.1c0-96.9,0-193.9,0-290.8
			c0-1.3-0.3-2.7,0.4-3.9c16.8,0,33.6,0.1,50.4,0.1c8.4,0,13.5-5.2,13.6-13.7c0-15.3,0-30.7,0-46c0-1.3,0.3-2.7-0.7-3.9
			C249.4,2.5,249.3,2.3,249.3,2z M276,337.5c16.3,0,32.6,0,48.9,0c1.2,0,2.5,0.1,3.6-0.1c3.2-0.7,5.2-2.7,5.4-6
			c0.2-3.3-1.5-5.6-4.8-6.4c-1.5-0.4-3.1-0.4-4.7-0.4c-32.4,0-64.7,0-97.1,0c-1.5,0-2.9,0-4.3,0.3c-3.3,0.7-5,2.9-5.1,6.2
			c-0.1,3.1,2.3,5.8,5.5,6.3c1.2,0.2,2.4,0.1,3.6,0.1C243.4,337.5,259.7,337.5,276,337.5z M340.4,111.6c16.3,0,32.6,0,48.9,0
			c1.1,0,2.2,0.1,3.3-0.1c3.4-0.3,5.6-2.7,5.8-5.9c0.2-3.3-1.6-5.9-5-6.6c-1.5-0.3-3.1-0.3-4.7-0.3c-32.2,0-64.5,0-96.7,0
			c-1.6,0-3.2,0-4.7,0.4c-3.2,0.8-4.9,3.1-4.8,6.4c0,3.2,2.5,5.7,5.7,6.1c1.1,0.1,2.2,0.1,3.3,0.1
			C307.8,111.7,324.1,111.6,340.4,111.6z M340.7,305.2c16.1,0,32.1,0,48.2,0c1.1,0,2.2,0.1,3.3,0c3.8-0.3,6.2-2.8,6.3-6.2
			c0.1-3.6-2.4-6.3-6.3-6.7c-1-0.1-1.9,0-2.9,0c-32.5,0-65,0-97.4,0c-1.2,0-2.5-0.1-3.6,0.1c-3.4,0.5-5.8,3.3-5.7,6.5
			c0.1,3.3,2.6,5.9,6,6.3c1.1,0.1,2.2,0.1,3.3,0.1C308.1,305.2,324.4,305.2,340.7,305.2z M275.6,260c-16.8,0-33.6,0-50.4,0
			c-4.4,0-7.3,2.8-7.3,6.5c0,3.6,2.9,6.2,7,6.4c0.8,0,1.7,0,2.6,0c32,0,64,0,96,0c1.5,0,3,0,4.4-0.3c4.7-1.1,6.6-6.3,3.8-10
			c-1.7-2.3-4.1-2.7-6.8-2.7C308.5,260,292,260,275.6,260z M275.9,143.9c16.2,0,32.4,0,48.6,0c1.2,0,2.4,0.1,3.6-0.1
			c3.4-0.3,5.9-3,5.9-6.3c0-3.2-2.2-5.7-5.5-6.2c-1.1-0.2-2.2-0.1-3.3-0.1c-32.8,0-65.5,0-98.3,0c-1.2,0-2.5,0-3.6,0.2
			c-3.3,0.6-5.1,2.8-5.3,6c-0.2,3.1,2.2,5.9,5.4,6.4c1.2,0.2,2.4,0.1,3.6,0.1C243.3,143.9,259.6,143.9,275.9,143.9z M271.6,208.4
			c14.7,0,29.4,0,44.1,0c6.4,0,9.5-2.1,9.4-6.5c-0.1-4.2-3.2-6.3-9.3-6.3c-29.6,0-59.1,0-88.7,0c-1.3,0-2.7-0.1-4,0.2
			c-3.2,0.7-5,2.9-5.2,6.2c-0.2,3.1,2.3,5.8,5.5,6.3c1.3,0.2,2.7,0.1,4,0.1C242.2,208.4,256.9,208.4,271.6,208.4z M310,176.1
			c6.7,0,13.4,0,20,0c4.5,0,7.4-2.5,7.4-6.3c0.1-3.7-2.8-6.4-7.3-6.4c-13.5-0.1-27-0.1-40.5,0c-4.6,0-7.2,2.5-7.2,6.4
			c0.1,3.9,2.7,6.2,7.3,6.3C296.6,176.1,303.3,176.1,310,176.1z M243.5,305.2c6.2,0,12.4,0,18.6,0c4.4,0,7.4-2.6,7.5-6.3
			c0.1-3.8-2.9-6.6-7.5-6.6c-12.1-0.1-24.3-0.1-36.4,0c-4.7,0-7.7,2.7-7.6,6.5c0,3.9,3,6.4,7.7,6.4
			C231.6,305.3,237.6,305.2,243.5,305.2z M243.9,227.8c-6.1,0-12.1,0-18.2,0c-4.7,0-7.7,2.6-7.7,6.4c0,3.8,3,6.5,7.6,6.5
			c12.1,0.1,24.3,0.1,36.4,0c4.6,0,7.6-2.8,7.5-6.7c-0.1-3.7-3-6.2-7.5-6.3C256,227.8,249.9,227.8,243.9,227.8z M243.8,111.6
			c6.1,0,12.1,0,18.2,0c4.5,0,7.4-2.5,7.5-6.2c0.1-3.7-2.7-6.7-7.1-6.7c-12.5-0.1-25-0.1-37.5,0c-4.2,0-7,2.9-7,6.4
			c0,3.8,2.9,6.4,7.3,6.5C231.4,111.7,237.6,111.6,243.8,111.6z M372.4,337.5c6.2,0,12.4,0,18.6,0c4.7,0,7.3-2.4,7.4-6.3
			c0.1-4-2.6-6.7-7.4-6.7c-12.2-0.1-24.4-0.1-36.5,0c-4.8,0-7.5,2.6-7.4,6.7c0.1,3.9,2.8,6.2,7.4,6.3
			C360.5,337.5,366.4,337.5,372.4,337.5z M243.7,176.1c6.2,0,12.4,0.1,18.6,0c4.4,0,7.3-2.8,7.2-6.5c-0.1-3.6-2.9-6.2-7.1-6.2
			c-12.4-0.1-24.8-0.1-37.2,0c-4.4,0-7.3,2.8-7.2,6.5c0.1,3.6,2.9,6.1,7.1,6.2C231.3,176.1,237.5,176.1,243.7,176.1z M300.2,227.8
			c-3.5,0-7-0.1-10.6,0c-4.2,0.1-7,2.5-7.2,6.2c-0.1,3.6,2.6,6.6,6.7,6.7c7.3,0.2,14.6,0.2,21.9,0c3.9-0.1,6.6-2.9,6.6-6.4
			c0-3.7-2.8-6.4-6.9-6.5C307.3,227.7,303.7,227.8,300.2,227.8z"/>
		<path class="st1" d="M559.9,327.2c-2.7,7.8-8.2,10.8-16.2,10.3c-4.5-0.3-9,0-13.5-0.1c-9.7,0-13.9-3.5-15.7-13.1
			c0.1-1.7,0.2-3.4,0.2-5.1c0-36.4,0-72.7,0-109.1c0-9.2-0.1-18.5-0.1-27.7c1.7-9.2,5.9-12.7,15.2-12.7c4.5,0,9,0.3,13.5-0.1
			c8-0.6,13.7,2.2,16.6,9.9C559.9,228.8,559.9,278,559.9,327.2z"/>
		<path class="st2" d="M514.5,182.5c0,9.2,0.1,18.5,0.1,27.7c0,36.4,0,72.7,0,109.1c0,1.7-0.1,3.4-0.2,5.1c-10.5,0-20.9,0-31.4,0
			c-7.5,0-14.4,1.7-20.7,5.9c-11.4,7.6-23.9,12.4-37.8,13.1c-0.7-1.5-0.4-3.1-0.4-4.7c0-33.5,0-67-0.1-100.5c0-8.5-1.8-17-0.4-25.5
			c0.3-1.6-1.1-2-2.2-2.5c-7.4-3.7-14.9-7.3-22.2-11.2c-2.5-1.3-3.3-0.5-4.1,1.8c-4.7,12.7-9.5,25.3-14.4,37.9
			c-4.3,10.9-15.3,16.8-26.1,14.3c-13.4-3.1-21-16.5-16.2-29.7c5.3-14.7,11-29.1,16.5-43.7c2.8-7.3,5.5-14.6,8.3-21.8
			c4.9-12.5,17.2-18.1,29.8-13.5c10.5,3.8,21,7.9,31.4,11.8c13.5,5.3,26.9,10.5,40.4,15.8c9.1,3.6,18,7.8,27.9,9.4
			C500,182.5,507.2,182.6,514.5,182.5z"/>
		<path class="st1" d="M186.1,66.3c4.9-4.9,9.7-9.9,14.6-14.8c16.2-16.3,32.5-32.5,48.7-48.7c1,1.1,0.7,2.5,0.7,3.9
			c0,15.3,0,30.7,0,46c0,8.5-5.1,13.7-13.6,13.7C219.7,66.4,202.9,66.3,186.1,66.3z"/>
		<path class="st3" d="M276,337.5c-16.3,0-32.6,0-48.9,0c-1.2,0-2.4,0.1-3.6-0.1c-3.2-0.5-5.6-3.2-5.5-6.3c0.1-3.3,1.8-5.5,5.1-6.2
			c1.4-0.3,2.9-0.3,4.3-0.3c32.4,0,64.7,0,97.1,0c1.6,0,3.2,0,4.7,0.4c3.2,0.8,4.9,3.1,4.8,6.4c-0.2,3.3-2.2,5.3-5.4,6
			c-1.2,0.2-2.4,0.1-3.6,0.1C308.6,337.5,292.3,337.5,276,337.5z"/>
		<path class="st3" d="M340.4,111.6c-16.3,0-32.6,0-48.9,0c-1.1,0-2.2,0.1-3.3-0.1c-3.3-0.4-5.7-2.9-5.7-6.1c0-3.3,1.6-5.6,4.8-6.4
			c1.5-0.4,3.1-0.4,4.7-0.4c32.2,0,64.5,0,96.7,0c1.6,0,3.2,0,4.7,0.3c3.3,0.7,5.2,3.3,5,6.6c-0.2,3.2-2.5,5.6-5.8,5.9
			c-1.1,0.1-2.2,0.1-3.3,0.1C373,111.7,356.7,111.6,340.4,111.6z"/>
		<path class="st3" d="M340.7,305.2c-16.3,0-32.6,0-48.9,0c-1.1,0-2.2,0.1-3.3-0.1c-3.4-0.4-5.9-3-6-6.3c-0.1-3.2,2.3-6,5.7-6.5
			c1.2-0.2,2.4-0.1,3.6-0.1c32.5,0,65,0,97.4,0c1,0,2,0,2.9,0c3.9,0.4,6.4,3,6.3,6.7c-0.1,3.5-2.6,5.9-6.3,6.2c-1.1,0.1-2.2,0-3.3,0
			C372.8,305.2,356.7,305.2,340.7,305.2z"/>
		<path class="st3" d="M275.6,260c16.4,0,32.9,0,49.3,0c2.7,0,5.1,0.4,6.8,2.7c2.8,3.7,0.9,8.9-3.8,10c-1.4,0.3-2.9,0.3-4.4,0.3
			c-32,0-64,0-96,0c-0.9,0-1.7,0-2.6,0c-4.2-0.2-7-2.8-7-6.4c0-3.7,2.9-6.5,7.3-6.5C242,260,258.8,260,275.6,260z"/>
		<path class="st4" d="M275.9,143.9c-16.3,0-32.6,0-48.9,0c-1.2,0-2.5,0.1-3.6-0.1c-3.1-0.5-5.6-3.3-5.4-6.4c0.3-3.3,2-5.5,5.3-6
			c1.2-0.2,2.4-0.2,3.6-0.2c32.8,0,65.5,0,98.3,0c1.1,0,2.2,0,3.3,0.1c3.3,0.5,5.5,3,5.5,6.2c0,3.3-2.4,6-5.9,6.3
			c-1.2,0.1-2.4,0.1-3.6,0.1C308.3,143.9,292.1,143.9,275.9,143.9z"/>
		<path class="st4" d="M271.6,208.4c-14.7,0-29.4,0-44.1,0c-1.3,0-2.7,0-4-0.1c-3.2-0.5-5.6-3.2-5.5-6.3c0.2-3.3,2-5.5,5.2-6.2
			c1.3-0.3,2.7-0.2,4-0.2c29.6,0,59.1,0,88.7,0c6.1,0,9.2,2.1,9.3,6.3c0.1,4.3-3,6.5-9.4,6.5C301,208.4,286.3,208.4,271.6,208.4z"/>
		<path class="st4" d="M310,176.1c-6.7,0-13.4,0-20,0c-4.6,0-7.3-2.4-7.3-6.3c-0.1-3.9,2.6-6.4,7.2-6.4c13.5-0.1,27-0.1,40.5,0
			c4.4,0,7.3,2.7,7.3,6.4c-0.1,3.7-2.9,6.2-7.4,6.3C323.3,176.1,316.7,176.1,310,176.1z"/>
		<path class="st3" d="M243.5,305.2c-6,0-11.9,0-17.9,0c-4.7,0-7.7-2.6-7.7-6.4c0-3.8,3-6.5,7.6-6.5c12.1-0.1,24.3-0.1,36.4,0
			c4.6,0,7.6,2.8,7.5,6.6c-0.1,3.7-3,6.3-7.5,6.3C255.9,305.3,249.7,305.2,243.5,305.2z"/>
		<path class="st3" d="M243.9,227.8c6.1,0,12.1,0,18.2,0c4.5,0,7.4,2.6,7.5,6.3c0.1,3.8-2.9,6.6-7.5,6.7c-12.1,0.1-24.3,0.1-36.4,0
			c-4.7,0-7.7-2.7-7.6-6.5c0-3.9,3-6.4,7.7-6.4C231.7,227.8,237.8,227.8,243.9,227.8z"/>
		<path class="st3" d="M243.8,111.6c-6.2,0-12.4,0-18.6,0c-4.4,0-7.3-2.7-7.3-6.5c0-3.6,2.8-6.4,7-6.4c12.5-0.1,25-0.1,37.5,0
			c4.4,0,7.2,3,7.1,6.7c-0.1,3.7-3,6.2-7.5,6.2C255.9,111.7,249.9,111.6,243.8,111.6z"/>
		<path class="st3" d="M372.4,337.5c-6,0-11.9,0-17.9,0c-4.7,0-7.3-2.3-7.4-6.3c-0.1-4.1,2.6-6.7,7.4-6.7c12.2-0.1,24.4-0.1,36.5,0
			c4.8,0,7.5,2.6,7.4,6.7c-0.1,3.9-2.8,6.2-7.4,6.3C384.8,337.5,378.6,337.5,372.4,337.5z"/>
		<path class="st4" d="M243.7,176.1c-6.2,0-12.4,0.1-18.6,0c-4.2,0-7-2.6-7.1-6.2c-0.1-3.7,2.8-6.5,7.2-6.5
			c12.4-0.1,24.8-0.1,37.2,0c4.2,0,7.1,2.6,7.1,6.2c0.1,3.7-2.8,6.4-7.2,6.5C256.1,176.1,249.9,176.1,243.7,176.1z"/>
		<path class="st3" d="M300.2,227.8c3.5,0,7-0.1,10.6,0c4.1,0.1,6.9,2.8,6.9,6.5c0,3.5-2.7,6.3-6.6,6.4c-7.3,0.2-14.6,0.2-21.9,0
			c-4.1-0.1-6.8-3.1-6.7-6.7c0.1-3.7,2.9-6.1,7.2-6.2C293.2,227.7,296.7,227.8,300.2,227.8z"/>
	</g>
	<g>
		<g>
			<path class="st5" d="M83.7,426.4v71.4H66.2v-42.4l-18.6,30.7h-6.4l-18.7-30.7v42.4H5.1v-71.4h18.3L44.4,461l20.9-34.6H83.7z"/>
			<path class="st5" d="M145.8,477h-37.3c1.7,6,6.6,8.8,12.9,8.8c5.3,0,9-2.5,10.6-4.5l11.6,6.9c-4.2,6.4-12.1,10.9-22.2,10.9
				c-17.4,0-29.1-11-29.1-27.1c0-15.3,11.9-27.1,26.7-27.1C134.4,444.9,147.9,455.3,145.8,477z M130.8,467c-1.2-6-5.5-8.8-11.2-8.8
				c-5.2,0-9.6,3.1-11.1,8.8H130.8z"/>
			<path class="st5" d="M188.2,478.2l14.3,8.6c-4.7,7.4-13.3,12.3-23.5,12.3c-16.1,0-27.7-11.8-27.7-27.1
				c0-15.4,11.6-27.1,27.7-27.1c10.3,0,18.9,4.8,23.5,12.3l-14.3,8.6c-1.9-3-5.2-4.9-9.3-4.9c-6.6,0-11,5.1-11,11.1s4.4,11,11,11
				C183,483,186.3,481.1,188.2,478.2z"/>
			<path class="st5" d="M255.4,465.7v32.1h-16.5V493c-2.8,4-8.9,6.1-14.2,6.1c-6.9,0-17.6-2.7-17.6-15.2c0-17.1,22.2-17.1,25.7-17.1
				c2.3,0,5,0,6.1,0v-0.2c0-4.9-2.4-8.4-8.5-8.4c-4.2,0-7.7,1.6-9.8,3.3l-10.8-7.3c5.6-5.9,13.4-9.3,23.2-9.3
				C249.6,444.9,255.4,453.3,255.4,465.7z M238.9,475c-0.4,0-0.9,0-1.3,0c-8.3,0-13.8,1.5-13.8,6.7c0,3.8,3.1,5.2,6.6,5.2
				s7-1.7,8.5-3.7V475z"/>
			<path class="st5" d="M316.3,465.5v32.3h-16.6v-27.8c0-5.9-3.7-8.9-8.3-8.9c-4.8,0-8.3,3.2-8.3,8.9v27.8h-16.5v-51.7h16.5v4.8
				c3-3.4,7.4-6,14.2-6C310.2,444.9,316.3,455.1,316.3,465.5z"/>
			<path class="st5" d="M327.1,431.6c0-4.8,3.9-8.7,8.7-8.7s8.7,3.9,8.7,8.7c0,4.8-3.9,8.8-8.7,8.8S327.1,436.4,327.1,431.6z
				 M327.5,446.1H344v51.7h-16.5V446.1z"/>
			<path class="st5" d="M396.8,481.8c0,10.9-8.1,17.3-23.1,17.3c-10.4,0-20.4-3.4-22.5-12.4l15-4.7c0.6,2,2.7,4.2,7.3,4.2
				c3.5,0,6.2-1,6.2-3.7c0-3.6-5.4-3.4-11.5-4.7c-9.9-2.2-15.3-5.8-15.3-15.9c0-10.8,9.3-17,22.2-17c8.9,0,17.6,4.4,19.9,13.2
				l-13.9,3.4c-0.6-2.4-2.9-3.8-5.9-3.8c-3.3,0-6.3,0.9-6.3,3.8c0,3.4,5.6,3.6,9.7,4.4C391.6,468.5,396.8,472.3,396.8,481.8z"/>
			<path class="st5" d="M481.7,463.6v34.2h-16.5v-29.7c0-5.8-4.3-7-6.9-7s-6.8,1.3-6.8,7v29.7h-16.6v-29.7c0-5.8-4.2-7-6.8-7
				s-6.9,1.3-6.9,7v29.7h-16.6v-51.7h16.6v4c2.7-3,6.7-5.2,12.7-5.2c7.1,0,11.8,2.8,14.6,6.9c3.1-3.8,7.7-6.9,14.9-6.9
				C475.9,444.9,481.7,453.2,481.7,463.6z"/>
			<path class="st5" d="M545.3,472c0,15.3-11.5,27.1-27.7,27.1c-16.1,0-27.7-11.8-27.7-27.1c0-15.4,11.6-27.1,27.7-27.1
				C533.8,444.9,545.3,456.6,545.3,472z M528.7,472c0-6-4.4-11.1-11.1-11.1c-6.6,0-11,5.1-11,11.1s4.4,11,11,11
				C524.3,483,528.7,478,528.7,472z"/>
			<path class="st5" d="M595.1,481.8c0,10.9-8.1,17.3-23.1,17.3c-10.4,0-20.4-3.4-22.5-12.4l15-4.7c0.6,2,2.7,4.2,7.3,4.2
				c3.5,0,6.2-1,6.2-3.7c0-3.6-5.4-3.4-11.5-4.7c-9.9-2.2-15.3-5.8-15.3-15.9c0-10.8,9.3-17,22.2-17c8.9,0,17.6,4.4,19.9,13.2
				l-13.9,3.4c-0.6-2.4-2.9-3.8-5.9-3.8c-3.3,0-6.3,0.9-6.3,3.8c0,3.4,5.6,3.6,9.7,4.4C589.9,468.5,595.1,472.3,595.1,481.8z"/>
			<path class="st5" d="M682,426.4v71.4h-16.5v-5c-3.1,3.7-7.6,6.3-14.6,6.3c-16.1,0-24.8-13.6-24.8-27.1s8.7-27.1,24.8-27.1
				c6.9,0,11.5,2.7,14.6,6.3v-24.8H682z M665,472c0-6.9-4.9-11.1-11.1-11.1c-6.8,0-11,4.7-11,11.1c0,6.3,4.2,11,11,11
				C660.1,483,665,478.8,665,472z"/>
			<path class="st5" d="M743.6,477h-37.3c1.7,6,6.6,8.8,12.9,8.8c5.3,0,9-2.5,10.6-4.5l11.6,6.9c-4.2,6.4-12.1,10.9-22.2,10.9
				c-17.4,0-29.1-11-29.1-27.1c0-15.3,11.9-27.1,26.7-27.1C732.2,444.9,745.7,455.3,743.6,477z M728.6,467c-1.2-6-5.5-8.8-11.2-8.8
				c-5.2,0-9.6,3.1-11.1,8.8H728.6z"/>
			<path class="st5" d="M171.4,536.1v17.7c-14.7-2.2-16.3,6.1-16.3,14.8V589h-16.5v-51.7h16.5v7.8
				C158.8,539.3,165.3,536.1,171.4,536.1z"/>
			<path class="st5" d="M228.9,568.2h-37.3c1.7,6,6.6,8.8,12.9,8.8c5.3,0,9-2.5,10.6-4.5l11.6,6.9c-4.2,6.4-12.1,10.9-22.2,10.9
				c-17.4,0-29.1-11-29.1-27.1c0-15.3,11.9-27.1,26.7-27.1C217.5,536.1,230.9,546.5,228.9,568.2z M213.9,558.2
				c-1.2-6-5.5-8.8-11.2-8.8c-5.2,0-9.6,3.1-11.1,8.8H213.9z"/>
			<path class="st5" d="M271.3,569.4l14.3,8.6c-4.7,7.4-13.3,12.3-23.5,12.3c-16.1,0-27.7-11.8-27.7-27.1
				c0-15.4,11.6-27.1,27.7-27.1c10.3,0,18.9,4.8,23.5,12.3l-14.3,8.6c-1.9-3-5.2-4.9-9.3-4.9c-6.6,0-11,5.1-11,11.1s4.4,11,11,11
				C266.1,574.2,269.4,572.3,271.3,569.4z"/>
			<path class="st5" d="M341.6,568.2h-37.3c1.7,6,6.6,8.8,12.9,8.8c5.3,0,9-2.5,10.6-4.5l11.6,6.9c-4.2,6.4-12.1,10.9-22.2,10.9
				c-17.4,0-29.1-11-29.1-27.1c0-15.3,11.9-27.1,26.7-27.1C330.1,536.1,343.6,546.5,341.6,568.2z M326.6,558.2
				c-1.2-6-5.5-8.8-11.2-8.8c-5.2,0-9.6,3.1-11.1,8.8H326.6z"/>
			<path class="st5" d="M406,563.2c0,13.6-8.8,27.1-24.8,27.1c-7,0-11.6-2.7-14.6-6.3v24.7H350v-71.4h16.6v5.1
				c3-3.7,7.5-6.3,14.6-6.3C397.2,536.1,406,549.6,406,563.2z M389.3,563.2c0-6.4-4.2-11.1-11.1-11.1c-6.2,0-11,4.2-11,11.1
				c0,6.8,4.8,11,11,11C385.1,574.2,389.3,569.5,389.3,563.2z"/>
			<path class="st5" d="M448.1,569.4l14.3,8.6c-4.7,7.4-13.3,12.3-23.5,12.3c-16.1,0-27.7-11.8-27.7-27.1
				c0-15.4,11.6-27.1,27.7-27.1c10.3,0,18.9,4.8,23.5,12.3l-14.3,8.6c-1.9-3-5.2-4.9-9.3-4.9c-6.6,0-11,5.1-11,11.1s4.4,11,11,11
				C442.9,574.2,446.2,572.3,448.1,569.4z"/>
			<path class="st5" d="M468.6,522.8c0-4.8,3.9-8.7,8.7-8.7s8.7,3.9,8.7,8.7c0,4.8-3.9,8.8-8.7,8.8S468.6,527.6,468.6,522.8z
				 M469,537.3h16.5V589H469V537.3z"/>
			<path class="st5" d="M549.1,563.2c0,15.3-11.5,27.1-27.7,27.1c-16.1,0-27.7-11.8-27.7-27.1c0-15.4,11.6-27.1,27.7-27.1
				C537.6,536.1,549.1,547.8,549.1,563.2z M532.5,563.2c0-6-4.4-11.1-11.1-11.1c-6.6,0-11,5.1-11,11.1s4.4,11,11,11
				C528.1,574.2,532.5,569.2,532.5,563.2z M537,515.9l-9.9,14.3h-13.2l6.6-14.3H537z"/>
			<path class="st5" d="M606.9,556.7V589h-16.6v-27.8c0-5.9-3.7-8.9-8.3-8.9c-4.8,0-8.3,3.2-8.3,8.9V589h-16.5v-51.7h16.5v4.8
				c3-3.4,7.4-6,14.2-6C600.8,536.1,606.9,546.3,606.9,556.7z"/>
			<path class="st5" d="M109.6,608.8v71.4H93.1v-5c-3.1,3.7-7.6,6.3-14.6,6.3c-16.1,0-24.8-13.6-24.8-27.1s8.7-27.1,24.8-27.1
				c6.9,0,11.5,2.7,14.6,6.3v-24.8H109.6z M92.6,654.4c0-6.9-4.9-11.1-11.1-11.1c-6.8,0-11,4.7-11,11.1c0,6.3,4.2,11,11,11
				C87.7,665.4,92.6,661.2,92.6,654.4z"/>
			<path class="st5" d="M171.2,659.4h-37.3c1.7,6,6.6,8.8,12.9,8.8c5.3,0,9-2.5,10.6-4.5l11.6,6.9c-4.2,6.4-12.1,10.9-22.2,10.9
				c-17.4,0-29.1-11-29.1-27.1c0-15.3,11.9-27.1,26.7-27.1C159.8,627.3,173.2,637.7,171.2,659.4z M156.2,649.4
				c-1.2-6-5.5-8.8-11.2-8.8c-5.2,0-9.6,3.1-11.1,8.8H156.2z"/>
			<path class="st5" d="M259,608.8v71.4h-16.5v-5c-3.1,3.7-7.6,6.3-14.6,6.3c-16.1,0-24.8-13.6-24.8-27.1s8.7-27.1,24.8-27.1
				c6.9,0,11.5,2.7,14.6,6.3v-24.8H259z M242,654.4c0-6.9-4.9-11.1-11.1-11.1c-6.8,0-11,4.7-11,11.1c0,6.3,4.2,11,11,11
				C237.1,665.4,242,661.2,242,654.4z"/>
			<path class="st5" d="M320.6,659.4h-37.3c1.7,6,6.6,8.8,12.9,8.8c5.3,0,9-2.5,10.6-4.5l11.6,6.9c-4.2,6.4-12.1,10.9-22.2,10.9
				c-17.4,0-29.1-11-29.1-27.1c0-15.3,11.9-27.1,26.7-27.1C309.1,627.3,322.6,637.7,320.6,659.4z M305.6,649.4
				c-1.2-6-5.5-8.8-11.2-8.8c-5.2,0-9.6,3.1-11.1,8.8H305.6z"/>
			<path class="st5" d="M378.7,647.9v32.3H362v-27.8c0-5.9-3.7-8.9-8.3-8.9c-4.8,0-8.3,3.2-8.3,8.9v27.8H329v-51.7h16.5v4.8
				c3-3.4,7.4-6,14.2-6C372.5,627.3,378.7,637.5,378.7,647.9z"/>
			<path class="st5" d="M439.5,628.5v51.7h-16.6v-4.7c-2.9,3.4-7.3,6-14.1,6c-12.9,0-19-10.2-19-20.6v-32.4h16.5v27.9
				c0,5.9,3.8,8.9,8.3,8.9c4.9,0,8.3-3.2,8.3-8.9v-27.9H439.5z"/>
			<path class="st5" d="M500.4,647.9v32.3h-16.6v-27.8c0-5.9-3.7-8.9-8.3-8.9c-4.8,0-8.3,3.2-8.3,8.9v27.8h-16.5v-51.7h16.5v4.8
				c3-3.4,7.4-6,14.2-6C494.3,627.3,500.4,637.5,500.4,647.9z"/>
			<path class="st5" d="M545.5,660.6l14.3,8.6c-4.7,7.4-13.3,12.3-23.5,12.3c-16.1,0-27.7-11.8-27.7-27.1
				c0-15.4,11.6-27.1,27.7-27.1c10.3,0,18.9,4.8,23.5,12.3l-14.3,8.6c-1.9-3-5.2-4.9-9.3-4.9c-6.6,0-11,5.1-11,11.1s4.4,11,11,11
				C540.3,665.4,543.6,663.5,545.5,660.6z"/>
			<path class="st5" d="M566,614c0-4.8,3.9-8.7,8.7-8.7s8.7,3.9,8.7,8.7c0,4.8-3.9,8.8-8.7,8.8S566,618.8,566,614z M566.4,628.5H583
				v51.7h-16.5V628.5z"/>
			<path class="st5" d="M639.4,648.1v32.1h-16.5v-4.8c-2.8,4-8.9,6.1-14.2,6.1c-6.9,0-17.6-2.7-17.6-15.2
				c0-17.1,22.2-17.1,25.7-17.1c2.3,0,5,0,6.1,0V649c0-4.9-2.4-8.4-8.5-8.4c-4.2,0-7.7,1.6-9.8,3.3l-10.8-7.3
				c5.6-5.9,13.4-9.3,23.2-9.3C633.6,627.3,639.4,635.8,639.4,648.1z M622.9,657.5c-0.4,0-0.9,0-1.3,0c-8.3,0-13.8,1.5-13.8,6.7
				c0,3.8,3.1,5.2,6.6,5.2c3.6,0,7-1.7,8.5-3.7V657.5z"/>
			<path class="st5" d="M692.2,664.2c0,10.9-8.1,17.3-23.1,17.3c-10.4,0-20.4-3.4-22.5-12.4l15-4.7c0.6,2,2.7,4.2,7.3,4.2
				c3.5,0,6.2-1,6.2-3.7c0-3.6-5.4-3.4-11.5-4.7c-9.9-2.2-15.3-5.8-15.3-15.9c0-10.8,9.3-17,22.2-17c8.9,0,17.6,4.4,19.9,13.2
				l-13.9,3.4c-0.6-2.4-2.9-3.8-5.9-3.8c-3.3,0-6.3,0.9-6.3,3.8c0,3.4,5.6,3.6,9.7,4.4C687,650.9,692.2,654.7,692.2,664.2z"/>
		</g>
	</g>
</g>
</svg>
