<?xml version="1.0" encoding="utf-8"?>
<!-- Generator: Adobe Illustrator 26.5.2, SVG Export Plug-In . SVG Version: 6.00 Build 0)  -->
<svg version="1.1" id="Capa_1" xmlns="http://www.w3.org/2000/svg" xmlns:xlink="http://www.w3.org/1999/xlink" x="0px" y="0px"
	 viewBox="0 0 457.5 711" style="enable-background:new 0 0 457.5 711;" xml:space="preserve">
<style type="text/css">
	.st0{fill:#7D858B;}
	.st1{fill:#A9A5CB;}
	.st2{fill:#8079B2;}
	.st3{fill:#D5D3E6;}
	.st4{fill:#FAFBFC;}
</style>
<g>
	<g>
		<g>
			<path class="st0" d="M61.9,482.5c0,20-12.9,32.7-34.7,32.7H4.3v-65.4h22.9C49,449.8,61.9,462.6,61.9,482.5z M45.9,482.5
				c0-11.6-8-17.6-18.8-17.6h-6.8v35.2h6.8C37.9,500.2,45.9,494.1,45.9,482.5z"/>
			<path class="st0" d="M116.4,496.2H82.3c1.6,5.5,6.1,8,11.9,8c4.9,0,8.2-2.3,9.7-4.1l10.6,6.4c-3.8,5.9-11.1,10-20.4,10
				c-16,0-26.6-10.1-26.6-24.8c0-14,10.9-24.8,24.5-24.8C106,466.8,118.3,476.3,116.4,496.2z M102.7,487c-1.1-5.5-5-8-10.3-8
				c-4.8,0-8.8,2.8-10.2,8H102.7z"/>
			<path class="st0" d="M169.7,485.6v29.6h-15.2v-25.5c0-5.4-3.4-8.1-7.6-8.1c-4.4,0-7.6,2.9-7.6,8.1v25.5h-15.1v-47.4h15.1v4.4
				c2.7-3.1,6.8-5.5,13-5.5C164.1,466.8,169.7,476.1,169.7,485.6z"/>
			<path class="st0" d="M225.4,467.9v47.4h-15.2v-4.3c-2.6,3.1-6.7,5.5-12.9,5.5c-11.9,0-17.4-9.3-17.4-18.9v-29.7h15.1v25.6
				c0,5.4,3.5,8.1,7.6,8.1c4.5,0,7.6-2.9,7.6-8.1v-25.6H225.4z"/>
			<path class="st0" d="M281.2,485.6v29.6H266v-25.5c0-5.4-3.4-8.1-7.6-8.1c-4.4,0-7.6,2.9-7.6,8.1v25.5h-15.1v-47.4h15.1v4.4
				c2.7-3.1,6.8-5.5,13-5.5C275.6,466.8,281.2,476.1,281.2,485.6z"/>
			<path class="st0" d="M322.6,497.3l13.1,7.8c-4.3,6.8-12.1,11.3-21.6,11.3c-14.8,0-25.4-10.8-25.4-24.8
				c0-14.1,10.6-24.8,25.4-24.8c9.4,0,17.3,4.4,21.6,11.3l-13.1,7.8c-1.8-2.7-4.8-4.5-8.5-4.5c-6.1,0-10.1,4.7-10.1,10.2
				s4,10.1,10.1,10.1C317.8,501.7,320.8,499.9,322.6,497.3z"/>
			<path class="st0" d="M341.3,454.6c0-4.4,3.5-7.9,7.9-7.9s7.9,3.5,7.9,7.9s-3.5,8-7.9,8S341.3,459,341.3,454.6z M341.7,467.9h15.1
				v47.4h-15.1V467.9z"/>
			<path class="st0" d="M408.6,485.8v29.4h-15.1v-4.4c-2.5,3.6-8.1,5.6-13,5.6c-6.4,0-16.2-2.4-16.2-13.9
				c0-15.7,20.4-15.7,23.5-15.7c2.1,0,4.6,0,5.6,0v-0.2c0-4.5-2.2-7.7-7.8-7.7c-3.8,0-7.1,1.5-9,3l-9.9-6.7
				c5.1-5.4,12.2-8.5,21.3-8.5C403.3,466.8,408.6,474.5,408.6,485.8z M393.5,494.4c-0.4,0-0.8,0-1.2,0c-7.6,0-12.6,1.4-12.6,6.2
				c0,3.5,2.8,4.8,6.1,4.8c3.3,0,6.4-1.6,7.8-3.4V494.4z"/>
			<path class="st0" d="M457,500.6c0,10-7.4,15.9-21.2,15.9c-9.5,0-18.7-3.1-20.6-11.4l13.7-4.3c0.6,1.9,2.4,3.8,6.7,3.8
				c3.2,0,5.7-0.9,5.7-3.4c0-3.3-5-3.1-10.6-4.3c-9.1-2.1-14-5.3-14-14.6c0-9.9,8.5-15.6,20.4-15.6c8.1,0,16.2,4,18.2,12l-12.7,3.1
				c-0.6-2.2-2.6-3.5-5.4-3.5c-3,0-5.8,0.8-5.8,3.5c0,3.1,5.1,3.3,8.9,4C452.2,488.4,457,491.9,457,500.6z"/>
			<path class="st0" d="M74.8,584.1c0,10-7.4,15.9-21.2,15.9c-9.5,0-18.7-3.1-20.6-11.4l13.7-4.3c0.6,1.9,2.4,3.8,6.7,3.8
				c3.2,0,5.7-0.9,5.7-3.4c0-3.3-5-3.1-10.6-4.3c-9.1-2.1-14-5.3-14-14.6c0-9.9,8.5-15.6,20.4-15.6c8.1,0,16.2,4,18.2,12l-12.7,3.1
				c-0.6-2.2-2.6-3.5-5.4-3.5c-3,0-5.8,0.8-5.8,3.5c0,3.1,5.1,3.3,8.9,4C70.1,572,74.8,575.4,74.8,584.1z"/>
			<path class="st0" d="M128,579.7H93.8c1.6,5.5,6.1,8,11.9,8c4.9,0,8.2-2.3,9.7-4.1L126,590c-3.8,5.9-11.1,10-20.4,10
				c-16,0-26.6-10.1-26.6-24.8c0-14,10.9-24.8,24.5-24.8C117.5,550.3,129.8,559.9,128,579.7z M114.2,570.6c-1.1-5.5-5-8-10.3-8
				c-4.8,0-8.8,2.8-10.2,8H114.2z"/>
			<path class="st0" d="M184.1,551.4v43.2c0,13.4-9.7,23-26.5,23c-10.3,0-19.3-4-23-9.9l11.3-6.7c1.5,2.2,5.6,4.4,11,4.4
				c9.2,0,12-5,12-12.4v-2.1c-2.6,3.4-6.7,5.8-13.3,5.8c-14.5,0-22.8-10.7-22.8-23.2c0-12.4,8.2-23.2,22.8-23.2
				c6.4,0,10.6,2.6,13.3,6.3v-5.1H184.1z M168.4,573.5c0-6.3-4.4-10.1-10.1-10.1c-6.3,0-10.1,4.3-10.1,10.1
				c0,5.8,3.8,10.1,10.1,10.1C164,583.6,168.4,579.7,168.4,573.5z"/>
			<path class="st0" d="M239.9,551.4v47.4h-15.2v-4.3c-2.6,3.1-6.7,5.5-12.9,5.5c-11.9,0-17.4-9.3-17.4-18.9v-29.7h15.1V577
				c0,5.4,3.5,8.1,7.6,8.1c4.5,0,7.6-2.9,7.6-8.1v-25.6H239.9z M231.4,531.8l-9.1,13.1h-12l6.1-13.1H231.4z"/>
			<path class="st0" d="M295.6,569.2v29.6h-15.2v-25.5c0-5.4-3.4-8.1-7.6-8.1c-4.4,0-7.6,2.9-7.6,8.1v25.5h-15.1v-47.4h15.1v4.4
				c2.7-3.1,6.8-5.5,13-5.5C290,550.3,295.6,559.7,295.6,569.2z"/>
			<path class="st0" d="M368.3,584.1c0,10-7.4,15.9-21.2,15.9c-9.5,0-18.7-3.1-20.6-11.4l13.7-4.3c0.6,1.9,2.4,3.8,6.7,3.8
				c3.2,0,5.7-0.9,5.7-3.4c0-3.3-5-3.1-10.6-4.3c-9.1-2.1-14-5.3-14-14.6c0-9.9,8.5-15.6,20.4-15.6c8.1,0,16.2,4,18.2,12l-12.7,3.1
				c-0.6-2.2-2.6-3.5-5.4-3.5c-3,0-5.8,0.8-5.8,3.5c0,3.1,5.1,3.3,8.9,4C363.5,572,368.3,575.4,368.3,584.1z"/>
			<path class="st0" d="M420.8,551.4v47.4h-15.2v-4.3c-2.6,3.1-6.7,5.5-12.9,5.5c-11.9,0-17.4-9.3-17.4-18.9v-29.7h15.1V577
				c0,5.4,3.5,8.1,7.6,8.1c4.5,0,7.6-2.9,7.6-8.1v-25.6H420.8z"/>
			<path class="st0" d="M117.8,663.3H83.6c1.6,5.5,6.1,8,11.9,8c4.9,0,8.2-2.3,9.7-4.1l10.6,6.4c-3.8,5.9-11.1,10-20.4,10
				c-16,0-26.6-10.1-26.6-24.8c0-14,10.9-24.8,24.5-24.8C107.3,633.9,119.7,643.4,117.8,663.3z M104.1,654.2c-1.1-5.5-5-8-10.3-8
				c-4.8,0-8.8,2.8-10.2,8H104.1z"/>
			<path class="st0" d="M163.6,667.7c0,10-7.4,15.9-21.2,15.9c-9.5,0-18.7-3.1-20.6-11.4l13.7-4.3c0.6,1.9,2.4,3.8,6.7,3.8
				c3.2,0,5.7-0.9,5.7-3.4c0-3.3-5-3.1-10.6-4.3c-9.1-2.1-14-5.3-14-14.6c0-9.9,8.5-15.6,20.4-15.6c8.1,0,16.2,4,18.2,12l-12.7,3.1
				c-0.6-2.2-2.6-3.5-5.4-3.5c-3,0-5.8,0.8-5.8,3.5c0,3.1,5.1,3.3,8.9,4C158.9,655.6,163.6,659,163.6,667.7z"/>
			<path class="st0" d="M187.9,647.5v14.9c0,4.9,1.8,7.5,6.4,7.5c1.2,0,2.1-0.2,2.9-0.3v12.7c-1.6,0.6-3.5,0.8-6.5,0.8
				c-14.6,0-17.9-9.9-17.9-19.1v-16.5h-5.9V635h5.9v-9.9h15.1v9.9h9.3v12.5H187.9z"/>
			<path class="st0" d="M248.6,652.9v29.4h-15.1V678c-2.5,3.6-8.1,5.6-13,5.6c-6.4,0-16.2-2.4-16.2-13.9c0-15.7,20.4-15.7,23.5-15.7
				c2.1,0,4.6,0,5.6,0v-0.2c0-4.5-2.2-7.7-7.8-7.7c-3.8,0-7.1,1.5-9,3l-9.9-6.7c5.1-5.4,12.2-8.5,21.3-8.5
				C243.2,633.9,248.6,641.6,248.6,652.9z M233.4,661.5c-0.4,0-0.8,0-1.2,0c-7.6,0-12.6,1.4-12.6,6.2c0,3.5,2.8,4.8,6.1,4.8
				c3.3,0,6.4-1.6,7.8-3.4V661.5z"/>
			<path class="st0" d="M276.1,647.5v14.9c0,4.9,1.8,7.5,6.4,7.5c1.2,0,2.1-0.2,2.9-0.3v12.7c-1.6,0.6-3.5,0.8-6.5,0.8
				c-14.6,0-17.9-9.9-17.9-19.1v-16.5h-5.9V635h5.9v-9.9h15.1v9.9h9.3v12.5H276.1z"/>
			<path class="st0" d="M340.7,635v47.4h-15.2v-4.3c-2.6,3.1-6.7,5.5-12.9,5.5c-11.9,0-17.4-9.3-17.4-18.9V635h15.1v25.6
				c0,5.4,3.5,8.1,7.6,8.1c4.5,0,7.6-2.9,7.6-8.1V635H340.7z"/>
			<path class="st0" d="M389.1,667.7c0,10-7.4,15.9-21.2,15.9c-9.5,0-18.7-3.1-20.6-11.4l13.7-4.3c0.6,1.9,2.4,3.8,6.7,3.8
				c3.2,0,5.7-0.9,5.7-3.4c0-3.3-5-3.1-10.6-4.3c-9.1-2.1-14-5.3-14-14.6c0-9.9,8.5-15.6,20.4-15.6c8.1,0,16.2,4,18.2,12l-12.7,3.1
				c-0.6-2.2-2.6-3.5-5.4-3.5c-3,0-5.8,0.8-5.8,3.5c0,3.1,5.1,3.3,8.9,4C384.4,655.6,389.1,659,389.1,667.7z"/>
		</g>
	</g>
	<g>
		<path class="st1" d="M339.7,65.1c4.3,0,8.6-0.1,12.9,0c7.5,0.1,12.7,5.2,12.7,12.8c0,19.7,0,39.5,0,59.2
			c0,75.5-0.1,148.9,0.1,224.4c0,7.3-2.1,12.6-8.9,15.7c-5.9,0-11.8,0-17.7,0c7.5-2.6,9.7-8.2,9.6-15.8c-0.1-93.8-0.1-185.9,0-279.7
			C348.6,74.1,346.7,68.5,339.7,65.1z"/>
		<path class="st1" d="M323.5,377.1c6.8-2.8,9-7.9,8.9-15.1c-0.1-93.5-0.2-187,0-280.5c0-7.5-1.7-13.2-8.8-16.4
			c6.1,0.1,12.2-0.6,18.3,0.6c4.3,3,7.4,6.6,7.4,12.2c0,96.2,0,190.7,0,286.9c0,5-2.2,8.7-6.7,10.9c-0.7,0.4-1.4,0.9-2.1,1.4
			C334.7,377.1,329.1,377.1,323.5,377.1z"/>
		<path class="st2" d="M340.4,377.1c0.7-0.5,1.4-1,2.1-1.4c4.5-2.2,6.7-5.9,6.7-10.9c0-96.2,0-190.7,0-286.9c0-5.7-3.1-9.3-7.4-12.2
			c3.2-1.4,6.5-0.4,9.7-0.6c6.9,3.4,8.8,9.1,8.8,16.5c-0.2,93.8-0.2,185.9,0,279.7c0,7.6-2.1,13.1-9.6,15.8
			C347.3,377.1,343.8,377.1,340.4,377.1z"/>
		<path class="st2" d="M331.3,64.9c0.7,0.1,1.4,0.2,2.1,0.2c7.2,3.2,8.8,8.9,8.8,16.4c-0.2,93.5-0.2,187,0,280.5
			c0,7.2-2.2,12.3-8.9,15.1c-71.4,0-142.8,0-214.2,0c-6.8-2.8-9.4-7.9-8.9-15.1c0.3-4.5,0.1-9.1,0.1-13.6c60.3,0,120.6,0,180.9,0
			c4.5,0,9,0.3,13.5-0.7c3.9,1.4,8,0.5,11.9,0.6c8.3,0.3,14.6-3.8,14.6-14.5c-0.2-87.9-0.1-175.9-0.1-263.8
			C331.1,68.3,331.3,66.6,331.3,64.9z"/>
		<path class="st1" d="M304.7,347.7c5.6-2.1,8.3-6.2,8.6-12c0.1-1.2,0-2.5,0-3.7c0-92.9-0.1-185.9,0.1-278.8
			c0-7.5-1.7-13.5-8.8-16.9c4.3,0,8.5,0,12.8,0c9.4,0,13.8,4.4,13.8,13.9c0,4.9,0.1,9.8,0.1,14.6c-0.1,1.7-0.2,3.4-0.2,5.1
			c0,87.9-0.1,175.9,0.1,263.8c0,10.7-6.3,14.8-14.6,14.5C312.7,348.1,308.6,349.1,304.7,347.7z"/>
		<path class="st2" d="M314.5,347.7c-4.5,0.9-9,0.7-13.5,0.7c-60.3,0-120.6,0-180.9,0c-4.9,0-9.8,0-14.7,0
			c-7.8,0-13.2-5.3-13.2-13.1c0-25.1,0-50.3,0-75.4c0-69.4,0.1-138.9-0.1-208.3c0-10.1,5.1-15.8,15.5-15.3c6,0.3,12,0.2,18,0.2
			c0,18.3-0.1,36.5-0.1,54.8c0,16.8,0,33.6,0,50.4c0,8.4,4.5,13.6,12.1,13.7c24.9,0.2,49.8,0.2,74.7,0.1c6.7,0,11.7-5.2,11.7-11.7
			c0-35.8,0-71.6-0.1-107.4c30.2,0,60.4,0,90.6,0c7.1,3.5,8.8,9.4,8.8,16.9c-0.1,92.9-0.1,185.9-0.1,278.8c0,1.2,0.1,2.5,0,3.7
			C322.8,341.5,320.1,345.6,314.5,347.7z M239.5,262.2c-13,0-26,0-39,0c-4.9,0-7.5,2.6-7.6,7.4c0,7.8,0,15.7,0,23.6
			c0,5.2,2.2,7.5,7.3,7.5c32.2,0.1,64.5-0.3,96.7,0.6c6.4,0.2,9.5-3,9.5-9.4c0-6.6,0-13.2,0-19.9c0-7.6-2.8-10.4-10.4-10.5
			c-6.7-0.1-13.5,0.4-20.2,0.6C263.8,262.4,251.6,262.2,239.5,262.2z M215.8,188c-27.1,0-54.2,0-81.3,0c-5.8,0-9,2.1-8.9,5.9
			c0.1,3.7,3.1,5.7,8.7,5.7c54.3,0,108.6,0,162.9,0c0.9,0,1.7,0,2.6,0c3.5-0.2,6.5-2.9,6.4-5.9c-0.1-2.8-2.9-5.4-6.2-5.7
			c-1-0.1-2,0-2.9,0C269.9,188,242.9,188,215.8,188z M215.8,226.9c27.2,0,54.4,0,81.7,0c1.3,0,2.8,0.1,4-0.2
			c2.9-0.8,4.9-2.8,4.6-5.8c-0.2-2.9-2-4.9-5.3-5c-2.1-0.1-4.1-0.5-6.2-0.5c-52.5,0-105,0-157.4,0c-2.3,0-4.6,0.2-6.9,0.5
			c-2.7,0.3-4.1,2-4.2,4.7c-0.2,4.2,2.1,6.3,7.1,6.3C160.6,226.9,188.2,226.9,215.8,226.9z M162.7,281.5c0-3.5,0-7.1,0-10.6
			c0-5.9-3-9.1-8.9-9.1c-6.7,0-13.5,0.1-20.2,0.3c-5.3,0.2-7.8,2.7-7.9,8c-0.2,7.6-0.2,15.2,0,22.8c0.1,5.4,2.8,8.1,8.2,8.2
			c6.9,0.2,13.7,0.2,20.6,0.1c5,0,8.1-3.2,8.2-8.3C162.7,289.1,162.7,285.3,162.7,281.5z M279.8,75.4c-6.5,0-13,0-19.5,0
			c-4.3,0-6.8,2.1-6.9,5.5c-0.1,3.2,2.5,5.9,6.6,5.9c13.2,0.1,26.5,0.1,39.7,0c3.7,0,6.5-2.8,6.5-5.7c0-3.2-2.9-5.6-6.9-5.7
			C292.8,75.4,286.3,75.4,279.8,75.4z"/>
		<path class="st3" d="M223.8,36.3c0,35.8,0.1,71.6,0.1,107.4c0,6.6-5,11.7-11.7,11.7c-24.9,0.1-49.8,0.1-74.7-0.1
			c-7.6-0.1-12-5.3-12.1-13.7c-0.1-16.8,0-33.6,0-50.4c0-18.3,0.1-36.5,0.1-54.8c8.9-0.1,17.8-0.1,26.7-0.2c0.1,1.3,0.2,2.7,0.2,4
			c0,16.3-0.1,32.6,0,48.9c0.1,11.2,8.1,19.8,19.7,21.3c10.6,1.4,20.9-5.7,23.8-16c1.3-4.7,0.5-9.5,0.7-14.3
			c0.1-3.6-2.2-5.9-5.6-5.8c-3.4,0-5.4,2.2-5.4,6c-0.1,2.8,0.1,5.6-0.1,8.5c-0.3,6.2-4.9,10.5-11,10.5c-6.2,0-10.9-4.3-10.9-10.5
			c-0.1-17.5,0-35,0.1-52.6c7.3,0,14.5,0,21.8,0c0.1,4.3,0.1,8.6,0.2,12.8c0.1,3.3-1.2,5.2-4.8,5.6c-3.1,0.3-4.9,2.8-4.8,5.9
			c0.2,2.9,2.4,5,5.6,5.1c7.8,0.3,14.9-6.4,15-14.4c0.1-5,0.1-10,0.2-15C205.8,36.3,214.8,36.3,223.8,36.3z"/>
		<path class="st2" d="M196.8,36.3c0,5,0,10-0.2,15c-0.2,8-7.2,14.7-15,14.4c-3.2-0.1-5.4-2.2-5.6-5.1c-0.2-3,1.6-5.5,4.8-5.9
			c3.6-0.4,4.9-2.3,4.8-5.6c-0.1-4.3-0.1-8.6-0.2-12.8c0-4.9,0.3-9.8,0.1-14.7c-0.3-6.2-5-10.4-11.1-10.3
			c-6.2,0.1-10.6,4.4-10.8,10.6c-0.1,4.8,0,9.5,0.1,14.3c0,17.5-0.1,35-0.1,52.6c0,6.1,4.7,10.5,10.9,10.5c6.1,0,10.7-4.3,11-10.5
			c0.2-2.8,0-5.6,0.1-8.5c0.1-3.8,2.1-6,5.4-6c3.3,0,5.7,2.2,5.6,5.8c-0.1,4.8,0.6,9.5-0.7,14.3c-2.8,10.3-13.2,17.4-23.8,16
			c-11.6-1.5-19.7-10.1-19.7-21.3c-0.1-16.3,0-32.6,0-48.9c0-1.3-0.1-2.7-0.2-4c0-4.9,0.1-9.8,0.2-14.7c0.2-12.4,9.7-21.4,22.3-21.4
			c12.3,0.1,21.7,9.2,22,21.4C196.8,26.5,196.8,31.4,196.8,36.3z"/>
		<path class="st4" d="M239.5,262.2c12.1,0,24.3,0.2,36.4-0.1c6.7-0.2,13.4-0.6,20.2-0.6c7.6,0.1,10.4,2.9,10.4,10.5
			c0,6.6,0,13.2,0,19.9c0,6.4-3.1,9.6-9.5,9.4c-32.2-1-64.5-0.5-96.7-0.6c-5.1,0-7.3-2.3-7.3-7.5c0-7.8,0-15.7,0-23.6
			c0-4.8,2.6-7.4,7.6-7.4C213.5,262.1,226.5,262.2,239.5,262.2z"/>
		<path class="st4" d="M215.8,188c27.1,0,54.2,0,81.3,0c1,0,2-0.1,2.9,0c3.3,0.2,6.2,2.8,6.2,5.7c0.1,3-2.9,5.7-6.4,5.9
			c-0.9,0.1-1.7,0-2.6,0c-54.3,0-108.6,0-162.9,0c-5.6,0-8.6-2-8.7-5.7c-0.1-3.8,3.1-5.9,8.9-5.9C161.6,188,188.7,188,215.8,188z"/>
		<path class="st4" d="M215.8,226.9c-27.6,0-55.2,0-82.8,0c-5,0-7.3-2.1-7.1-6.3c0.2-2.7,1.5-4.4,4.2-4.7c2.3-0.3,4.6-0.5,6.9-0.5
			c52.5,0,105,0,157.4,0c2.1,0,4.1,0.4,6.2,0.5c3.3,0.1,5.1,2.1,5.3,5c0.3,3-1.8,5-4.6,5.8c-1.3,0.4-2.7,0.2-4,0.2
			C270.2,226.9,243,226.9,215.8,226.9z"/>
		<path class="st4" d="M162.7,281.5c0,3.8,0,7.6,0,11.4c-0.1,5-3.2,8.2-8.2,8.3c-6.9,0-13.7,0-20.6-0.1c-5.4-0.1-8.1-2.8-8.2-8.2
			c-0.2-7.6-0.2-15.2,0-22.8c0.1-5.3,2.7-7.8,7.9-8c6.7-0.3,13.5-0.4,20.2-0.3c5.9,0,8.9,3.2,8.9,9.1
			C162.7,274.4,162.7,277.9,162.7,281.5z"/>
		<path class="st4" d="M279.8,75.4c6.5,0,13,0,19.5,0c3.9,0,6.8,2.5,6.9,5.7c0,3-2.7,5.7-6.5,5.7c-13.2,0.1-26.5,0.1-39.7,0
			c-4,0-6.7-2.7-6.6-5.9c0.1-3.4,2.7-5.5,6.9-5.5C266.9,75.4,273.3,75.4,279.8,75.4z"/>
	</g>
</g>
</svg>
