<?xml version="1.0" encoding="utf-8"?>
<!-- Generator: Adobe Illustrator 27.3.1, SVG Export Plug-In . SVG Version: 6.00 Build 0)  -->
<svg version="1.1" id="Capa_1" xmlns="http://www.w3.org/2000/svg" xmlns:xlink="http://www.w3.org/1999/xlink" x="0px" y="0px"
	 viewBox="0 0 501.5 711" style="enable-background:new 0 0 501.5 711;" xml:space="preserve">
<style type="text/css">
	.st0{fill:#8079B2;}
	.st1{enable-background:new    ;}
	.st2{fill:#FEFEFE;}
	.st3{fill:#80625D;}
	.st4{fill:#705550;}
	.st5{fill:#F8E5B8;}
	.st6{fill:#F1DDB1;}
	.st7{fill:#2E326B;}
	.st8{fill:#FFFFFF;}
	.st9{fill:#B1D7F1;}
	.st10{fill:#8EC7E5;}
</style>
<g>
	<path class="st0" d="M499.8,392.2v279.2c0,20.2-20.2,36.6-45,36.6h-408c-24.9,0-45-16.4-45-36.6V396c0-116.9,119.5-212.5,263.1-206
		C395.8,195.9,499.8,284.2,499.8,392.2"/>
	<g>
		<g class="st1">
			<path class="st2" d="M121.1,428.8v46.9h-5.8l-24.3-34.6v34.6h-6.7v-46.9h5.8l24.3,34.6v-34.6H121.1z"/>
			<path class="st2" d="M159.7,441.7v34h-6.1V471c-2,3-5.4,5.6-10.5,5.6c-7.6,0-13.1-6.4-13.1-13.5v-21.3h6.1v19.5
				c0,4.8,2,9.5,8.4,9.5c6.4,0,9-5.5,9-9.5v-19.5H159.7z M153.1,427l-6.5,9.4h-4.5l4.4-9.4H153.1z"/>
			<path class="st2" d="M216.2,453.3v22.4h-6.1v-20.6c0-4.8-2.3-8.4-7.3-8.4c-4.8,0-7.4,4-7.4,8.4v20.6h-6.1v-20.6
				c0-4.8-2.3-8.4-7.2-8.4c-4.8,0-7.5,4-7.5,8.4v20.6h-6.1v-34h6.1v4c1.9-2.7,4.8-4.8,9.1-4.8c4.1,0,7.7,2.1,9.8,5.5
				c2.1-3,5.8-5.5,10.9-5.5C210.7,440.9,216.2,446.1,216.2,453.3z"/>
			<path class="st2" d="M256.4,461.4h-27c0.9,5.6,5.1,9.4,11.7,9.4c3.7,0,7-1.4,8.9-3.8l5,3.2c-3,4.1-8,6.4-13.9,6.4
				c-11.3,0-18.2-8-18.2-17.8s7.2-17.8,17.2-17.8C249.4,440.9,258,448.7,256.4,461.4z M250.3,456.1c-0.8-5.8-4.4-9.4-10.1-9.4
				c-5.8,0-9.8,3.8-10.7,9.4H250.3z"/>
			<path class="st2" d="M280.7,440.9v6.9c-10-1.2-11.3,6.4-11.3,12.7v15.2h-6.1v-34h6.1v5.9C271.7,443.1,276.4,440.9,280.7,440.9z"
				/>
			<path class="st2" d="M319.7,458.8c0,9.8-7.6,17.8-17.8,17.8c-10.3,0-17.8-8-17.8-17.8s7.6-17.8,17.8-17.8
				C312.2,440.9,319.7,449,319.7,458.8z M313.5,458.8c0-7-4.9-12.1-11.6-12.1s-11.5,5.1-11.5,12.1c0,6.9,4.8,12,11.5,12
				S313.5,465.7,313.5,458.8z"/>
			<path class="st2" d="M377.9,428.8v46.9h-6.1v-4.8c-2.5,3.2-6.4,5.6-12.3,5.6c-10.6,0-17-8.9-17-17.8s6.4-17.8,17-17.8
				c5.9,0,9.8,2.4,12.3,5.6v-17.7H377.9z M371.8,458.8c0-6.7-4.3-12.1-11.7-12.1c-7,0-11.3,5.2-11.3,12.1s4.2,12,11.3,12
				C367.5,470.7,371.8,465.5,371.8,458.8z"/>
			<path class="st2" d="M418.1,461.4h-27c0.9,5.6,5.1,9.4,11.7,9.4c3.7,0,7-1.4,8.9-3.8l5,3.2c-3,4.1-8,6.4-13.9,6.4
				c-11.3,0-18.2-8-18.2-17.8s7.2-17.8,17.2-17.8C411,440.9,419.7,448.7,418.1,461.4z M411.9,456.1c-0.8-5.8-4.4-9.4-10.1-9.4
				c-5.8,0-9.8,3.8-10.7,9.4H411.9z"/>
		</g>
		<g class="st1">
			<path class="st2" d="M96.6,526.2h-27c0.9,5.6,5.1,9.4,11.7,9.4c3.7,0,7-1.4,8.9-3.8l5,3.2c-3,4.1-8,6.4-13.9,6.4
				c-11.3,0-18.2-8-18.2-17.8s7.2-17.8,17.2-17.8C89.6,505.7,98.2,513.5,96.6,526.2z M90.4,520.9c-0.8-5.8-4.4-9.4-10.1-9.4
				c-5.8,0-9.8,3.8-10.7,9.4H90.4z"/>
			<path class="st2" d="M123.2,540.5l-8.3-12.3l-8.3,12.3h-7.4L111,523l-11.3-16.5h7.5l7.6,12l7.8-12h7.5l-11.4,16.5l11.9,17.4
				H123.2z"/>
			<path class="st2" d="M171.7,523.6c0,8.9-6.3,17.8-16.9,17.8c-5.9,0-9.8-2.4-12.4-5.6v17.7h-6.1v-46.9h6.1v4.8
				c2.5-3.1,6.5-5.6,12.4-5.6C165.4,505.7,171.7,514.6,171.7,523.6z M165.5,523.6c0-6.8-4.3-12.1-11.3-12.1
				c-7.5,0-11.8,5.4-11.8,12.1s4.3,12,11.8,12C161.2,535.5,165.5,530.4,165.5,523.6z"/>
			<path class="st2" d="M209.9,526.2h-27c0.9,5.6,5.1,9.4,11.7,9.4c3.7,0,7-1.4,8.9-3.8l5,3.2c-3,4.1-8,6.4-13.9,6.4
				c-11.3,0-18.2-8-18.2-17.8s7.2-17.8,17.2-17.8C202.9,505.7,211.5,513.5,209.9,526.2z M203.7,520.9c-0.8-5.8-4.4-9.4-10.1-9.4
				c-5.8,0-9.8,3.8-10.7,9.4H203.7z"/>
			<path class="st2" d="M250.2,493.6v46.9h-6.1v-4.8c-2.5,3.2-6.4,5.6-12.3,5.6c-10.6,0-17-8.9-17-17.8s6.4-17.8,17-17.8
				c5.9,0,9.8,2.4,12.3,5.6v-17.7H250.2z M244.1,523.6c0-6.7-4.3-12.1-11.7-12.1c-7,0-11.3,5.2-11.3,12.1s4.2,12,11.3,12
				C239.8,535.5,244.1,530.3,244.1,523.6z"/>
			<path class="st2" d="M258.5,497c0-1.9,1.5-3.5,3.5-3.5c1.9,0,3.5,1.6,3.5,3.5c0,1.9-1.5,3.5-3.5,3.5
				C260,500.5,258.5,499,258.5,497z M258.9,506.5h6.2v34h-6.2V506.5z"/>
			<path class="st2" d="M305.2,526.2h-27c0.9,5.6,5.1,9.4,11.7,9.4c3.7,0,7-1.4,8.9-3.8l5,3.2c-3,4.1-8,6.4-13.9,6.4
				c-11.3,0-18.2-8-18.2-17.8s7.2-17.8,17.2-17.8C298.2,505.7,306.8,513.5,305.2,526.2z M299.1,520.9c-0.8-5.8-4.4-9.4-10.1-9.4
				c-5.8,0-9.8,3.8-10.7,9.4H299.1z"/>
			<path class="st2" d="M341.7,519.3v21.2h-6.1V521c0-4.8-2-9.5-8.4-9.5c-6.4,0-9,5.6-9,9.5v19.5h-6.1v-34h6.1v4.8
				c2-3,5.4-5.6,10.5-5.6C336.4,505.7,341.7,512.1,341.7,519.3z"/>
			<path class="st2" d="M358.8,512.4v14.9c0,4.8,0.1,8,5.4,8c1,0,1.7-0.1,2.5-0.1v5.4c-0.9,0.2-1.9,0.3-3.3,0.3
				c-7.4,0-10.7-4-10.7-11.4v-17.1h-5.3v-5.8h5.3v-7.1h6.1v7.1h7.8v5.8H358.8z"/>
			<path class="st2" d="M405.2,526.2h-27c0.9,5.6,5.1,9.4,11.7,9.4c3.7,0,7-1.4,8.9-3.8l5,3.2c-3,4.1-8,6.4-13.9,6.4
				c-11.3,0-18.2-8-18.2-17.8s7.2-17.8,17.2-17.8C398.1,505.7,406.8,513.5,405.2,526.2z M399,520.9c-0.8-5.8-4.4-9.4-10.1-9.4
				c-5.8,0-9.8,3.8-10.7,9.4H399z"/>
			<path class="st2" d="M436.1,530.3c0,6-4.3,11.1-13.3,11.1c-6.7,0-12.3-2.7-13.7-7.8l6-2c0.5,1.7,2.3,4.2,7.8,4.2
				c4.4,0,6.9-1.8,6.9-4.8c0-4-5.7-4-10.4-5c-6.4-1.4-9.1-4.5-9.1-9.5c0-6.2,5.2-10.7,12.5-10.7c5.5,0,10.4,2.8,11.6,7.8l-5.7,1.5
				c-0.6-1.9-2.6-3.9-6.4-3.9c-3.3,0-5.8,1.9-5.8,4.7c0,3.8,4.7,4.1,8.6,4.9C433.3,522.5,436.1,525.2,436.1,530.3z"/>
		</g>
		<g class="st1">
			<path class="st2" d="M91.4,591h-27c0.9,5.6,5.1,9.4,11.7,9.4c3.7,0,7-1.4,8.9-3.8l5,3.2c-3,4.1-8,6.4-13.9,6.4
				c-11.3,0-18.2-8-18.2-17.8s7.2-17.8,17.2-17.8C84.4,570.5,93,578.3,91.4,591z M85.2,585.7c-0.8-5.8-4.4-9.4-10.1-9.4
				c-5.8,0-9.8,3.8-10.7,9.4H85.2z"/>
			<path class="st2" d="M127.9,584.1v21.2h-6.1v-19.5c0-4.8-2-9.5-8.4-9.5c-6.4,0-9,5.6-9,9.5v19.5h-6.1v-34h6.1v4.8
				c2-3,5.4-5.6,10.5-5.6C122.6,570.5,127.9,576.9,127.9,584.1z"/>
			<path class="st2" d="M160.8,558.4v46.9h-6.1v-46.9H160.8z"/>
			<path class="st2" d="M196.8,584.8v20.5h-6.1v-4.7c-1.5,2.6-5.8,5.6-11.1,5.6c-6.4,0-12.1-3.9-12.1-10c0-10.7,12.9-10.9,17.7-10.9
				c1.7,0,4.6,0,5.5,0c0-5.2-1.1-9.2-8.1-9.2c-3.6,0-7.3,1.8-8.8,3l-4.3-3.3c3.8-3.4,8.9-5.3,14.3-5.3
				C193.6,570.5,196.8,576.7,196.8,584.8z M190.7,590c-0.2,0-1.9,0-2.3,0c-6.3,0-14.5-0.1-14.5,5.9c0,2.6,1.7,5.3,7.1,5.3
				c5.8,0,9.4-4.1,9.8-5.6V590z"/>
		</g>
		<g class="st1">
			<path class="st2" d="M262.5,558.4v28.7c0,12.9-7.3,19.1-19.6,19.1c-12.3,0-19.6-6.2-19.6-19.1v-28.7h11.5v27.5
				c0,6.2,2.9,9.2,8.1,9.2c5.1,0,8.1-2.9,8.1-9.2v-27.5H262.5z"/>
			<path class="st2" d="M302.8,584.1v21.2h-10.9V587c0-3.9-2.4-5.8-5.4-5.8c-3.1,0-5.4,2.1-5.4,5.8v18.3h-10.9v-34H281v3.1
				c1.9-2.2,4.9-4,9.3-4C298.8,570.5,302.8,577.2,302.8,584.1z"/>
			<path class="st2" d="M309.9,561.8c0-3.1,2.5-5.7,5.7-5.7s5.7,2.5,5.7,5.7c0,3.1-2.5,5.8-5.7,5.8S309.9,565,309.9,561.8z
				 M310.2,571.3H321v34h-10.9V571.3z"/>
			<path class="st2" d="M363.1,558.4v46.9h-10.9V602c-2,2.4-5,4.2-9.6,4.2c-10.6,0-16.3-8.9-16.3-17.8s5.7-17.8,16.3-17.8
				c4.6,0,7.6,1.7,9.6,4.2v-16.3H363.1z M351.9,588.4c0-4.6-3.2-7.3-7.3-7.3c-4.5,0-7.2,3.1-7.2,7.3c0,4.2,2.7,7.2,7.2,7.2
				C348.7,595.6,351.9,592.8,351.9,588.4z"/>
			<path class="st2" d="M400.2,584.2v21.1h-10.9v-3.1c-1.8,2.6-5.8,4-9.3,4c-4.6,0-11.6-1.7-11.6-10c0-11.3,14.6-11.3,16.9-11.3
				c1.5,0,3.3,0,4,0v-0.1c0-3.2-1.6-5.5-5.6-5.5c-2.7,0-5.1,1.1-6.4,2.1l-7.1-4.8c3.7-3.9,8.8-6.1,15.3-6.1
				C396.4,570.5,400.2,576.1,400.2,584.2z M389.4,590.4c-0.3,0-0.6,0-0.9,0c-5.4,0-9,1-9,4.4c0,2.5,2,3.4,4.4,3.4
				c2.3,0,4.6-1.1,5.6-2.4V590.4z"/>
			<path class="st2" d="M442.3,558.4v46.9h-10.9V602c-2,2.4-5,4.2-9.6,4.2c-10.6,0-16.3-8.9-16.3-17.8s5.7-17.8,16.3-17.8
				c4.6,0,7.6,1.7,9.6,4.2v-16.3H442.3z M431.1,588.4c0-4.6-3.2-7.3-7.3-7.3c-4.5,0-7.2,3.1-7.2,7.3c0,4.2,2.7,7.2,7.2,7.2
				C427.9,595.6,431.1,592.8,431.1,588.4z"/>
		</g>
		<g class="st1">
			<path class="st2" d="M75,623.2v46.9H64.2v-3.3c-2,2.4-5,4.2-9.6,4.2c-10.6,0-16.3-8.9-16.3-17.8s5.7-17.8,16.3-17.8
				c4.6,0,7.6,1.7,9.6,4.2v-16.3H75z M63.9,653.2c0-4.6-3.2-7.3-7.3-7.3c-4.5,0-7.2,3.1-7.2,7.3c0,4.2,2.7,7.2,7.2,7.2
				C60.6,660.4,63.9,657.6,63.9,653.2z"/>
			<path class="st2" d="M115.5,656.4H91c1.1,4,4.4,5.8,8.5,5.8c3.5,0,5.9-1.7,7-2.9l7.6,4.6c-2.7,4.2-8,7.2-14.6,7.2
				c-11.5,0-19.1-7.2-19.1-17.8c0-10.1,7.8-17.8,17.6-17.8C108,635.3,116.8,642.2,115.5,656.4z M105.7,649.9c-0.8-4-3.6-5.8-7.4-5.8
				c-3.4,0-6.3,2-7.3,5.8H105.7z"/>
			<path class="st2" d="M180.2,646.7c0,14.3-9.2,23.5-24.9,23.5h-16.4v-46.9h16.4C170.9,623.2,180.2,632.4,180.2,646.7z
				 M168.7,646.7c0-8.3-5.8-12.6-13.5-12.6h-4.9v25.3h4.9C162.9,659.3,168.7,655,168.7,646.7z"/>
			<path class="st2" d="M219.3,656.4h-24.5c1.1,4,4.4,5.8,8.5,5.8c3.5,0,5.9-1.7,7-2.9l7.6,4.6c-2.7,4.2-8,7.2-14.6,7.2
				c-11.5,0-19.1-7.2-19.1-17.8c0-10.1,7.8-17.8,17.6-17.8C211.8,635.3,220.6,642.2,219.3,656.4z M209.4,649.9
				c-0.8-4-3.6-5.8-7.4-5.8c-3.4,0-6.3,2-7.3,5.8H209.4z"/>
			<path class="st2" d="M257.5,648.9v21.2h-10.9v-18.3c0-3.9-2.4-5.8-5.4-5.8c-3.1,0-5.4,2.1-5.4,5.8v18.3h-10.9v-34h10.9v3.1
				c1.9-2.2,4.9-4,9.3-4C253.5,635.3,257.5,642,257.5,648.9z"/>
			<path class="st2" d="M297.5,636.1v34h-10.9V667c-1.9,2.2-4.8,4-9.2,4c-8.5,0-12.5-6.7-12.5-13.5v-21.3h10.9v18.4
				c0,3.9,2.5,5.8,5.4,5.8c3.2,0,5.4-2.1,5.4-5.8v-18.4H297.5z"/>
			<path class="st2" d="M337.5,648.9v21.2h-10.9v-18.3c0-3.9-2.4-5.8-5.4-5.8c-3.1,0-5.4,2.1-5.4,5.8v18.3h-10.9v-34h10.9v3.1
				c1.9-2.2,4.9-4,9.3-4C333.4,635.3,337.5,642,337.5,648.9z"/>
			<path class="st2" d="M367.1,657.2l9.4,5.6c-3.1,4.9-8.7,8.1-15.5,8.1c-10.6,0-18.2-7.8-18.2-17.8c0-10.1,7.6-17.8,18.2-17.8
				c6.8,0,12.4,3.1,15.5,8.1l-9.4,5.6c-1.3-1.9-3.4-3.2-6.1-3.2c-4.4,0-7.2,3.4-7.2,7.3s2.9,7.2,7.2,7.2
				C363.7,660.4,365.9,659.1,367.1,657.2z"/>
			<path class="st2" d="M380.6,626.6c0-3.1,2.5-5.7,5.7-5.7c3.1,0,5.7,2.5,5.7,5.7c0,3.1-2.5,5.8-5.7,5.8
				C383.1,632.4,380.6,629.8,380.6,626.6z M380.9,636.1h10.9v34h-10.9V636.1z"/>
			<path class="st2" d="M428.8,649v21.1H418V667c-1.8,2.6-5.8,4-9.3,4c-4.6,0-11.6-1.7-11.6-10c0-11.3,14.6-11.3,16.9-11.3
				c1.5,0,3.3,0,4,0v-0.1c0-3.2-1.6-5.5-5.6-5.5c-2.7,0-5.1,1.1-6.4,2.1l-7.1-4.8c3.7-3.9,8.8-6.1,15.3-6.1
				C425,635.3,428.8,640.9,428.8,649z M418,655.2c-0.3,0-0.6,0-0.9,0c-5.4,0-9,1-9,4.4c0,2.5,2,3.4,4.4,3.4s4.6-1.1,5.6-2.4V655.2z"
				/>
			<path class="st2" d="M463.5,659.6c0,7.2-5.3,11.4-15.2,11.4c-6.8,0-13.4-2.2-14.8-8.2l9.8-3.1c0.4,1.3,1.7,2.7,4.8,2.7
				c2.3,0,4.1-0.7,4.1-2.4c0-2.3-3.6-2.2-7.6-3.1c-6.5-1.5-10-3.8-10-10.5c0-7.1,6.1-11.2,14.6-11.2c5.8,0,11.6,2.9,13.1,8.6
				l-9.1,2.2c-0.4-1.6-1.9-2.5-3.9-2.5c-2.1,0-4.2,0.6-4.2,2.5c0,2.2,3.7,2.3,6.4,2.9C460.1,650.9,463.5,653.4,463.5,659.6z"/>
		</g>
	</g>
	<g>
		<g>
			<path class="st3" d="M353.9,96.4C353.9,24,294.8,3,259.5,3c-35.6,0-94,18.3-94,93.4c0,73.5-30.1,69.7-27.7,111.4
				c3.8,65.9,60.5,81.2,121.9,81.2s118.1-15.3,121.9-81.2C384,166.1,353.9,169.9,353.9,96.4z"/>
			<path class="st4" d="M353.9,96.4c0-34.3-13.3-57.1-31-71.5c11.5,14.2,19.2,33.6,19.2,59.7c0,73.5,22.2,74,19.8,115.7
				c-3.8,65.9-52.6,76.8-114,76.8c-36.5,0-71.2-5.4-94.3-23.5c21.7,27.7,62.7,35.4,106.1,35.4c61.4,0,118.1-15.3,121.9-81.2
				C384,166.1,353.9,169.9,353.9,96.4z"/>
			<ellipse class="st5" cx="259.5" cy="108" rx="78.3" ry="85.3"/>
			<polygon class="st6" points="276.8,227.5 259.8,243.3 242.2,227.5 242.2,185 276.8,185 			"/>
			<path class="st6" d="M306.1,39.5l-63.7,35.4c9.6,44.6,74.4,58.7,74.4,58.7c-13.4,28.7-41.9,47.9-69.1,47.9
				c-17.5,0-33.6-6.2-46.6-16.8c14.3,17.6,35.2,28.7,58.5,28.7c43.2,0,78.3-38.2,78.3-85.3C337.8,79.9,325.3,55,306.1,39.5z"/>
			<g>
				<path class="st3" d="M440.6,401.7c0,4.6-3.7,8.3-8.3,8.3H86.7c-4.6,0-8.3-3.7-8.3-8.3v-1.3c0-4.6,3.7-8.3,8.3-8.3h345.7
					c4.6,0,8.3,3.7,8.3,8.3v1.3H440.6z"/>
			</g>
			<path class="st3" d="M316.4,43.7c-20.9-22.9-49.8-24.4-70.4-21c-21.2,3.5-59.6,21.4-65.1,72.3c0,0,36.7,1,61.4-20.2
				c14.1,25,41.6,51.2,95.4,51.2C337.8,126,348.7,78.9,316.4,43.7z"/>
			<path class="st7" d="M343.8,233.1c-20.3-4.8-68.7-20.9-68.7-20.9l-15.8,29.6l-14.6-29.6c0,0-55.3,16.4-74.8,23.7
				c-17.7,6.6-28.5,88.6-34.9,128.9c-1.8,11.3,22.3,27.6,22.3,27.6h102.1H358c0,0,27.3-19.9,25.5-29.7
				C376,322.2,370,239.3,343.8,233.1z"/>
			<path class="st8" d="M242.2,206.2l-18.4,13c0,0,14,6.8,35.6,22.5L242.2,206.2z"/>
			<path class="st8" d="M277,206.2l17.8,13c0,0-14.9,6.8-35.6,22.5L277,206.2z"/>
			<g>
				<path class="st9" d="M371.5,370.6c0,4.6-3.8,8.4-8.4,8.4H155.9c-4.6,0-8.4-3.8-8.4-8.4V257.2c0-4.6,3.8-8.4,8.4-8.4h207.2
					c4.6,0,8.4,3.8,8.4,8.4L371.5,370.6L371.5,370.6z"/>
				<path class="st10" d="M363.1,248.8h-8c0,0-18.7,121.8-207.6,121.8l0,0c0,4.6,3.8,8.4,8.4,8.4h207.2c4.6,0,8.4-3.8,8.4-8.4V257.2
					C371.5,252.6,367.7,248.8,363.1,248.8z"/>
				<g>
					<g>
						<path class="st8" d="M208.1,382.3c0,7.5-1.7,2.1-3.9,2.1h-32.4c-2.2,0-3.9,4.2-3.9-2.1v-4.2c0-2.2,1.7-3.9,3.9-3.9h32.4
							c2.2,0,3.9,1.7,3.9,3.9V382.3z"/>
						<path class="st8" d="M351.1,384.6c0,2.2-1.7,1.7-3.9,1.7h-32.4c-2.2,0-3.9,0.6-3.9-1.6v-6.6c0-2.2,1.7-3.9,3.9-3.9h32.4
							c2.2,0,3.9,1.7,3.9,3.9V384.6z"/>
					</g>
					<path class="st9" d="M371.5,387.2c0,2.7-2.2,4.9-4.9,4.9H152.4c-2.7,0-4.9-2.2-4.9-4.9l0,0c0-2.7,2.2-4.9,4.9-4.9h214.2
						C369.3,382.3,371.5,384.5,371.5,387.2L371.5,387.2z"/>
				</g>
			</g>
		</g>
	</g>
</g>
</svg>
