<?xml version="1.0" encoding="utf-8"?>
<!-- Generator: Adobe Illustrator 26.5.3, SVG Export Plug-In . SVG Version: 6.00 Build 0)  -->
<svg version="1.1" id="Capa_1" xmlns="http://www.w3.org/2000/svg" xmlns:xlink="http://www.w3.org/1999/xlink" x="0px" y="0px"
	 viewBox="0 0 635.5 711" style="enable-background:new 0 0 635.5 711;" xml:space="preserve">
<style type="text/css">
	.st0{fill:#8079B2;}
	.st1{fill:#D5D3E6;}
	.st2{fill:#A9A5CB;}
	.st3{fill:#7D858B;}
</style>
<g>
	<g>
		<g>
			<g>
				<g>
					<g>
						<g>
							<g>
								<g>
									<rect x="314" y="1.6" class="st0" width="116.3" height="325.6"/>
									<polygon class="st1" points="487.8,1.6 436.8,1.6 320.6,1.6 320.6,327.2 436.8,327.2 553.2,327.2 553.2,57.2 									"/>
								</g>
								<polygon class="st0" points="487.8,57.2 553.2,57.2 487.8,1.6 								"/>
							</g>
						</g>
					</g>
				</g>
				<g>
					<path class="st0" d="M343.1,88L343.1,88c0,2.5,4.8,4.6,10.8,4.6h167.2c6,0,10.8-2.1,10.8-4.6l0,0c0-2.5-4.8-4.6-10.8-4.6H353.9
						C347.9,83.4,343.1,85.4,343.1,88z"/>
				</g>
				<g>
					<path class="st0" d="M343.1,108.9L343.1,108.9c0,2.5,4.8,4.6,10.8,4.6h167.2c6,0,10.8-2.1,10.8-4.6l0,0c0-2.5-4.8-4.6-10.8-4.6
						H353.9C347.9,104.3,343.1,106.3,343.1,108.9z"/>
				</g>
				<g>
					<path class="st0" d="M343.1,127.3L343.1,127.3c0,2.5,4.8,4.6,10.8,4.6h167.2c6,0,10.8-2.1,10.8-4.6l0,0c0-2.5-4.8-4.6-10.8-4.6
						H353.9C347.9,122.6,343.1,124.7,343.1,127.3z"/>
				</g>
				<g>
					<path class="st0" d="M343.1,147.5L343.1,147.5c0,2.5,4.8,4.6,10.8,4.6h167.2c6,0,10.8-2.1,10.8-4.6l0,0c0-2.5-4.8-4.6-10.8-4.6
						H353.9C347.9,142.9,343.1,145,343.1,147.5z"/>
				</g>
				<g>
					<path class="st0" d="M343.1,47.6L343.1,47.6c0,3,2.4,5.4,5.4,5.4h83c3,0,5.4-2.4,5.4-5.4l0,0c0-3-2.4-5.4-5.4-5.4h-83
						C345.5,42.2,343.1,44.6,343.1,47.6z"/>
				</g>
				<g>
					<path class="st0" d="M343.1,69.7L343.1,69.7c0,3,2.4,5.4,5.4,5.4h83c3,0,5.4-2.4,5.4-5.4l0,0c0-3-2.4-5.4-5.4-5.4h-83
						C345.5,64.4,343.1,66.8,343.1,69.7z"/>
				</g>
				<g>
					<path class="st0" d="M428.6,245.2L428.6,245.2c0,3,2.4,5.4,5.4,5.4h83c3,0,5.4-2.4,5.4-5.4l0,0c0-3-2.4-5.4-5.4-5.4h-83
						C431,239.8,428.6,242.2,428.6,245.2z"/>
				</g>
				<g>
					<path class="st0" d="M428.6,268L428.6,268c0,3,2.4,5.4,5.4,5.4h83c3,0,5.4-2.4,5.4-5.4l0,0c0-3-2.4-5.4-5.4-5.4h-83
						C431,262.6,428.6,265,428.6,268z"/>
				</g>
			</g>
			<g>
				<path class="st2" d="M170.5,117.6l124.5,1.2c9.4,0,19.8,6.7,23.2,15l7.5,18.4l137.2,0.4c9.8,0,17.9,7.6,17.9,16.9L473,340.8
					c0,8.8-7.7,16.1-17,16.1H177.5c-9.4,0-17.1-7.2-17.1-16.1l-7.8-206.3C152.6,125.2,160.7,117.6,170.5,117.6z"/>
				<polygon class="st0" points="469.7,242.4 173,263.3 163.7,177.5 460.4,156.6 				"/>
				<polygon class="st1" points="474.8,246.9 178,267.8 168.8,181.9 465.5,161 				"/>
				<path class="st2" d="M472,179l-132.2,1.1c-10,0-21,6.1-24.6,13.5l-7.9,16.5l-145.7,0.4c-10.5,0-19,6.8-19,15.2l8.3,154.1
					c0,8,8.2,14.5,18.1,14.5h295.7c10,0,18.1-6.5,18.1-14.5l8.3-185.6C491,185.9,482.4,179,472,179z"/>
				<path class="st0" d="M472,179l-13,0.1l-7.9,95.3c-11.6,98.8-105.5,95.4-115.5,95.4H150.2l0.5,10c0,8,8.2,14.5,18.1,14.5h295.7
					c10,0,18.1-6.5,18.1-14.5l8.3-185.6C491,185.9,482.4,179,472,179z"/>
			</g>
		</g>
		<path class="st0" d="M167,111.1c46.5,0.1,84.6,37.8,84.4,83.7c-0.2,45.7-39,84.5-84.6,84.4c-45.7-0.1-84.5-38.9-84.4-84.5
			C82.4,148.7,120.5,111.1,167,111.1z M123.7,194.7c-3.9,0.2-7.6,1.8-10.4,5.2c-4.9,6.1-4.1,13.7,2.1,19.7
			c8.8,8.6,17.6,17.1,26.5,25.6c7.2,7,14.9,6.9,22.1-0.2c18-17.7,36.1-35.4,54.1-53.2c1-1,2-2,2.8-3.2c3.5-4.9,3.5-11.2,0-16.1
			c-3.6-5-9.7-7.2-15.5-5c-2.5,1-5,2.7-7,4.6c-14.6,14.2-29.1,28.4-43.5,42.7c-1.6,1.6-2.6,1.7-4.3,0c-5.2-5.3-10.6-10.4-15.9-15.5
			C131.8,196.6,128.4,194.8,123.7,194.7z"/>
		<path class="st1" d="M123.7,194.7c-3.9,0.2-7.6,1.8-10.4,5.2c-4.9,6.1-4.1,13.7,2.1,19.7c8.8,8.6,17.6,17.1,26.5,25.6
			c7.2,7,14.9,6.9,22.1-0.2c18-17.7,36.1-35.4,54.1-53.2c1-1,2-2,2.8-3.2c3.5-4.9,3.5-11.2,0-16.1c-3.6-5-9.7-7.2-15.5-5
			c-2.5,1-5,2.7-7,4.6c-14.6,14.2-29.1,28.4-43.5,42.7c-1.6,1.6-2.6,1.7-4.3,0c-5.2-5.3-10.6-10.4-15.9-15.5
			C131.8,196.6,128.4,194.8,123.7,194.7z"/>
	</g>
</g>
<g>
	<g>
		<g>
			<path class="st3" d="M50.4,494.6l13.7,9c-6,8-15.6,13-27.1,13c-19.8,0-34.1-14.8-34.1-34.8c0-19.8,14.3-34.7,34.1-34.7
				c11.5,0,21.1,5,27.1,12.9l-13.7,9c-2.9-3.6-7.4-6.1-13.4-6.1c-11.7,0-17.6,9.4-17.6,18.9s5.9,19,17.6,19
				C43.1,500.8,47.6,498.3,50.4,494.6z"/>
			<path class="st3" d="M114.3,485.2v30.2H98.8v-4.5c-2.6,3.7-8.3,5.7-13.3,5.7c-6.5,0-16.6-2.5-16.6-14.3
				c0-16.1,20.9-16.1,24.1-16.1c2.2,0,4.7,0,5.7,0v-0.2c0-4.6-2.3-7.8-7.9-7.8c-3.9,0-7.3,1.5-9.2,3.1l-10.1-6.9
				c5.3-5.6,12.5-8.7,21.8-8.7C108.8,465.7,114.3,473.6,114.3,485.2z M98.8,494c-0.4,0-0.9,0-1.2,0c-7.8,0-12.9,1.4-12.9,6.3
				c0,3.5,2.9,4.9,6.2,4.9s6.6-1.6,7.9-3.4V494z"/>
			<path class="st3" d="M140.4,448.4v67h-15.6v-67H140.4z"/>
			<path class="st3" d="M150.5,453.2c0-4.5,3.6-8.1,8.1-8.1c4.5,0,8.1,3.6,8.1,8.1c0,4.5-3.6,8.2-8.1,8.2
				C154.2,461.5,150.5,457.7,150.5,453.2z M150.9,466.8h15.5v48.5h-15.5V466.8z"/>
			<path class="st3" d="M196.1,466.8h9.5v12.8h-9.5v35.7h-15.6v-35.7h-5.9v-12.8h5.9c0-9,3.1-20.9,18.4-20.9c3,0,4.9,0.4,6.7,0.7
				v12.5c-0.7-0.1-1.7-0.2-2.9-0.2C197.6,459,196.1,461.8,196.1,466.8z"/>
			<path class="st3" d="M213.3,453.2c0-4.5,3.6-8.1,8.1-8.1c4.5,0,8.1,3.6,8.1,8.1c0,4.5-3.6,8.2-8.1,8.2
				C217,461.5,213.3,457.7,213.3,453.2z M213.7,466.8h15.5v48.5h-15.5V466.8z"/>
			<path class="st3" d="M271.6,497l13.4,8c-4.4,7-12.4,11.6-22.1,11.6c-15.1,0-26-11.1-26-25.5c0-14.5,10.9-25.5,26-25.5
				c9.7,0,17.7,4.5,22.1,11.6l-13.4,8c-1.8-2.8-4.9-4.6-8.7-4.6c-6.2,0-10.3,4.8-10.3,10.4s4.1,10.3,10.3,10.3
				C266.8,501.5,269.8,499.7,271.6,497z"/>
			<path class="st3" d="M334.7,485.2v30.2h-15.5v-4.5c-2.6,3.7-8.3,5.7-13.3,5.7c-6.5,0-16.6-2.5-16.6-14.3
				c0-16.1,20.9-16.1,24.1-16.1c2.2,0,4.7,0,5.7,0v-0.2c0-4.6-2.3-7.8-7.9-7.8c-3.9,0-7.3,1.5-9.2,3.1l-10.1-6.9
				c5.3-5.6,12.5-8.7,21.8-8.7C329.3,465.7,334.7,473.6,334.7,485.2z M319.2,494c-0.4,0-0.9,0-1.2,0c-7.8,0-12.9,1.4-12.9,6.3
				c0,3.5,2.9,4.9,6.2,4.9s6.6-1.6,7.9-3.4V494z"/>
			<path class="st3" d="M377.1,497l13.4,8c-4.4,7-12.4,11.6-22.1,11.6c-15.1,0-26-11.1-26-25.5c0-14.5,10.9-25.5,26-25.5
				c9.7,0,17.7,4.5,22.1,11.6l-13.4,8c-1.8-2.8-4.9-4.6-8.7-4.6c-6.2,0-10.3,4.8-10.3,10.4s4.1,10.3,10.3,10.3
				C372.2,501.5,375.3,499.7,377.1,497z"/>
			<path class="st3" d="M396.4,453.2c0-4.5,3.6-8.1,8.1-8.1c4.5,0,8.1,3.6,8.1,8.1c0,4.5-3.6,8.2-8.1,8.2
				C400,461.5,396.4,457.7,396.4,453.2z M396.8,466.8h15.5v48.5h-15.5V466.8z"/>
			<path class="st3" d="M472,491.2c0,14.4-10.8,25.5-26,25.5c-15.1,0-26-11.1-26-25.5c0-14.5,10.9-25.5,26-25.5
				C461.2,465.7,472,476.7,472,491.2z M456.4,491.2c0-5.6-4.1-10.4-10.4-10.4c-6.2,0-10.3,4.8-10.3,10.4s4.1,10.3,10.3,10.3
				C452.3,501.5,456.4,496.8,456.4,491.2z"/>
			<path class="st3" d="M526.3,485v30.3h-15.6v-26.1c0-5.6-3.4-8.3-7.8-8.3c-4.5,0-7.8,3-7.8,8.3v26.1h-15.5v-48.5h15.5v4.5
				c2.8-3.2,7-5.6,13.3-5.6C520.5,465.7,526.3,475.3,526.3,485z"/>
			<path class="st3" d="M584.1,495.8h-35c1.6,5.6,6.2,8.2,12.2,8.2c5,0,8.4-2.4,10-4.2l10.9,6.5c-3.9,6-11.4,10.2-20.9,10.2
				c-16.4,0-27.3-10.3-27.3-25.5c0-14.4,11.2-25.5,25.1-25.5C573.4,465.7,586,475.5,584.1,495.8z M570,486.5
				c-1.1-5.6-5.2-8.2-10.5-8.2c-4.9,0-9,2.9-10.4,8.2H570z"/>
			<path class="st3" d="M631.1,500.3c0,10.2-7.6,16.3-21.7,16.3c-9.8,0-19.1-3.2-21.2-11.7l14.1-4.4c0.6,1.9,2.5,3.9,6.9,3.9
				c3.3,0,5.8-1,5.8-3.4c0-3.4-5.1-3.2-10.8-4.4c-9.3-2.1-14.4-5.5-14.4-14.9c0-10.1,8.7-16,20.9-16c8.3,0,16.6,4.1,18.7,12.3
				l-13,3.2c-0.6-2.3-2.7-3.5-5.6-3.5c-3.1,0-5.9,0.9-5.9,3.5c0,3.2,5.3,3.4,9.1,4.1C626.2,487.9,631.1,491.4,631.1,500.3z"/>
			<path class="st3" d="M192.7,576.8c0,12.7-8.2,25.5-23.3,25.5c-6.6,0-10.9-2.5-13.7-5.9v23.2h-15.6v-67h15.6v4.8
				c2.8-3.4,7.1-5.9,13.7-5.9C184.5,551.3,192.7,564.1,192.7,576.8z M177,576.8c0-6-3.9-10.4-10.4-10.4c-5.8,0-10.3,3.9-10.3,10.4
				c0,6.4,4.5,10.3,10.3,10.3C173.1,587.1,177,582.7,177,576.8z"/>
			<path class="st3" d="M249.6,576.8c0,14.4-10.8,25.5-26,25.5c-15.1,0-26-11.1-26-25.5c0-14.5,10.9-25.5,26-25.5
				C238.8,551.3,249.6,562.4,249.6,576.8z M234,576.8c0-5.6-4.1-10.4-10.4-10.4c-6.2,0-10.3,4.8-10.3,10.4s4.1,10.3,10.3,10.3
				C229.9,587.1,234,582.5,234,576.8z"/>
			<path class="st3" d="M288.1,551.3V568c-13.8-2.1-15.3,5.7-15.3,13.9V601h-15.5v-48.5h15.5v7.4
				C276.2,554.4,282.3,551.3,288.1,551.3z"/>
			<path class="st3" d="M340.2,565.3v15.3c0,5.1,1.8,7.7,6.6,7.7c1.2,0,2.2-0.2,3-0.3v13c-1.6,0.6-3.6,0.9-6.7,0.9
				c-14.9,0-18.4-10.1-18.4-19.6v-16.9h-6v-12.8h6v-10.1h15.5v10.1h9.6v12.8H340.2z"/>
			<path class="st3" d="M359.5,538.9c0-4.5,3.6-8.1,8.1-8.1c4.5,0,8.1,3.6,8.1,8.1c0,4.5-3.6,8.2-8.1,8.2
				C363.1,547.1,359.5,543.4,359.5,538.9z M359.9,552.5h15.5V601h-15.5V552.5z"/>
			<path class="st3" d="M438.4,576.8c0,12.7-8.2,25.5-23.3,25.5c-6.6,0-10.9-2.5-13.7-5.9v23.2h-15.6v-67h15.6v4.8
				c2.8-3.4,7.1-5.9,13.7-5.9C430.2,551.3,438.4,564.1,438.4,576.8z M422.7,576.8c0-6-3.9-10.4-10.4-10.4c-5.8,0-10.3,3.9-10.3,10.4
				c0,6.4,4.5,10.3,10.3,10.3C418.8,587.1,422.7,582.7,422.7,576.8z"/>
			<path class="st3" d="M495.3,576.8c0,14.4-10.8,25.5-26,25.5c-15.1,0-26-11.1-26-25.5c0-14.5,10.9-25.5,26-25.5
				C484.5,551.3,495.3,562.4,495.3,576.8z M479.7,576.8c0-5.6-4.1-10.4-10.4-10.4c-6.2,0-10.3,4.8-10.3,10.4s4.1,10.3,10.3,10.3
				C475.6,587.1,479.7,582.5,479.7,576.8z"/>
			<path class="st3" d="M197.9,619.7v67h-15.5V682c-2.9,3.4-7.2,5.9-13.7,5.9c-15.1,0-23.3-12.7-23.3-25.5s8.1-25.5,23.3-25.5
				c6.5,0,10.8,2.5,13.7,5.9v-23.3H197.9z M181.9,662.5c0-6.5-4.6-10.4-10.4-10.4c-6.4,0-10.3,4.4-10.3,10.4
				c0,5.9,3.9,10.3,10.3,10.3C177.3,672.8,181.9,668.9,181.9,662.5z"/>
			<path class="st3" d="M255.7,667.1h-35c1.6,5.6,6.2,8.2,12.2,8.2c5,0,8.4-2.4,10-4.2l10.9,6.5c-3.9,6-11.4,10.2-20.9,10.2
				c-16.4,0-27.3-10.3-27.3-25.5c0-14.4,11.2-25.5,25.1-25.5C245,637,257.6,646.8,255.7,667.1z M241.6,657.8
				c-1.1-5.6-5.2-8.2-10.5-8.2c-4.9,0-9,2.9-10.4,8.2H241.6z"/>
			<path class="st3" d="M308.6,638.1h9.5V651h-9.5v35.7H293V651h-5.9v-12.8h5.9c0-9,3.1-20.9,18.4-20.9c3,0,4.9,0.4,6.7,0.7v12.5
				c-0.7-0.1-1.7-0.2-2.9-0.2C310.2,630.3,308.6,633.1,308.6,638.1z"/>
			<path class="st3" d="M366.8,656.5v30.2h-15.5v-4.5c-2.6,3.7-8.3,5.7-13.3,5.7c-6.5,0-16.6-2.5-16.6-14.3
				c0-16.1,20.9-16.1,24.1-16.1c2.2,0,4.7,0,5.7,0v-0.2c0-4.6-2.3-7.8-7.9-7.8c-3.9,0-7.3,1.5-9.2,3.1l-10.1-6.9
				c5.3-5.6,12.5-8.7,21.8-8.7C361.4,637,366.8,644.9,366.8,656.5z M351.3,665.3c-0.4,0-0.9,0-1.2,0c-7.8,0-12.9,1.4-12.9,6.3
				c0,3.5,2.9,4.9,6.2,4.9s6.6-1.6,7.9-3.4V665.3z"/>
			<path class="st3" d="M393,619.7v67h-15.6v-67H393z"/>
			<path class="st3" d="M422.2,651v15.3c0,5.1,1.8,7.7,6.6,7.7c1.2,0,2.2-0.2,3-0.3v13c-1.6,0.6-3.6,0.9-6.7,0.9
				c-14.9,0-18.4-10.1-18.4-19.6V651h-6v-12.8h6V628h15.5v10.1h9.6V651H422.2z"/>
			<path class="st3" d="M484.3,656.5v30.2h-15.5v-4.5c-2.6,3.7-8.3,5.7-13.3,5.7c-6.5,0-16.6-2.5-16.6-14.3
				c0-16.1,20.9-16.1,24.1-16.1c2.2,0,4.7,0,5.7,0v-0.2c0-4.6-2.3-7.8-7.9-7.8c-3.9,0-7.3,1.5-9.2,3.1l-10.1-6.9
				c5.3-5.6,12.5-8.7,21.8-8.7C478.8,637,484.3,644.9,484.3,656.5z M468.8,665.3c-0.4,0-0.9,0-1.2,0c-7.8,0-12.9,1.4-12.9,6.3
				c0,3.5,2.9,4.9,6.2,4.9s6.6-1.6,7.9-3.4V665.3z"/>
		</g>
	</g>
</g>
</svg>
