<?xml version="1.0" encoding="utf-8"?>
<!-- Generator: Adobe Illustrator 26.5.3, SVG Export Plug-In . SVG Version: 6.00 Build 0)  -->
<svg version="1.1" id="Capa_1" xmlns="http://www.w3.org/2000/svg" xmlns:xlink="http://www.w3.org/1999/xlink" x="0px" y="0px"
	 viewBox="0 0 644.5 801" style="enable-background:new 0 0 644.5 801;" xml:space="preserve">
<style type="text/css">
	.st0{enable-background:new    ;}
	.st1{fill:#7D858B;}
	.st2{fill:#8079B2;}
</style>
<g>
	<g class="st0">
		<path class="st1" d="M107.5,444.7v71.8H92.1l-28-41.9v41.9H46.5v-71.8h15.4l28,41.9v-41.9H107.5z"/>
		<path class="st1" d="M169.3,464.5v52h-16.7v-4.7c-2.9,3.4-7.4,6.1-14.2,6.1c-13,0-19.1-10.3-19.1-20.7v-32.6H136v28.1
			c0,6,3.8,8.9,8.3,8.9c4.9,0,8.3-3.2,8.3-8.9v-28.1H169.3z M160,442.9l-10,14.4h-13.2l6.7-14.4H160z"/>
		<path class="st1" d="M258.4,482.1v34.4h-16.6v-29.9c0-5.8-4.3-7.1-7-7.1s-6.9,1.3-6.9,7.1v29.9h-16.7v-29.9c0-5.8-4.2-7.1-6.9-7.1
			s-7,1.3-7,7.1v29.9h-16.7v-52h16.7v4c2.7-3,6.8-5.2,12.8-5.2c7.2,0,11.9,2.8,14.7,7c3.1-3.8,7.8-7,15-7
			C252.5,463.2,258.4,471.7,258.4,482.1z"/>
		<path class="st1" d="M320.3,495.6h-37.6c1.7,6.1,6.7,8.8,13,8.8c5.3,0,9-2.6,10.7-4.5l11.7,7c-4.2,6.5-12.2,11-22.4,11
			c-17.5,0-29.2-11.1-29.2-27.3c0-15.4,12-27.3,26.9-27.3C308.9,463.2,322.4,473.7,320.3,495.6z M305.3,485.5
			c-1.2-6.1-5.5-8.8-11.3-8.8c-5.2,0-9.6,3.1-11.2,8.8H305.3z"/>
		<path class="st1" d="M361.9,463.2v17.9c-14.8-2.3-16.4,6.2-16.4,14.9v20.5h-16.6v-52h16.6v7.9
			C349.2,466.5,355.7,463.2,361.9,463.2z"/>
		<path class="st1" d="M421.8,490.5c0,15.4-11.6,27.3-27.9,27.3c-16.2,0-27.9-11.9-27.9-27.3c0-15.5,11.7-27.3,27.9-27.3
			C410.2,463.2,421.8,475,421.8,490.5z M405.1,490.5c0-6.1-4.4-11.2-11.2-11.2c-6.7,0-11.1,5.1-11.1,11.2c0,6.1,4.4,11.1,11.1,11.1
			C400.7,501.6,405.1,496.6,405.1,490.5z"/>
		<path class="st1" d="M509.9,444.7v71.8h-16.6v-5c-3.1,3.7-7.7,6.4-14.7,6.4c-16.2,0-24.9-13.6-24.9-27.3
			c0-13.6,8.7-27.3,24.9-27.3c7,0,11.6,2.7,14.7,6.4v-24.9H509.9z M492.7,490.5c0-7-4.9-11.2-11.2-11.2c-6.9,0-11.1,4.7-11.1,11.2
			c0,6.4,4.2,11.1,11.1,11.1C487.8,501.6,492.7,497.4,492.7,490.5z"/>
		<path class="st1" d="M571.8,495.6h-37.6c1.7,6.1,6.7,8.8,13,8.8c5.3,0,9-2.6,10.7-4.5l11.7,7c-4.2,6.5-12.2,11-22.4,11
			c-17.5,0-29.2-11.1-29.2-27.3c0-15.4,12-27.3,26.9-27.3C560.4,463.2,573.9,473.7,571.8,495.6z M556.8,485.5
			c-1.2-6.1-5.5-8.8-11.3-8.8c-5.2,0-9.6,3.1-11.2,8.8H556.8z"/>
	</g>
	<g class="st0">
		<path class="st1" d="M118.3,536.5v71.8h-16.6v-5c-3.1,3.7-7.7,6.4-14.7,6.4c-16.2,0-24.9-13.6-24.9-27.3
			c0-13.6,8.7-27.3,24.9-27.3c7,0,11.6,2.7,14.7,6.4v-24.9H118.3z M101.2,582.3c0-7-4.9-11.2-11.2-11.2c-6.9,0-11.1,4.7-11.1,11.2
			c0,6.4,4.2,11.1,11.1,11.1C96.3,593.4,101.2,589.2,101.2,582.3z"/>
		<path class="st1" d="M180.3,587.4h-37.6c1.7,6.1,6.7,8.8,13,8.8c5.3,0,9-2.6,10.7-4.5l11.7,7c-4.2,6.5-12.2,11-22.4,11
			c-17.5,0-29.2-11.1-29.2-27.3c0-15.4,12-27.3,26.9-27.3C168.8,555,182.3,565.5,180.3,587.4z M165.2,577.3
			c-1.2-6.1-5.5-8.8-11.3-8.8c-5.2,0-9.6,3.1-11.2,8.8H165.2z"/>
		<path class="st1" d="M238.8,575.8v32.5h-16.7v-28c0-6-3.7-8.9-8.3-8.9c-4.8,0-8.3,3.2-8.3,8.9v28h-16.6v-52h16.6v4.8
			c3-3.4,7.5-6.1,14.3-6.1C232.6,555,238.8,565.3,238.8,575.8z"/>
		<path class="st1" d="M300,556.3v52h-16.7v-4.7c-2.9,3.4-7.4,6.1-14.2,6.1c-13,0-19.1-10.3-19.1-20.7v-32.6h16.6v28.1
			c0,6,3.8,8.9,8.3,8.9c4.9,0,8.3-3.2,8.3-8.9v-28.1H300z"/>
		<path class="st1" d="M361.3,575.8v32.5h-16.7v-28c0-6-3.7-8.9-8.3-8.9c-4.8,0-8.3,3.2-8.3,8.9v28h-16.6v-52h16.6v4.8
			c3-3.4,7.5-6.1,14.3-6.1C355.1,555,361.3,565.3,361.3,575.8z"/>
		<path class="st1" d="M406.8,588.6l14.4,8.6c-4.7,7.5-13.3,12.4-23.7,12.4c-16.2,0-27.9-11.9-27.9-27.3c0-15.5,11.7-27.3,27.9-27.3
			c10.4,0,19,4.8,23.7,12.4l-14.4,8.6c-1.9-3-5.2-4.9-9.3-4.9c-6.7,0-11.1,5.1-11.1,11.2c0,6.1,4.4,11.1,11.1,11.1
			C401.5,593.4,404.8,591.5,406.8,588.6z"/>
		<path class="st1" d="M427.4,541.7c0-4.8,3.9-8.7,8.7-8.7c4.8,0,8.7,3.9,8.7,8.7c0,4.8-3.9,8.8-8.7,8.8
			C431.3,550.5,427.4,546.5,427.4,541.7z M427.8,556.3h16.6v52h-16.6V556.3z"/>
		<path class="st1" d="M501.3,576v32.3h-16.6v-4.8c-2.8,4-8.9,6.2-14.3,6.2c-7,0-17.8-2.7-17.8-15.3c0-17.2,22.4-17.2,25.9-17.2
			c2.4,0,5,0,6.2,0v-0.2c0-4.9-2.5-8.4-8.5-8.4c-4.2,0-7.8,1.6-9.9,3.3l-10.9-7.4c5.6-6,13.4-9.3,23.4-9.3
			C495.4,555,501.3,563.6,501.3,576z M484.6,585.4c-0.4,0-0.9,0-1.3,0c-8.3,0-13.9,1.5-13.9,6.8c0,3.8,3.1,5.2,6.7,5.2
			s7.1-1.7,8.5-3.7V585.4z"/>
		<path class="st1" d="M554.4,592.2c0,11-8.1,17.4-23.3,17.4c-10.5,0-20.5-3.4-22.7-12.5l15.1-4.7c0.6,2.1,2.7,4.2,7.4,4.2
			c3.5,0,6.3-1,6.3-3.7c0-3.6-5.4-3.4-11.6-4.7c-10-2.3-15.4-5.8-15.4-16c0-10.9,9.3-17.1,22.4-17.1c8.9,0,17.8,4.4,20,13.2l-14,3.4
			c-0.6-2.5-2.9-3.8-6-3.8c-3.3,0-6.4,0.9-6.4,3.8c0,3.4,5.6,3.6,9.7,4.4C549.2,578.8,554.4,582.6,554.4,592.2z"/>
	</g>
	<g class="st0">
		<path class="st1" d="M70.5,674.1c0,13.6-8.8,27.3-24.9,27.3c-7.1,0-11.7-2.7-14.7-6.4v24.8H14.2v-71.8h16.7v5.1
			c3-3.7,7.6-6.4,14.7-6.4C61.7,646.8,70.5,660.5,70.5,674.1z M53.7,674.1c0-6.5-4.2-11.2-11.2-11.2c-6.3,0-11.1,4.2-11.1,11.2
			c0,6.9,4.8,11.1,11.1,11.1C49.5,685.2,53.7,680.5,53.7,674.1z"/>
		<path class="st1" d="M131.4,674.1c0,15.4-11.6,27.3-27.9,27.3c-16.2,0-27.9-11.9-27.9-27.3c0-15.5,11.7-27.3,27.9-27.3
			C119.9,646.8,131.4,658.6,131.4,674.1z M114.7,674.1c0-6.1-4.4-11.2-11.2-11.2c-6.7,0-11.1,5.1-11.1,11.2
			c0,6.1,4.4,11.1,11.1,11.1C110.3,685.2,114.7,680.2,114.7,674.1z"/>
		<path class="st1" d="M172.7,646.8v17.9c-14.8-2.3-16.4,6.2-16.4,14.9v20.5h-16.6v-52h16.6v7.9C160,650.1,166.5,646.8,172.7,646.8z
			"/>
		<path class="st1" d="M249.5,684c0,11-8.1,17.4-23.3,17.4c-10.5,0-20.5-3.4-22.7-12.5l15.1-4.7c0.6,2.1,2.7,4.2,7.4,4.2
			c3.5,0,6.3-1,6.3-3.7c0-3.6-5.4-3.4-11.6-4.7c-10-2.3-15.4-5.8-15.4-16c0-10.9,9.3-17.1,22.4-17.1c8.9,0,17.8,4.4,20,13.2l-14,3.4
			c-0.6-2.5-2.9-3.8-6-3.8c-3.3,0-6.4,0.9-6.4,3.8c0,3.4,5.6,3.6,9.7,4.4C244.2,670.6,249.5,674.4,249.5,684z"/>
		<path class="st1" d="M307.8,679.2h-37.6c1.7,6.1,6.7,8.8,13,8.8c5.3,0,9-2.6,10.7-4.5l11.7,7c-4.2,6.5-12.2,11-22.4,11
			c-17.5,0-29.2-11.1-29.2-27.3c0-15.4,12-27.3,26.9-27.3C296.3,646.8,309.9,657.3,307.8,679.2z M292.8,669.1
			c-1.2-6.1-5.5-8.8-11.3-8.8c-5.2,0-9.6,3.1-11.2,8.8H292.8z"/>
		<path class="st1" d="M346.5,700.1l-9.1-16.1l-8.9,16.1h-18.8l16.5-26.1l-15.7-26h18.8l8.1,16.2l8.2-16.2h18.8l-15.7,26l16.5,26.1
			H346.5z"/>
		<path class="st1" d="M422.6,674.1c0,15.4-11.6,27.3-27.9,27.3c-16.2,0-27.9-11.9-27.9-27.3c0-15.5,11.7-27.3,27.9-27.3
			C411,646.8,422.6,658.6,422.6,674.1z M405.8,674.1c0-6.1-4.4-11.2-11.2-11.2c-6.7,0-11.1,5.1-11.1,11.2c0,6.1,4.4,11.1,11.1,11.1
			C401.4,685.2,405.8,680.2,405.8,674.1z"/>
		<path class="st1" d="M510.6,628.3v71.8H494v-5c-3.1,3.7-7.7,6.4-14.7,6.4c-16.2,0-24.9-13.6-24.9-27.3c0-13.6,8.7-27.3,24.9-27.3
			c7,0,11.6,2.7,14.7,6.4v-24.9H510.6z M493.5,674.1c0-7-4.9-11.2-11.2-11.2c-6.9,0-11.1,4.7-11.1,11.2c0,6.4,4.2,11.1,11.1,11.1
			C488.5,685.2,493.5,681,493.5,674.1z"/>
		<path class="st1" d="M572.6,679.2H535c1.7,6.1,6.7,8.8,13,8.8c5.3,0,9-2.6,10.7-4.5l11.7,7c-4.2,6.5-12.2,11-22.4,11
			c-17.5,0-29.2-11.1-29.2-27.3c0-15.4,12-27.3,26.9-27.3C561.1,646.8,574.6,657.3,572.6,679.2z M557.5,669.1
			c-1.2-6.1-5.5-8.8-11.3-8.8c-5.2,0-9.6,3.1-11.2,8.8H557.5z"/>
		<path class="st1" d="M597.8,628.3v71.8h-16.7v-71.8H597.8z"/>
	</g>
	<g class="st0">
		<path class="st1" d="M61.9,720.1v71.8H45.3v-5c-3.1,3.7-7.7,6.4-14.7,6.4c-16.2,0-24.9-13.6-24.9-27.3c0-13.6,8.7-27.3,24.9-27.3
			c7,0,11.6,2.7,14.7,6.4v-24.9H61.9z M44.8,765.9c0-7-4.9-11.2-11.2-11.2c-6.9,0-11.1,4.7-11.1,11.2c0,6.4,4.2,11.1,11.1,11.1
			C39.9,777,44.8,772.8,44.8,765.9z"/>
		<path class="st1" d="M123.9,771H86.3c1.7,6.1,6.7,8.8,13,8.8c5.3,0,9-2.6,10.7-4.5l11.7,7c-4.2,6.5-12.2,11-22.4,11
			c-17.5,0-29.2-11.1-29.2-27.3c0-15.4,12-27.3,26.9-27.3C112.4,738.6,125.9,749.1,123.9,771z M108.8,760.9
			c-1.2-6.1-5.5-8.8-11.3-8.8c-5.2,0-9.6,3.1-11.2,8.8H108.8z"/>
		<path class="st1" d="M182.4,759.4v32.5h-16.7v-28c0-6-3.7-8.9-8.3-8.9c-4.8,0-8.3,3.2-8.3,8.9v28h-16.6v-52H149v4.8
			c3-3.4,7.5-6.1,14.3-6.1C176.2,738.6,182.4,748.9,182.4,759.4z"/>
		<path class="st1" d="M243.6,739.9v52h-16.7v-4.7c-2.9,3.4-7.4,6.1-14.2,6.1c-13,0-19.1-10.3-19.1-20.7v-32.6h16.6V768
			c0,6,3.8,8.9,8.3,8.9c4.9,0,8.3-3.2,8.3-8.9v-28.1H243.6z"/>
		<path class="st1" d="M304.9,759.4v32.5h-16.7v-28c0-6-3.7-8.9-8.3-8.9c-4.8,0-8.3,3.2-8.3,8.9v28h-16.6v-52h16.6v4.8
			c3-3.4,7.5-6.1,14.3-6.1C298.7,738.6,304.9,748.9,304.9,759.4z"/>
		<path class="st1" d="M350.4,772.2l14.4,8.6c-4.7,7.5-13.3,12.4-23.7,12.4c-16.2,0-27.9-11.9-27.9-27.3c0-15.5,11.7-27.3,27.9-27.3
			c10.4,0,19,4.8,23.7,12.4l-14.4,8.6c-1.9-3-5.2-4.9-9.3-4.9c-6.7,0-11.1,5.1-11.1,11.2c0,6.1,4.4,11.1,11.1,11.1
			C345.1,777,348.4,775.1,350.4,772.2z"/>
		<path class="st1" d="M371,725.3c0-4.8,3.9-8.7,8.7-8.7c4.8,0,8.7,3.9,8.7,8.7c0,4.8-3.9,8.8-8.7,8.8
			C374.9,734.1,371,730.1,371,725.3z M371.4,739.9H388v52h-16.6V739.9z"/>
		<path class="st1" d="M444.9,759.6v32.3h-16.6v-4.8c-2.8,4-8.9,6.2-14.3,6.2c-7,0-17.8-2.7-17.8-15.3c0-17.2,22.4-17.2,25.9-17.2
			c2.4,0,5,0,6.2,0v-0.2c0-4.9-2.5-8.4-8.5-8.4c-4.2,0-7.8,1.6-9.9,3.3L399,748c5.6-6,13.4-9.3,23.4-9.3
			C439,738.6,444.9,747.2,444.9,759.6z M428.2,769c-0.4,0-0.9,0-1.3,0c-8.3,0-13.9,1.5-13.9,6.8c0,3.8,3.1,5.2,6.7,5.2
			s7.1-1.7,8.5-3.7V769z"/>
		<path class="st1" d="M506.1,759.4v32.5h-16.7v-28c0-6-3.7-8.9-8.3-8.9c-4.8,0-8.3,3.2-8.3,8.9v28h-16.6v-52h16.6v4.8
			c3-3.4,7.5-6.1,14.3-6.1C500,738.6,506.1,748.9,506.1,759.4z"/>
		<path class="st1" d="M536.4,753.6V770c0,5.4,2,8.2,7.1,8.2c1.3,0,2.4-0.2,3.2-0.3v14c-1.7,0.6-3.9,0.9-7.2,0.9
			c-16,0-19.7-10.9-19.7-21v-18.2h-6.5v-13.8h6.5V729h16.6v10.9h10.3v13.8H536.4z"/>
		<path class="st1" d="M607.1,771h-37.6c1.7,6.1,6.7,8.8,13,8.8c5.3,0,9-2.6,10.7-4.5l11.7,7c-4.2,6.5-12.2,11-22.4,11
			c-17.5,0-29.2-11.1-29.2-27.3c0-15.4,12-27.3,26.9-27.3C595.6,738.6,609.1,749.1,607.1,771z M592,760.9c-1.2-6.1-5.5-8.8-11.3-8.8
			c-5.2,0-9.6,3.1-11.2,8.8H592z"/>
	</g>
</g>
<g>
	<g>
		<g>
			<path class="st2" d="M143.9,122.1c-24,0-48,0-71.9,0c-7.8,0-10.4,3.1-8.6,10.5c17.2,73.7,34.3,147.3,51.5,220.9
				c1.2,5.1,3.3,6.7,8.6,6.8c13.4,0,26.8,0,40.2,0c6.1,0,8-1.5,9.4-7.5c17-73.2,34.1-146.5,51.1-219.7c1.9-8.1-0.4-11-8.7-11
				C191.6,122.1,167.7,122.1,143.9,122.1z M252.7,267.2c0.4,1.2,0.7,2.3,1,3.4c7.1,27.4,14.1,54.8,21.2,82.2
				c1.6,6.2,3.3,7.5,9.8,7.5c13.1,0,26.2,0,39.3,0c6,0,7.8-1.4,9.2-7.1c3.1-12,6.2-24,9.3-36c4.3-16.6,8.6-33.2,12.9-50.1
				c7.1,0,14,0,20.9,0c7.5,0,10.2-3.6,8.1-10.8c-12.5-42.5-25.1-85.1-37.6-127.6c-1.6-5.4-3.2-6.7-8.7-6.7c-22.6,0-45.1,0-67.7,0
				c-5.5,0-7.3,1.3-8.8,6.6c-12.6,42.8-25.2,85.6-37.8,128.4c-1.9,6.5,0.9,10.1,7.7,10.1C238.5,267.3,245.5,267.2,252.7,267.2z
				 M357,61.1c0-29.1-23.6-52.8-52.6-52.9c-29.1-0.1-53.2,23.8-53.2,52.9c0,28.9,23.9,52.9,52.7,52.9C333.2,114.1,357,90.4,357,61.1
				z M144,8.2c-29.1-0.1-52.9,23.5-53,52.5c-0.1,29.3,23.4,53.2,52.6,53.3c29.1,0.1,53.2-23.8,53.2-52.9
				C196.8,32.2,172.9,8.3,144,8.2z"/>
			<path class="st2" d="M143.9,122.1c23.8,0,47.7,0,71.5,0c8.3,0,10.6,2.9,8.7,11c-17,73.2-34.1,146.5-51.1,219.7
				c-1.4,6-3.3,7.5-9.4,7.5c-13.4,0-26.8,0-40.2,0c-5.4,0-7.4-1.6-8.6-6.8C97.6,280,80.5,206.3,63.3,132.7
				c-1.7-7.4,0.8-10.5,8.6-10.5C95.9,122.1,119.9,122.1,143.9,122.1z"/>
			<path class="st2" d="M252.7,267.2c-7.2,0-14.2,0-21.3,0c-6.8,0-9.6-3.7-7.7-10.1c12.6-42.8,25.2-85.6,37.8-128.4
				c1.6-5.3,3.3-6.6,8.8-6.6c22.6,0,45.1,0,67.7,0c5.5,0,7.1,1.3,8.7,6.7c12.6,42.5,25.1,85,37.6,127.6c2.1,7.2-0.6,10.8-8.1,10.8
				c-6.9,0-13.8,0-20.9,0c-4.4,16.9-8.6,33.5-12.9,50.1c-3.1,12-6.2,24-9.3,36c-1.5,5.7-3.3,7.1-9.2,7.1c-13.1,0-26.2,0-39.3,0
				c-6.4,0-8.2-1.3-9.8-7.5c-7.1-27.4-14.1-54.8-21.2-82.2C253.4,269.5,253.1,268.5,252.7,267.2z"/>
			<path class="st2" d="M357,61.1c0,29.3-23.8,53-53.1,52.9c-28.9-0.1-52.7-24-52.7-52.9c0-29.1,24-53,53.2-52.9
				C333.4,8.3,357,32,357,61.1z"/>
			<path class="st2" d="M144,8.2c28.9,0.1,52.7,24,52.8,52.9c0,29.1-24,53-53.2,52.9c-29.2-0.1-52.8-24-52.6-53.3
				C91.1,31.7,114.9,8.1,144,8.2z"/>
			<path class="st2" d="M472.4,122.1c-24,0-48,0-71.9,0c-7.8,0-10.4,3.1-8.6,10.5c17.2,73.7,34.3,147.3,51.5,220.9
				c1.2,5.1,3.3,6.7,8.6,6.8c13.4,0,26.8,0,40.2,0c6.1,0,8-1.5,9.4-7.5c17-73.2,34.1-146.5,51.1-219.7c1.9-8.1-0.4-11-8.7-11
				C520.1,122.1,496.2,122.1,472.4,122.1z"/>
			<path class="st2" d="M472.5,8.2c-29.1-0.1-52.9,23.5-53,52.5c-0.1,29.3,23.4,53.2,52.6,53.3c29.1,0.1,53.2-23.8,53.2-52.9
				C525.3,32.2,501.4,8.3,472.5,8.2z"/>
			<path class="st2" d="M472.4,122.1c23.8,0,47.7,0,71.5,0c8.3,0,10.6,2.9,8.7,11c-17,73.2-34.1,146.5-51.1,219.7
				c-1.4,6-3.3,7.5-9.4,7.5c-13.4,0-26.8,0-40.2,0c-5.4,0-7.4-1.6-8.6-6.8C426.2,280,409,206.3,391.8,132.7
				c-1.7-7.4,0.8-10.5,8.6-10.5C424.4,122.1,448.4,122.1,472.4,122.1z"/>
			<path class="st2" d="M472.5,8.2c28.9,0.1,52.7,24,52.8,52.9c0,29.1-24,53-53.2,52.9c-29.2-0.1-52.8-24-52.6-53.3
				C419.6,31.7,443.4,8.1,472.5,8.2z"/>
		</g>
	</g>
	<path class="st2" d="M472.2,360.4c-23.8,0-47.7,0-71.5,0c-8.3,0-10.6-2.9-8.7-11c17-73.2,34.1-146.5,51.1-219.7
		c1.4-6,3.3-7.5,9.4-7.5c13.4,0,26.8,0,40.2,0c5.4,0,7.4,1.6,8.6,6.8c17.2,73.6,34.4,147.3,51.5,220.9c1.7,7.4-0.8,10.5-8.6,10.5
		C520.1,360.4,496.2,360.4,472.2,360.4z"/>
</g>
</svg>
