<?xml version="1.0" encoding="utf-8"?>
<!-- Generator: Adobe Illustrator 26.5.3, SVG Export Plug-In . SVG Version: 6.00 Build 0)  -->
<svg version="1.1" id="Capa_1" xmlns="http://www.w3.org/2000/svg" xmlns:xlink="http://www.w3.org/1999/xlink" x="0px" y="0px"
	 viewBox="0 0 644.5 801" style="enable-background:new 0 0 644.5 801;" xml:space="preserve">
<style type="text/css">
	.st0{fill:#7D858B;}
	.st1{fill:#8079B2;}
</style>
<g>
	<g>
		<path class="st0" d="M122.3,444.7v71.8h-15.4l-28-41.9v41.9H61.2v-71.8h15.4l28,41.9v-41.9H122.3z"/>
		<path class="st0" d="M184,464.5v52h-16.7v-4.7c-2.9,3.4-7.4,6.1-14.2,6.1c-13,0-19.1-10.3-19.1-20.7v-32.6h16.6v28.1
			c0,6,3.8,8.9,8.3,8.9c4.9,0,8.3-3.2,8.3-8.9v-28.1H184z M174.7,442.9l-10,14.4h-13.2l6.7-14.4H174.7z"/>
		<path class="st0" d="M273.1,482.1v34.4h-16.6v-29.9c0-5.8-4.3-7.1-7-7.1s-6.9,1.3-6.9,7.1v29.9h-16.7v-29.9c0-5.8-4.2-7.1-6.9-7.1
			s-7,1.3-7,7.1v29.9h-16.7v-52H212v4c2.7-3,6.8-5.2,12.8-5.2c7.2,0,11.9,2.8,14.7,7c3.1-3.8,7.8-7,15-7
			C267.3,463.2,273.1,471.7,273.1,482.1z"/>
		<path class="st0" d="M335.1,495.6h-37.6c1.7,6.1,6.7,8.8,13,8.8c5.3,0,9-2.6,10.7-4.5l11.7,7c-4.2,6.5-12.2,11-22.4,11
			c-17.5,0-29.2-11.1-29.2-27.3c0-15.4,12-27.3,26.9-27.3C323.6,463.2,337.1,473.7,335.1,495.6z M320,485.5
			c-1.2-6.1-5.5-8.8-11.3-8.8c-5.2,0-9.6,3.1-11.2,8.8H320z"/>
		<path class="st0" d="M376.6,463.2v17.9c-14.8-2.3-16.4,6.2-16.4,14.9v20.5h-16.6v-52h16.6v7.9
			C363.9,466.5,370.5,463.2,376.6,463.2z"/>
		<path class="st0" d="M436.6,490.5c0,15.4-11.6,27.3-27.9,27.3c-16.2,0-27.9-11.9-27.9-27.3c0-15.5,11.7-27.3,27.9-27.3
			C425,463.2,436.6,475,436.6,490.5z M419.8,490.5c0-6.1-4.4-11.2-11.2-11.2c-6.7,0-11.1,5.1-11.1,11.2c0,6.1,4.4,11.1,11.1,11.1
			C415.4,501.6,419.8,496.6,419.8,490.5z"/>
		<path class="st0" d="M524.6,444.7v71.8H508v-5c-3.1,3.7-7.7,6.4-14.7,6.4c-16.2,0-24.9-13.6-24.9-27.3c0-13.6,8.7-27.3,24.9-27.3
			c7,0,11.6,2.7,14.7,6.4v-24.9H524.6z M507.5,490.5c0-7-4.9-11.2-11.2-11.2c-6.9,0-11.1,4.7-11.1,11.2c0,6.4,4.2,11.1,11.1,11.1
			C502.5,501.6,507.5,497.4,507.5,490.5z"/>
		<path class="st0" d="M586.6,495.6H549c1.7,6.1,6.7,8.8,13,8.8c5.3,0,9-2.6,10.7-4.5l11.7,7c-4.2,6.5-12.2,11-22.4,11
			c-17.5,0-29.2-11.1-29.2-27.3c0-15.4,12-27.3,26.9-27.3C575.1,463.2,588.6,473.7,586.6,495.6z M571.5,485.5
			c-1.2-6.1-5.5-8.8-11.3-8.8c-5.2,0-9.6,3.1-11.2,8.8H571.5z"/>
		<path class="st0" d="M132.6,536.5v71.8H116v-5c-3.1,3.7-7.7,6.4-14.7,6.4c-16.2,0-24.9-13.6-24.9-27.3c0-13.6,8.7-27.3,24.9-27.3
			c7,0,11.6,2.7,14.7,6.4v-24.9H132.6z M115.4,582.3c0-7-4.9-11.2-11.2-11.2c-6.9,0-11.1,4.7-11.1,11.2c0,6.4,4.2,11.1,11.1,11.1
			C110.5,593.4,115.4,589.2,115.4,582.3z"/>
		<path class="st0" d="M194.6,587.4H157c1.7,6.1,6.7,8.8,13,8.8c5.3,0,9-2.6,10.7-4.5l11.7,7c-4.2,6.5-12.2,11-22.4,11
			c-17.5,0-29.2-11.1-29.2-27.3c0-15.4,12-27.3,26.9-27.3C183.1,555,196.6,565.5,194.6,587.4z M179.5,577.3
			c-1.2-6.1-5.5-8.8-11.3-8.8c-5.2,0-9.6,3.1-11.2,8.8H179.5z"/>
		<path class="st0" d="M253,575.8v32.5h-16.7v-28c0-6-3.7-8.9-8.3-8.9c-4.8,0-8.3,3.2-8.3,8.9v28h-16.6v-52h16.6v4.8
			c3-3.4,7.5-6.1,14.3-6.1C246.9,555,253,565.3,253,575.8z"/>
		<path class="st0" d="M314.3,556.3v52h-16.7v-4.7c-2.9,3.4-7.4,6.1-14.2,6.1c-13,0-19.1-10.3-19.1-20.7v-32.6H281v28.1
			c0,6,3.8,8.9,8.3,8.9c4.9,0,8.3-3.2,8.3-8.9v-28.1H314.3z"/>
		<path class="st0" d="M375.6,575.8v32.5h-16.7v-28c0-6-3.7-8.9-8.3-8.9c-4.8,0-8.3,3.2-8.3,8.9v28h-16.6v-52h16.6v4.8
			c3-3.4,7.5-6.1,14.3-6.1C369.4,555,375.6,565.3,375.6,575.8z"/>
		<path class="st0" d="M421,588.6l14.4,8.6c-4.7,7.5-13.3,12.4-23.7,12.4c-16.2,0-27.9-11.9-27.9-27.3c0-15.5,11.7-27.3,27.9-27.3
			c10.4,0,19,4.8,23.7,12.4l-14.4,8.6c-1.9-3-5.2-4.9-9.3-4.9c-6.7,0-11.1,5.1-11.1,11.2c0,6.1,4.4,11.1,11.1,11.1
			C415.8,593.4,419.1,591.5,421,588.6z"/>
		<path class="st0" d="M441.6,541.7c0-4.8,3.9-8.7,8.7-8.7c4.8,0,8.7,3.9,8.7,8.7c0,4.8-3.9,8.8-8.7,8.8
			C445.5,550.5,441.6,546.5,441.6,541.7z M442,556.3h16.6v52H442V556.3z"/>
		<path class="st0" d="M515.5,576v32.3h-16.6v-4.8c-2.8,4-8.9,6.2-14.3,6.2c-7,0-17.8-2.7-17.8-15.3c0-17.2,22.4-17.2,25.9-17.2
			c2.4,0,5,0,6.2,0v-0.2c0-4.9-2.5-8.4-8.5-8.4c-4.2,0-7.8,1.6-9.9,3.3l-10.9-7.4c5.6-6,13.4-9.3,23.4-9.3
			C509.7,555,515.5,563.6,515.5,576z M498.9,585.4c-0.4,0-0.9,0-1.3,0c-8.3,0-13.9,1.5-13.9,6.8c0,3.8,3.1,5.2,6.7,5.2
			s7.1-1.7,8.5-3.7V585.4z"/>
		<path class="st0" d="M568.7,592.2c0,11-8.1,17.4-23.3,17.4c-10.5,0-20.5-3.4-22.7-12.5l15.1-4.7c0.6,2.1,2.7,4.2,7.4,4.2
			c3.5,0,6.3-1,6.3-3.7c0-3.6-5.4-3.4-11.6-4.7c-10-2.3-15.4-5.8-15.4-16c0-10.9,9.3-17.1,22.4-17.1c8.9,0,17.8,4.4,20,13.2l-14,3.4
			c-0.6-2.5-2.9-3.8-6-3.8c-3.3,0-6.4,0.9-6.4,3.8c0,3.4,5.6,3.6,9.7,4.4C563.4,578.9,568.7,582.7,568.7,592.2z"/>
		<path class="st0" d="M86.8,674.2c0,13.6-8.8,27.3-24.9,27.3c-7.1,0-11.7-2.7-14.7-6.4v24.8H30.4v-71.8h16.7v5.1
			c3-3.7,7.6-6.4,14.7-6.4C77.9,646.9,86.8,660.5,86.8,674.2z M69.9,674.2c0-6.5-4.2-11.2-11.2-11.2c-6.3,0-11.1,4.2-11.1,11.2
			c0,6.9,4.8,11.1,11.1,11.1C65.7,685.2,69.9,680.5,69.9,674.2z"/>
		<path class="st0" d="M147.7,674.2c0,15.4-11.6,27.3-27.9,27.3c-16.2,0-27.9-11.9-27.9-27.3c0-15.5,11.7-27.3,27.9-27.3
			C136.1,646.9,147.7,658.7,147.7,674.2z M131,674.2c0-6.1-4.4-11.2-11.2-11.2c-6.7,0-11.1,5.1-11.1,11.2c0,6.1,4.4,11.1,11.1,11.1
			C126.6,685.2,131,680.2,131,674.2z"/>
		<path class="st0" d="M189,646.9v17.9c-14.8-2.3-16.4,6.2-16.4,14.9v20.5h-16.6v-52h16.6v7.9C176.2,650.1,182.8,646.9,189,646.9z"
			/>
		<path class="st0" d="M265.7,684c0,11-8.1,17.4-23.3,17.4c-10.5,0-20.5-3.4-22.7-12.5l15.1-4.7c0.6,2.1,2.7,4.2,7.4,4.2
			c3.5,0,6.3-1,6.3-3.7c0-3.6-5.4-3.4-11.6-4.7c-10-2.3-15.4-5.8-15.4-16c0-10.9,9.3-17.1,22.4-17.1c8.9,0,17.8,4.4,20,13.2l-14,3.4
			c-0.6-2.5-2.9-3.8-6-3.8c-3.3,0-6.4,0.9-6.4,3.8c0,3.4,5.6,3.6,9.7,4.4C260.5,670.7,265.7,674.5,265.7,684z"/>
		<path class="st0" d="M324.1,679.2h-37.6c1.7,6.1,6.7,8.8,13,8.8c5.3,0,9-2.6,10.7-4.5l11.7,7c-4.2,6.5-12.2,11-22.4,11
			c-17.5,0-29.2-11.1-29.2-27.3c0-15.4,12-27.3,26.9-27.3C312.6,646.9,326.1,657.3,324.1,679.2z M309,669.1
			c-1.2-6.1-5.5-8.8-11.3-8.8c-5.2,0-9.6,3.1-11.2,8.8H309z"/>
		<path class="st0" d="M362.8,700.1l-9.1-16.1l-8.9,16.1h-18.8l16.5-26.1l-15.7-26h18.8l8.1,16.2l8.2-16.2h18.8l-15.7,26l16.5,26.1
			H362.8z"/>
		<path class="st0" d="M438.8,674.2c0,15.4-11.6,27.3-27.9,27.3c-16.2,0-27.9-11.9-27.9-27.3c0-15.5,11.7-27.3,27.9-27.3
			C427.2,646.9,438.8,658.7,438.8,674.2z M422.1,674.2c0-6.1-4.4-11.2-11.2-11.2c-6.7,0-11.1,5.1-11.1,11.2
			c0,6.1,4.4,11.1,11.1,11.1C417.7,685.2,422.1,680.2,422.1,674.2z"/>
		<path class="st0" d="M526.9,628.3v71.8h-16.6v-5c-3.1,3.7-7.7,6.4-14.7,6.4c-16.2,0-24.9-13.6-24.9-27.3
			c0-13.6,8.7-27.3,24.9-27.3c7,0,11.6,2.7,14.7,6.4v-24.9H526.9z M509.7,674.2c0-7-4.9-11.2-11.2-11.2c-6.9,0-11.1,4.7-11.1,11.2
			c0,6.4,4.2,11.1,11.1,11.1C504.8,685.2,509.7,681,509.7,674.2z"/>
		<path class="st0" d="M588.8,679.2h-37.6c1.7,6.1,6.7,8.8,13,8.8c5.3,0,9-2.6,10.7-4.5l11.7,7c-4.2,6.5-12.2,11-22.4,11
			c-17.5,0-29.2-11.1-29.2-27.3c0-15.4,12-27.3,26.9-27.3C577.3,646.9,590.9,657.3,588.8,679.2z M573.8,669.1
			c-1.2-6.1-5.5-8.8-11.3-8.8c-5.2,0-9.6,3.1-11.2,8.8H573.8z"/>
		<path class="st0" d="M614.1,628.3v71.8h-16.7v-71.8H614.1z"/>
		<path class="st0" d="M94.7,720.1v71.8H78v-5c-3.1,3.7-7.7,6.4-14.7,6.4c-16.2,0-24.9-13.6-24.9-27.3c0-13.6,8.7-27.3,24.9-27.3
			c7,0,11.6,2.7,14.7,6.4v-24.9H94.7z M77.5,766c0-7-4.9-11.2-11.2-11.2c-6.9,0-11.1,4.7-11.1,11.2c0,6.4,4.2,11.1,11.1,11.1
			C72.6,777.1,77.5,772.8,77.5,766z"/>
		<path class="st0" d="M156.6,771h-37.6c1.7,6.1,6.7,8.8,13,8.8c5.3,0,9-2.6,10.7-4.5l11.7,7c-4.2,6.5-12.2,11-22.4,11
			c-17.5,0-29.2-11.1-29.2-27.3c0-15.4,12-27.3,26.9-27.3C145.1,738.7,158.7,749.1,156.6,771z M141.6,760.9
			c-1.2-6.1-5.5-8.8-11.3-8.8c-5.2,0-9.6,3.1-11.2,8.8H141.6z"/>
		<path class="st0" d="M215.1,759.4v32.5h-16.7v-28c0-6-3.7-8.9-8.3-8.9c-4.8,0-8.3,3.2-8.3,8.9v28h-16.6v-52h16.6v4.8
			c3-3.4,7.5-6.1,14.3-6.1C209,738.7,215.1,748.9,215.1,759.4z"/>
		<path class="st0" d="M276.4,739.9v52h-16.7v-4.7c-2.9,3.4-7.4,6.1-14.2,6.1c-13,0-19.1-10.3-19.1-20.7v-32.6H243V768
			c0,6,3.8,8.9,8.3,8.9c4.9,0,8.3-3.2,8.3-8.9v-28.1H276.4z"/>
		<path class="st0" d="M337.6,759.4v32.5h-16.7v-28c0-6-3.7-8.9-8.3-8.9c-4.8,0-8.3,3.2-8.3,8.9v28h-16.6v-52h16.6v4.8
			c3-3.4,7.5-6.1,14.3-6.1C331.5,738.7,337.6,748.9,337.6,759.4z"/>
		<path class="st0" d="M383.1,772.2l14.4,8.6c-4.7,7.5-13.3,12.4-23.7,12.4c-16.2,0-27.9-11.9-27.9-27.3c0-15.5,11.7-27.3,27.9-27.3
			c10.4,0,19,4.8,23.7,12.4l-14.4,8.6c-1.9-3-5.2-4.9-9.3-4.9c-6.7,0-11.1,5.1-11.1,11.2c0,6.1,4.4,11.1,11.1,11.1
			C377.9,777.1,381.2,775.1,383.1,772.2z"/>
		<path class="st0" d="M403.7,725.3c0-4.8,3.9-8.7,8.7-8.7c4.8,0,8.7,3.9,8.7,8.7c0,4.8-3.9,8.8-8.7,8.8
			C407.6,734.2,403.7,730.2,403.7,725.3z M404.1,739.9h16.6v52h-16.6V739.9z"/>
		<path class="st0" d="M477.6,759.6v32.3H461v-4.8c-2.8,4-8.9,6.2-14.3,6.2c-7,0-17.8-2.7-17.8-15.3c0-17.2,22.4-17.2,25.9-17.2
			c2.4,0,5,0,6.2,0v-0.2c0-4.9-2.5-8.4-8.5-8.4c-4.2,0-7.8,1.6-9.9,3.3l-10.9-7.4c5.6-6,13.4-9.3,23.4-9.3
			C471.8,738.7,477.6,747.2,477.6,759.6z M461,769c-0.4,0-0.9,0-1.3,0c-8.3,0-13.9,1.5-13.9,6.8c0,3.8,3.1,5.2,6.7,5.2
			s7.1-1.7,8.5-3.7V769z"/>
		<path class="st0" d="M542,720.1v71.8h-16.6v-5c-3.1,3.7-7.7,6.4-14.7,6.4c-16.2,0-24.9-13.6-24.9-27.3c0-13.6,8.7-27.3,24.9-27.3
			c7,0,11.6,2.7,14.7,6.4v-24.9H542z M524.9,766c0-7-4.9-11.2-11.2-11.2c-6.9,0-11.1,4.7-11.1,11.2c0,6.4,4.2,11.1,11.1,11.1
			C520,777.1,524.9,772.8,524.9,766z"/>
		<path class="st0" d="M606.1,766c0,15.4-11.6,27.3-27.9,27.3c-16.2,0-27.9-11.9-27.9-27.3c0-15.5,11.7-27.3,27.9-27.3
			C594.5,738.7,606.1,750.5,606.1,766z M589.3,766c0-6.1-4.4-11.2-11.2-11.2c-6.7,0-11.1,5.1-11.1,11.2c0,6.1,4.4,11.1,11.1,11.1
			C584.9,777.1,589.3,772,589.3,766z"/>
	</g>
</g>
<path class="st1" d="M466.5,77.4L466.5,77.4l-80.3,0v37.8H402l-19.8,19.8c-26.5-18-59.6-22-89.1-12l-0.8-1.3l-0.1-0.4c0,0,0,0-0.1,0
	l-11.8-20l0,0l34.1,1.5l1.6-37.7l-38.7-1.7l17.7-34.1L261.6,12L246,42l-15-26L198.3,35l14.9,25.7l0,0l-33.5-1.4L178,96.9l38.6,1.7
	l0,0l-17.9,34.6l33.5,17.4l15.6-30.1l13.3,20.5c-2.2,1.9-4.4,3.9-6.5,6c-19.6,19.6-29.5,45.4-29.5,71.1c0,25.7,9.8,51.5,29.5,71.1
	c14.8,14.8,33.1,24,52.2,27.7l-0.3,1.6c0.1,0,0.2,0,0.3,0.1v18.1h0v1.6H276V376h30.9v1.6h0v22.8h37.8V376h30.9v-37.8h-30.9V317
	c19.1-3.6,37.4-12.9,52.3-27.7c19.6-19.6,29.5-45.4,29.5-71.1c0-19.8-5.8-39.5-17.4-56.5l0,0l1.4-0.9c-0.1-0.1-0.1-0.2-0.2-0.3
	l18.6-18.6v15.8h37.8L466.5,77.4L466.5,77.4z M370.2,262.6c-24.5,24.5-64.3,24.5-88.9,0c-12.3-12.3-18.4-28.4-18.4-44.4
	c0-16.1,6.1-32.2,18.4-44.4c24.5-24.5,64.3-24.5,88.9,0c12.3,12.3,18.4,28.4,18.4,44.4C388.6,234.2,382.4,250.3,370.2,262.6z"/>
</svg>
