<?xml version="1.0" encoding="utf-8"?>
<!-- Generator: Adobe Illustrator 26.5.2, SVG Export Plug-In . SVG Version: 6.00 Build 0)  -->
<svg version="1.1" id="Capa_1" xmlns="http://www.w3.org/2000/svg" xmlns:xlink="http://www.w3.org/1999/xlink" x="0px" y="0px"
	 viewBox="0 0 489.5 711" style="enable-background:new 0 0 489.5 711;" xml:space="preserve">
<style type="text/css">
	.st0{fill:#8079B2;}
	.st1{fill:#D9E4E9;}
	.st2{fill:#B7C1CB;}
	.st3{fill:#ECF1F2;}
	.st4{fill:#9EACB4;}
	.st5{fill:#9DABB3;}
	.st6{enable-background:new    ;}
	.st7{fill:#FEFEFE;}
</style>
<g>
	<path class="st0" d="M487.1,371.3v298.6c0,21.6-19.6,39.1-43.8,39.1H46.2C22,709,2.4,691.5,2.4,669.9V375.4
		c0-125,116.3-227.3,256-220.3C385.9,161.4,487.1,255.8,487.1,371.3"/>
	<g>
		<path class="st1" d="M415.7,301.8c-1.9,1.8-4.1,2.3-6.7,2.3c-16.5-0.1-33,0-49.4-0.1c-2.3,0-4.6,0.1-6.9,0.7
			c-1.1-1.1-2.5-0.6-3.8-0.6c-6.6-0.1-13.2-0.1-19.8-0.1c0.2-0.8,0.2-1.8,0.6-2.5c3.4-5.4,5.9-11.3,8.5-17.2
			c4.3-9.9,8.2-20,10.9-30.5c9.6,0,19.2-0.1,28.8-0.1c4.2,0,6.7-2.1,6.7-5.7c0.1-3.4-2.4-5.5-6.7-5.5c-8.4-0.1-16.7-0.1-25.1-0.2
			c0.4-2.3,0.8-4.6,1.3-6.8c1.5-7.4,3.2-14.8,3.9-22.4c6.8,0,13.5-0.1,20.3-0.1c3.8,0,6.4-2.3,6.4-5.6s-2.5-5.5-6.4-5.6
			c-6-0.1-12.1-0.1-18.1-0.2c0.2-9.7,2-19.4,1.5-29.1c5.4-0.1,10.8-0.1,16.2-0.2c4.3,0,6.8-2.1,6.7-5.5c-0.1-3.6-2.5-5.6-6.7-5.7
			c-5.4-0.1-10.8-0.1-16.2-0.1c0.2-1.4,0.8-2.9,0.6-4.3c-1.1-8.3,0-16.6-1.3-24.9c5.7-0.1,11.3-0.1,17-0.2c4.3,0,6.8-2.1,6.7-5.5
			c-0.1-3.6-2.5-5.6-6.7-5.7c-6.2-0.1-12.3-0.1-18.5-0.1c-0.1-1.6,0-3.2-0.2-4.7c-1.3-8-2.8-16-4.1-24.1c7.5,0,15,0,22.5-0.1
			c4.6,0,7.1-2.3,7.1-6.2c0-3.6-2.5-5.5-7.1-5.6c-8.5,0-17-0.1-25.4-0.1c-6.8-27.8-18-53.6-34.8-76.9c0.9-1,2-0.7,3.1-0.7
			c13,0,26,0,39,0c1.1,0,2.2-0.3,3.1,0.7c0,12.8,0,25.6,0,38.4c0,7.2,2.5,9.7,9.7,9.7c14.5,0,29,0,43.5,0
			C415.7,134.5,415.7,218.1,415.7,301.8z"/>
		<path class="st2" d="M415.7,50.9c-14.5,0-29,0-43.5,0c-7.3,0-9.7-2.5-9.7-9.7c0-12.8,0-25.6,0-38.4c3.6-0.8,6,1.4,8.3,3.6
			c9.3,8.9,18.5,17.9,27.8,26.9c5.7,5.4,11.4,10.8,17.1,16.1C415.7,49.9,415.7,50.4,415.7,50.9z"/>
		<path class="st3" d="M358,213.1c-0.6,7.6-2.3,14.9-3.9,22.4c-0.5,2.3-0.9,4.6-1.3,6.8c-7.3,0.1-14.5,0.2-21.8,0.2
			c-37.7,0-75.5,0-113.2,0c-1.7,0-3.5-0.4-5,0.7c-2.3,1.5-3.4,3.7-2.6,6.4c0.9,2.9,3,4.2,6.2,4.2c24-0.1,48.1,0,72.1,0
			c20.2,0,40.4,0.1,60.7,0.1c-2.7,10.5-6.5,20.6-10.9,30.5c-2.6,5.9-5.1,11.7-8.5,17.2c-0.4,0.7-0.4,1.6-0.6,2.5
			c-1.4,0-2.7,0.1-4.1,0.1c-47.1,0-94.2,0-141.3,0c-6.3,0-7-0.7-7-7c0-85.2,0-170.4,0-255.6c0-11.1,0-22.2,0-33.3
			c0-4.8,0.5-5.3,5.3-5.3c45.1,0,90.2,0,135.3,0c16.8,23.3,27.9,49.1,34.8,76.9c-1.6,0-3.2,0.1-4.8,0.1c-42.9,0-85.8,0-128.7,0
			c-1,0-2,0-3,0c-3.1,0.1-5.1,1.8-5.5,4.8c-0.4,3.2,0.8,5.5,4.1,6.5c1.6,0.5,3.2,0.4,4.8,0.4c45.4,0,90.7,0.1,136.1,0.1
			c1.4,8,2.8,16,4.1,24.1c0.3,1.6,0.2,3.2,0.2,4.7c-1.6,0-3.2,0.1-4.8,0.1c-45.3,0-90.5,0-135.8,0c-1.2,0-2.5-0.1-3.7,0
			c-3.3,0.4-5.4,2.8-5.2,6c0.2,3.2,2,4.9,5.6,5.1c1.1,0.1,2.2,0,3.3,0c45.8,0,91.5,0,137.3,0c1.6,0,3.2,0.1,4.8,0.2
			c1.3,8.2,0.2,16.6,1.3,24.9c0.2,1.4-0.4,2.9-0.6,4.3c-1.5,0-3,0.1-4.4,0.1c-46.1,0-92.2,0-138.4,0c-1.2,0-2.5-0.1-3.7,0
			c-3.2,0.2-5.4,2.7-5.2,5.9c0.2,3.4,2.6,5.2,7.1,5.2c46.6,0,93.2,0,139.8,0c1.6,0,3.2,0.1,4.8,0.1c0.6,9.8-1.3,19.4-1.5,29.1
			c-1.6,0.1-3.2,0.2-4.8,0.2c-45.9,0-91.7,0-137.6,0c-1.7,0-3.5-0.4-5,0.7c-2.3,1.5-3.4,3.7-2.6,6.4c0.9,3.1,3.3,4.2,6.5,4.2
			c35.3-0.1,70.5-0.1,105.8,0C334.3,213,346.1,213.1,358,213.1z"/>
		<path class="st1" d="M107.9,82c-1.4-7.9-3-15.8-4.3-23.8c-0.5-3.1,1.5-4.6,4.5-5.1c12.9-2.2,25.7-4.4,38.6-6.6
			c4.6-0.8,9.1-1.5,13.7-2.2c0,89.5,0,179.1,0,268.6c0,5,0.9,5.9,6.1,5.9c31.3,0,62.6,0,94,0c1.4,0,3-0.6,4.2,0.7
			c-14.5,2.5-29,4.9-43.5,7.4c-21.1,3.6-42.3,7.2-63.4,10.9c-4.6,0.8-6.2-0.3-7-5.1c-2.7-16.6-5.5-33.1-8.4-49.7
			c-3.6-20.6-7.3-41.3-10.8-61.9c-4.1-23.9-8-47.9-12.1-71.8C115.7,126.9,111.8,104.4,107.9,82z"/>
		<path class="st2" d="M225.5,345.3c-8.5,3.9-17.4,6.5-26.2,9.7c-19.9,7.2-39.8,14.3-59.7,21.5c-4.7,1.7-6.4,1.1-8.1-3.7
			c-10.2-28.3-20.4-56.7-30.6-85c-16.3-45.3-32.7-90.7-49-136c-4.8-13.2-9.5-26.4-14.2-39.6c-1.6-4.6-1-5.8,3.6-7.4
			c15-5.2,30-10.5,44.9-15.7c1.5-0.5,3.1-0.9,4.6-1.3c2.5,14.2,5,28.4,7.4,42.7c2.7,15.4,5.4,30.9,8,46.3c2.3,13.5,4.5,27,6.8,40.6
			c2.3,13.5,4.6,27,6.9,40.5c2.6,15,5.2,29.9,7.8,44.8c2.9,16.9,5.8,33.8,8.8,50.6c0.9,5.1,2.7,6.2,7.7,5.2c3.4-0.7,6.7-1.4,10.1-2
			c20-3.4,40-7,60.1-10.2C218.1,345.8,221.7,344.1,225.5,345.3z"/>
		<path class="st4" d="M225.5,345.3c-3.8-1.2-7.4,0.5-11.1,1.1c-20.1,3.2-40.1,6.7-60.1,10.2c-3.4,0.6-6.7,1.3-10.1,2
			c-5,1-6.8-0.1-7.7-5.2c-3-16.9-5.8-33.8-8.8-50.6c-2.6-15-5.2-29.9-7.8-44.8c-2.3-13.5-4.7-27-6.9-40.5c-2.3-13.5-4.5-27-6.8-40.6
			c-2.6-15.4-5.3-30.9-8-46.3c-2.5-14.2-5-28.4-7.4-42.7c5.5-2.4,11.2-4.3,17-5.9c3.9,22.5,7.8,44.9,11.7,67.4
			c4.1,23.9,8,47.9,12.1,71.8c3.5,20.7,7.3,41.3,10.8,61.9c2.9,16.5,5.6,33.1,8.4,49.7c0.8,4.7,2.4,5.9,7,5.1
			c21.1-3.7,42.3-7.3,63.4-10.9c14.5-2.5,29-4.9,43.5-7.4c16.6-2.8,33.2-5.7,49.8-8.5c1.5-0.3,3.4-1.4,4.3,1.1
			c-14.1,5.1-28.1,10.3-42.2,15.4c-14.2,5.1-28.5,10.2-42.7,15.2C231.1,343.7,228.3,344.4,225.5,345.3z"/>
		<path class="st2" d="M318.8,312.1c-0.9-2.5-2.8-1.3-4.3-1.1c-16.6,2.8-33.2,5.7-49.8,8.5c-1.2-1.2-2.8-0.7-4.2-0.7
			c-31.3,0-62.6,0-94,0c-5.2,0-6.1-0.9-6.1-5.9c0-89.5,0-179.1,0-268.6c5.4-1,10.8-1.9,16.3-2.9c0,85.2,0,170.4,0,255.6
			c0,6.2,0.8,7,7,7c47.1,0,94.2,0,141.3,0c1.4,0,2.7,0,4.1-0.1c6.6,0,13.2,0,19.8,0.1c1.3,0,2.7-0.5,3.8,0.6
			C341.2,306.4,329.7,307.7,318.8,312.1z"/>
		<path class="st4" d="M355.1,91.6c-45.4,0-90.7,0-136.1-0.1c-1.6,0-3.2,0.1-4.8-0.4c-3.3-1-4.6-3.3-4.1-6.5
			c0.4-3.1,2.4-4.7,5.5-4.8c1,0,2,0,3,0c42.9,0,85.8,0,128.7,0c1.6,0,3.2-0.1,4.8-0.1c8.5,0,17,0,25.4,0.1c4.7,0,7.1,1.9,7.1,5.6
			c0,3.9-2.5,6.1-7.1,6.2C370.1,91.6,362.6,91.6,355.1,91.6z"/>
		<path class="st5" d="M360.9,131.8c-1.6-0.1-3.2-0.2-4.8-0.2c-45.8,0-91.5,0-137.3,0c-1.1,0-2.2,0-3.3,0c-3.5-0.2-5.4-1.9-5.6-5.1
			c-0.2-3.2,1.9-5.6,5.2-6c1.2-0.1,2.5,0,3.7,0c45.3,0,90.5,0,135.8,0c1.6,0,3.2-0.1,4.8-0.1c6.2,0,12.3,0,18.5,0.1
			c4.2,0,6.6,2.1,6.7,5.7c0.1,3.4-2.4,5.4-6.7,5.5C372.2,131.7,366.6,131.8,360.9,131.8z"/>
		<path class="st5" d="M361.7,172.5c-1.6-0.1-3.2-0.1-4.8-0.1c-46.6,0-93.2,0-139.8,0c-4.5,0-6.9-1.8-7.1-5.2
			c-0.2-3.2,2-5.7,5.2-5.9c1.2-0.1,2.5,0,3.7,0c46.1,0,92.2,0,138.4,0c1.5,0,3-0.1,4.4-0.1c5.4,0,10.8,0,16.2,0.1
			c4.2,0,6.6,2.1,6.7,5.7c0.1,3.4-2.4,5.5-6.7,5.5C372.5,172.4,367.1,172.4,361.7,172.5z"/>
		<path class="st5" d="M358,213.1c-11.8,0-23.7-0.1-35.5-0.1c-35.3,0-70.5,0-105.8,0c-3.3,0-5.6-1.1-6.5-4.2
			c-0.8-2.6,0.3-4.8,2.6-6.4c1.6-1.1,3.3-0.7,5-0.7c45.9,0,91.7,0,137.6,0c1.6,0,3.2-0.1,4.8-0.2c6,0.1,12.1,0.1,18.1,0.2
			c3.8,0,6.4,2.3,6.4,5.6s-2.5,5.5-6.4,5.6C371.5,213,364.7,213.1,358,213.1z"/>
		<path class="st5" d="M349.1,253.8c-20.2,0-40.4-0.1-60.7-0.1c-24,0-48.1,0-72.1,0c-3.1,0-5.3-1.3-6.2-4.2
			c-0.8-2.7,0.3-4.8,2.6-6.4c1.6-1.1,3.3-0.7,5-0.7c37.7,0,75.5,0,113.2,0c7.3,0,14.5-0.1,21.8-0.2c8.4,0.1,16.7,0.1,25.1,0.2
			c4.3,0,6.8,2.1,6.7,5.5c-0.1,3.6-2.5,5.6-6.7,5.7C368.3,253.7,358.7,253.8,349.1,253.8z"/>
	</g>
	<g>
		<g class="st6">
			<path class="st7" d="M146.4,448.3h-12.7v43.6h-7.2v-43.6h-12.7v-6.5h32.5V448.3z"/>
			<path class="st7" d="M184.9,473.8c0,10.5-8.1,19.1-19.1,19.1c-11,0-19.1-8.6-19.1-19.1s8.1-19.1,19.1-19.1
				C176.8,454.7,184.9,463.3,184.9,473.8z M178.3,473.8c0-7.5-5.2-12.9-12.4-12.9s-12.3,5.4-12.3,12.9c0,7.4,5.2,12.8,12.3,12.8
				S178.3,481.2,178.3,473.8z"/>
			<path class="st7" d="M201,461.8v15.9c0,5.2,0.1,8.6,5.7,8.6c1.1,0,1.9-0.1,2.7-0.1v5.7c-0.9,0.2-2.1,0.4-3.5,0.4
				c-7.9,0-11.4-4.2-11.4-12.2v-18.3h-5.7v-6.2h5.7V448h6.5v7.6h8.4v6.2H201z"/>
			<path class="st7" d="M246.8,470v21.9h-6.5v-5c-1.6,2.8-6.2,5.9-11.9,5.9c-6.9,0-12.9-4.2-12.9-10.7c0-11.4,13.8-11.7,18.9-11.7
				c1.9,0,4.9,0,5.9,0c0-5.5-1.1-9.8-8.7-9.8c-3.8,0-7.8,1.9-9.4,3.2l-4.6-3.5c4-3.7,9.5-5.7,15.3-5.7
				C243.4,454.7,246.8,461.3,246.8,470z M240.3,475.6c-0.2,0-2.1,0-2.5,0c-6.7,0-15.5-0.1-15.5,6.3c0,2.8,1.8,5.7,7.6,5.7
				c6.2,0,10-4.4,10.5-6V475.6z"/>
			<path class="st7" d="M262.7,441.8v50.2h-6.5v-50.2H262.7z"/>
			<path class="st7" d="M327,441.8v50.2h-6.5v-5.1c-2.7,3.4-6.9,6-13.2,6c-11.3,0-18.1-9.5-18.1-19.1s6.8-19.1,18.1-19.1
				c6.3,0,10.5,2.6,13.2,5.9v-18.9H327z M320.5,473.8c0-7.2-4.6-12.9-12.5-12.9c-7.5,0-12,5.6-12,12.9s4.5,12.8,12,12.8
				C315.9,486.6,320.5,481,320.5,473.8z"/>
			<path class="st7" d="M370,476.6h-28.9c1,5.9,5.4,10,12.5,10c3.9,0,7.5-1.5,9.5-4.1l5.4,3.4c-3.2,4.4-8.5,6.9-14.9,6.9
				c-12,0-19.5-8.6-19.5-19.1s7.7-19.1,18.4-19.1C362.5,454.7,371.7,463,370,476.6z M363.4,471c-0.9-6.2-4.7-10.1-10.8-10.1
				c-6.2,0-10.5,4.1-11.5,10.1H363.4z"/>
		</g>
		<g class="st6">
			<path class="st7" d="M112.3,511.1v50.2h-11.6v-3.5c-2.1,2.6-5.4,4.4-10.2,4.4c-11.3,0-17.4-9.5-17.4-19.1S79.1,524,90.5,524
				c4.9,0,8.1,1.9,10.2,4.4v-17.4H112.3z M100.3,543.1c0-4.9-3.4-7.8-7.8-7.8c-4.8,0-7.7,3.3-7.7,7.8c0,4.4,2.9,7.7,7.7,7.7
				C96.9,550.8,100.3,547.9,100.3,543.1z"/>
			<path class="st7" d="M155.6,546.6h-26.2c1.2,4.2,4.7,6.2,9.1,6.2c3.7,0,6.3-1.8,7.5-3.2l8.2,4.9c-2.9,4.5-8.5,7.7-15.6,7.7
				c-12.3,0-20.4-7.7-20.4-19.1c0-10.7,8.4-19.1,18.8-19.1C147.6,524,157,531.3,155.6,546.6z M145.1,539.6c-0.9-4.2-3.9-6.2-7.9-6.2
				c-3.7,0-6.7,2.2-7.8,6.2H145.1z"/>
			<path class="st7" d="M196.4,538.5v22.7h-11.7v-19.6c0-4.2-2.6-6.2-5.8-6.2c-3.4,0-5.8,2.2-5.8,6.2v19.6h-11.6v-36.3h11.6v3.4
				c2.1-2.4,5.2-4.2,10-4.2C192.1,524,196.4,531.2,196.4,538.5z"/>
			<path class="st7" d="M239.2,524.9v36.3h-11.7v-3.3c-2,2.4-5.2,4.2-9.9,4.2c-9.1,0-13.3-7.2-13.3-14.5v-22.8h11.6v19.6
				c0,4.2,2.7,6.2,5.8,6.2c3.4,0,5.8-2.2,5.8-6.2v-19.6H239.2z"/>
			<path class="st7" d="M282,538.5v22.7h-11.7v-19.6c0-4.2-2.6-6.2-5.8-6.2c-3.4,0-5.8,2.2-5.8,6.2v19.6h-11.6v-36.3h11.6v3.4
				c2.1-2.4,5.2-4.2,10-4.2C277.7,524,282,531.2,282,538.5z"/>
			<path class="st7" d="M313.7,547.5l10,6c-3.3,5.2-9.3,8.7-16.6,8.7c-11.3,0-19.5-8.3-19.5-19.1c0-10.8,8.2-19.1,19.5-19.1
				c7.2,0,13.3,3.4,16.6,8.7l-10,6c-1.4-2.1-3.7-3.4-6.5-3.4c-4.7,0-7.7,3.6-7.7,7.8s3.1,7.7,7.7,7.7
				C310.1,550.8,312.4,549.5,313.7,547.5z"/>
			<path class="st7" d="M328.1,514.7c0-3.4,2.7-6.1,6.1-6.1c3.4,0,6.1,2.7,6.1,6.1c0,3.4-2.7,6.2-6.1,6.2
				C330.8,520.9,328.1,518.1,328.1,514.7z M328.4,524.9H340v36.3h-11.6V524.9z"/>
			<path class="st7" d="M379.7,538.6v22.6h-11.6v-3.4c-1.9,2.8-6.2,4.3-10,4.3c-4.9,0-12.4-1.9-12.4-10.7c0-12,15.6-12,18.1-12
				c1.6,0,3.5,0,4.3,0v-0.1c0-3.4-1.7-5.9-5.9-5.9c-2.9,0-5.4,1.1-6.9,2.3l-7.6-5.2c3.9-4.2,9.4-6.5,16.3-6.5
				C375.6,524,379.7,530,379.7,538.6z M368.1,545.2c-0.3,0-0.6,0-0.9,0c-5.8,0-9.7,1.1-9.7,4.7c0,2.7,2.1,3.7,4.7,3.7
				s4.9-1.2,5.9-2.6V545.2z"/>
			<path class="st7" d="M416.8,550c0,7.7-5.7,12.2-16.3,12.2c-7.3,0-14.3-2.4-15.8-8.7l10.5-3.3c0.4,1.4,1.9,2.9,5.2,2.9
				c2.4,0,4.4-0.7,4.4-2.6c0-2.5-3.8-2.4-8.1-3.3c-7-1.6-10.7-4.1-10.7-11.2c0-7.6,6.5-12,15.6-12c6.2,0,12.4,3.1,14,9.2l-9.7,2.4
				c-0.4-1.7-2-2.7-4.2-2.7c-2.3,0-4.4,0.6-4.4,2.7c0,2.4,3.9,2.5,6.8,3.1C413.2,540.6,416.8,543.3,416.8,550z"/>
		</g>
		<g class="st6">
			<path class="st7" d="M76.5,598.3c0,11.8-9,17.3-19.9,17.3h-6.4v14.8H37.9v-50.2h18.7C69,580.4,76.5,587.5,76.5,598.3z M64,598.3
				c0-3.9-2.7-6.4-7.5-6.4h-6.4v12.8h6.4C61,604.7,64,602.7,64,598.3z"/>
			<path class="st7" d="M105.6,593.3v12.5c-10.3-1.6-11.5,4.3-11.5,10.4v14.3H82.6v-36.3h11.6v5.5
				C96.7,595.6,101.3,593.3,105.6,593.3z"/>
			<path class="st7" d="M146,615.9h-26.2c1.2,4.2,4.7,6.2,9.1,6.2c3.7,0,6.3-1.8,7.5-3.2l8.2,4.9c-2.9,4.5-8.5,7.7-15.6,7.7
				c-12.3,0-20.4-7.7-20.4-19.1c0-10.7,8.4-19.1,18.8-19.1C138,593.3,147.5,600.6,146,615.9z M135.5,608.9c-0.9-4.2-3.9-6.2-7.9-6.2
				c-3.7,0-6.7,2.2-7.8,6.2H135.5z"/>
			<path class="st7" d="M181.2,619.3c0,7.7-5.7,12.2-16.3,12.2c-7.3,0-14.3-2.4-15.8-8.7l10.5-3.3c0.4,1.4,1.9,2.9,5.2,2.9
				c2.4,0,4.4-0.7,4.4-2.6c0-2.5-3.8-2.4-8.1-3.3c-7-1.6-10.7-4.1-10.7-11.2c0-7.6,6.5-12,15.6-12c6.2,0,12.4,3.1,14,9.2l-9.7,2.4
				c-0.4-1.7-2-2.7-4.2-2.7c-2.3,0-4.4,0.6-4.4,2.7c0,2.4,3.9,2.5,6.8,3.1C177.6,609.9,181.2,612.6,181.2,619.3z"/>
			<path class="st7" d="M222,615.9h-26.2c1.2,4.2,4.7,6.2,9.1,6.2c3.7,0,6.3-1.8,7.5-3.2l8.2,4.9c-2.9,4.5-8.5,7.7-15.6,7.7
				c-12.3,0-20.4-7.7-20.4-19.1c0-10.7,8.4-19.1,18.8-19.1C214,593.3,223.4,600.6,222,615.9z M211.5,608.9c-0.9-4.2-3.9-6.2-7.9-6.2
				c-3.7,0-6.7,2.2-7.8,6.2H211.5z"/>
			<path class="st7" d="M262.8,607.8v22.7h-11.7V611c0-4.2-2.6-6.2-5.8-6.2c-3.4,0-5.8,2.2-5.8,6.2v19.6h-11.6v-36.3h11.6v3.4
				c2.1-2.4,5.2-4.2,10-4.2C258.5,593.3,262.8,600.5,262.8,607.8z"/>
			<path class="st7" d="M284,603.8v11.5c0,3.8,1.4,5.7,4.9,5.7c0.9,0,1.6-0.1,2.2-0.2v9.7c-1.2,0.4-2.7,0.6-5,0.6
				c-11.2,0-13.8-7.6-13.8-14.7v-12.7h-4.5v-9.6h4.5v-7.6H284v7.6h7.2v9.6H284z"/>
			<path class="st7" d="M330.5,607.9v22.6h-11.6v-3.4c-1.9,2.8-6.2,4.3-10,4.3c-4.9,0-12.4-1.9-12.4-10.7c0-12,15.6-12,18.1-12
				c1.6,0,3.5,0,4.3,0v-0.1c0-3.4-1.7-5.9-5.9-5.9c-2.9,0-5.4,1.1-6.9,2.3l-7.6-5.2c3.9-4.2,9.4-6.5,16.3-6.5
				C326.4,593.3,330.5,599.3,330.5,607.9z M318.9,614.5c-0.3,0-0.6,0-0.9,0c-5.8,0-9.7,1.1-9.7,4.7c0,2.7,2.1,3.7,4.7,3.7
				s4.9-1.2,5.9-2.6V614.5z"/>
			<path class="st7" d="M375.5,580.4v50.2h-11.6V627c-2.1,2.6-5.4,4.4-10.2,4.4c-11.3,0-17.4-9.5-17.4-19.1s6.1-19.1,17.4-19.1
				c4.9,0,8.1,1.9,10.2,4.4v-17.4H375.5z M363.5,612.4c0-4.9-3.4-7.8-7.8-7.8c-4.8,0-7.7,3.3-7.7,7.8c0,4.4,2.9,7.7,7.7,7.7
				C360.1,620.1,363.5,617.2,363.5,612.4z"/>
			<path class="st7" d="M415.2,607.9v22.6h-11.6v-3.4c-1.9,2.8-6.2,4.3-10,4.3c-4.9,0-12.4-1.9-12.4-10.7c0-12,15.6-12,18.1-12
				c1.6,0,3.5,0,4.3,0v-0.1c0-3.4-1.7-5.9-5.9-5.9c-2.9,0-5.4,1.1-6.9,2.3l-7.6-5.2c3.9-4.2,9.4-6.5,16.3-6.5
				C411.1,593.3,415.2,599.3,415.2,607.9z M403.6,614.5c-0.3,0-0.6,0-0.9,0c-5.8,0-9.7,1.1-9.7,4.7c0,2.7,2.1,3.7,4.7,3.7
				s4.9-1.2,5.9-2.6V614.5z"/>
			<path class="st7" d="M452.3,619.3c0,7.7-5.7,12.2-16.3,12.2c-7.3,0-14.3-2.4-15.8-8.7l10.5-3.3c0.4,1.4,1.9,2.9,5.2,2.9
				c2.4,0,4.4-0.7,4.4-2.6c0-2.5-3.8-2.4-8.1-3.3c-7-1.6-10.7-4.1-10.7-11.2c0-7.6,6.5-12,15.6-12c6.2,0,12.4,3.1,14,9.2l-9.7,2.4
				c-0.4-1.7-2-2.7-4.2-2.7c-2.3,0-4.4,0.6-4.4,2.7c0,2.4,3.9,2.5,6.8,3.1C448.6,609.9,452.3,612.6,452.3,619.3z"/>
		</g>
	</g>
</g>
</svg>
