<?xml version="1.0" encoding="utf-8"?>
<!-- Generator: Adobe Illustrator 26.5.2, SVG Export Plug-In . SVG Version: 6.00 Build 0)  -->
<svg version="1.1" id="Capa_1" xmlns="http://www.w3.org/2000/svg" xmlns:xlink="http://www.w3.org/1999/xlink" x="0px" y="0px"
	 viewBox="0 0 533.5 711" style="enable-background:new 0 0 533.5 711;" xml:space="preserve">
<style type="text/css">
	.st0{fill:#8079B2;}
	.st1{fill:#FEFEFE;}
	.st2{fill:#F4F4F5;}
	.st3{fill:#95B0E5;}
	.st4{fill:#EAE8EA;}
	.st5{fill:#F4DD81;}
	.st6{fill:#AEC9FB;}
	.st7{fill:#9C96A0;}
	.st8{fill:#9E99A3;}
	.st9{fill:#F1CE6B;}
	.st10{fill:#F0CD6B;}
	.st11{fill:#635E67;}
	.st12{fill:#545057;}
	.st13{fill:#86808B;}
	.st14{fill:#E5E9F5;}
	.st15{fill:#D7DEF0;}
</style>
<g>
	<path class="st0" d="M532.5,392.5v279.8c0,20.3-21.5,36.7-48,36.7H49c-26.5,0-48-16.4-48-36.7l0-276c0-117.2,127.6-213,280.7-206.5
		C421.5,195.7,532.5,284.2,532.5,392.5"/>
	<g>
		<g>
			<path class="st1" d="M137.4,429.2v47h-5.8l-24.4-34.7v34.7h-6.7v-47h5.8l24.4,34.7v-34.7H137.4z"/>
			<path class="st1" d="M176.2,442.1v34h-6.1v-4.7c-2,3-5.4,5.6-10.5,5.6c-7.7,0-13.1-6.4-13.1-13.6v-21.4h6.1v19.5
				c0,4.8,2,9.5,8.4,9.5c6.4,0,9.1-5.5,9.1-9.5v-19.5H176.2z M169.5,427.3l-6.5,9.4h-4.5l4.4-9.4H169.5z"/>
			<path class="st1" d="M232.8,453.7v22.5h-6.1v-20.7c0-4.8-2.4-8.4-7.3-8.4c-4.8,0-7.5,4-7.5,8.4v20.7h-6.1v-20.7
				c0-4.8-2.4-8.4-7.3-8.4c-4.8,0-7.5,4-7.5,8.4v20.7h-6.1v-34h6.1v4c1.9-2.7,4.8-4.8,9.1-4.8c4.1,0,7.7,2.1,9.8,5.5
				c2.1-3,5.8-5.5,10.9-5.5C227.3,441.3,232.8,446.5,232.8,453.7z"/>
			<path class="st1" d="M273.1,461.8H246c0.9,5.6,5.1,9.4,11.8,9.4c3.7,0,7.1-1.4,8.9-3.8l5,3.2c-3,4.1-8,6.4-14,6.4
				c-11.3,0-18.3-8.1-18.3-17.9c0-9.8,7.3-17.9,17.3-17.9C266,441.3,274.7,449.1,273.1,461.8z M266.9,456.5
				c-0.8-5.8-4.4-9.5-10.1-9.5c-5.8,0-9.8,3.8-10.7,9.5H266.9z"/>
			<path class="st1" d="M297.5,441.3v6.9c-10.1-1.2-11.3,6.4-11.3,12.7v15.2H280v-34h6.1v5.9C288.4,443.5,293.1,441.3,297.5,441.3z"
				/>
			<path class="st1" d="M336.6,459.2c0,9.8-7.6,17.9-17.9,17.9c-10.3,0-17.9-8.1-17.9-17.9c0-9.8,7.6-17.9,17.9-17.9
				C329,441.3,336.6,449.4,336.6,459.2z M330.3,459.2c0-7-4.9-12.1-11.6-12.1c-6.7,0-11.5,5.1-11.5,12.1c0,6.9,4.8,12,11.5,12
				C325.4,471.2,330.3,466.1,330.3,459.2z"/>
			<path class="st1" d="M394.8,429.2v47h-6.1v-4.8c-2.6,3.2-6.4,5.6-12.4,5.6c-10.6,0-17-8.9-17-17.9s6.4-17.9,17-17.9
				c5.9,0,9.8,2.4,12.4,5.6v-17.7H394.8z M388.7,459.2c0-6.7-4.3-12.1-11.8-12.1c-7.1,0-11.3,5.2-11.3,12.1s4.2,12,11.3,12
				C384.4,471.2,388.7,465.9,388.7,459.2z"/>
			<path class="st1" d="M435.1,461.8h-27.1c0.9,5.6,5.1,9.4,11.8,9.4c3.7,0,7.1-1.4,8.9-3.8l5,3.2c-3,4.1-8,6.4-14,6.4
				c-11.3,0-18.3-8.1-18.3-17.9c0-9.8,7.3-17.9,17.3-17.9C428.1,441.3,436.7,449.1,435.1,461.8z M429,456.5
				c-0.8-5.8-4.4-9.5-10.1-9.5c-5.8,0-9.8,3.8-10.7,9.5H429z"/>
			<path class="st1" d="M66.1,526.8H39c0.9,5.6,5.1,9.4,11.8,9.4c3.7,0,7.1-1.4,8.9-3.8l5,3.2c-3,4.1-8,6.4-14,6.4
				c-11.3,0-18.3-8.1-18.3-17.9c0-9.8,7.3-17.9,17.3-17.9C59,506.3,67.7,514.1,66.1,526.8z M59.9,521.5c-0.8-5.8-4.4-9.5-10.1-9.5
				c-5.8,0-9.8,3.8-10.7,9.5H59.9z"/>
			<path class="st1" d="M92.7,541.1l-8.3-12.3l-8.3,12.3h-7.5l11.9-17.5l-11.3-16.5h7.5l7.7,12l7.8-12h7.5l-11.4,16.6l12,17.5H92.7z
				"/>
			<path class="st1" d="M141.3,524.1c0,8.9-6.3,17.9-16.9,17.9c-5.9,0-9.9-2.4-12.4-5.6v17.7h-6.1v-47h6.1v4.8
				c2.6-3.2,6.5-5.6,12.4-5.6C135,506.3,141.3,515.2,141.3,524.1z M135.1,524.1c0-6.8-4.3-12.1-11.3-12.1c-7.5,0-11.8,5.4-11.8,12.1
				c0,6.7,4.3,12,11.8,12C130.8,536.2,135.1,531,135.1,524.1z"/>
			<path class="st1" d="M179.6,526.8h-27.1c0.9,5.6,5.1,9.4,11.8,9.4c3.7,0,7.1-1.4,8.9-3.8l5,3.2c-3,4.1-8,6.4-14,6.4
				c-11.3,0-18.3-8.1-18.3-17.9c0-9.8,7.3-17.9,17.3-17.9C172.6,506.3,181.2,514.1,179.6,526.8z M173.4,521.5
				c-0.8-5.8-4.4-9.5-10.1-9.5c-5.8,0-9.8,3.8-10.7,9.5H173.4z"/>
			<path class="st1" d="M220,494.1v47h-6.1v-4.8c-2.6,3.2-6.4,5.6-12.4,5.6c-10.6,0-17-8.9-17-17.9s6.4-17.9,17-17.9
				c5.9,0,9.8,2.4,12.4,5.6v-17.7H220z M213.9,524.1c0-6.7-4.3-12.1-11.8-12.1c-7.1,0-11.3,5.2-11.3,12.1s4.2,12,11.3,12
				C209.6,536.2,213.9,530.9,213.9,524.1z"/>
			<path class="st1" d="M228.3,497.5c0-1.9,1.5-3.5,3.5-3.5s3.5,1.6,3.5,3.5c0,1.9-1.5,3.5-3.5,3.5S228.3,499.5,228.3,497.5z
				 M228.7,507.1h6.2v34h-6.2V507.1z"/>
			<path class="st1" d="M275.2,526.8h-27.1c0.9,5.6,5.1,9.4,11.8,9.4c3.7,0,7.1-1.4,8.9-3.8l5,3.2c-3,4.1-8,6.4-14,6.4
				c-11.3,0-18.3-8.1-18.3-17.9c0-9.8,7.3-17.9,17.3-17.9C268.1,506.3,276.8,514.1,275.2,526.8z M269,521.5
				c-0.8-5.8-4.4-9.5-10.1-9.5c-5.8,0-9.8,3.8-10.7,9.5H269z"/>
			<path class="st1" d="M311.8,519.8v21.3h-6.1v-19.5c0-4.8-2-9.5-8.4-9.5c-6.4,0-9.1,5.6-9.1,9.5v19.5h-6.1v-34h6.1v4.8
				c2-3,5.4-5.6,10.5-5.6C306.4,506.3,311.8,512.7,311.8,519.8z"/>
			<path class="st1" d="M328.9,512.9v14.9c0,4.8,0.1,8.1,5.4,8.1c1,0,1.7-0.1,2.5-0.1v5.4c-0.9,0.2-1.9,0.3-3.3,0.3
				c-7.4,0-10.7-4-10.7-11.4v-17.1h-5.3v-5.8h5.3V500h6.1v7.1h7.9v5.8H328.9z"/>
			<path class="st1" d="M375.4,526.8h-27.1c0.9,5.6,5.1,9.4,11.8,9.4c3.7,0,7.1-1.4,8.9-3.8l5,3.2c-3,4.1-8,6.4-14,6.4
				c-11.3,0-18.3-8.1-18.3-17.9c0-9.8,7.3-17.9,17.3-17.9C368.3,506.3,377,514.1,375.4,526.8z M369.2,521.5
				c-0.8-5.8-4.4-9.5-10.1-9.5c-5.8,0-9.8,3.8-10.7,9.5H369.2z"/>
			<path class="st1" d="M406.3,530.9c0,6-4.3,11.1-13.4,11.1c-6.7,0-12.4-2.7-13.7-7.8l6-2c0.5,1.7,2.4,4.2,7.9,4.2
				c4.4,0,6.9-1.8,6.9-4.8c0-4-5.7-4-10.4-5c-6.4-1.4-9.1-4.5-9.1-9.5c0-6.2,5.2-10.7,12.6-10.7c5.5,0,10.4,2.8,11.6,7.9l-5.7,1.5
				c-0.6-1.9-2.6-3.9-6.4-3.9c-3.4,0-5.8,1.9-5.8,4.7c0,3.8,4.7,4.1,8.6,4.9C403.6,523.1,406.3,525.8,406.3,530.9z"/>
			<path class="st1" d="M462.4,526.8h-27.1c0.9,5.6,5.1,9.4,11.8,9.4c3.7,0,7.1-1.4,8.9-3.8l5,3.2c-3,4.1-8,6.4-14,6.4
				c-11.3,0-18.3-8.1-18.3-17.9c0-9.8,7.3-17.9,17.3-17.9C455.3,506.3,464,514.1,462.4,526.8z M456.2,521.5
				c-0.8-5.8-4.4-9.5-10.1-9.5c-5.8,0-9.8,3.8-10.7,9.5H456.2z"/>
			<path class="st1" d="M499,519.8v21.3h-6.1v-19.5c0-4.8-2-9.5-8.4-9.5c-6.4,0-9.1,5.6-9.1,9.5v19.5h-6.1v-34h6.1v4.8
				c2-3,5.4-5.6,10.5-5.6C493.6,506.3,499,512.7,499,519.8z"/>
			<path class="st1" d="M79.9,559.1v47h-6.1v-47H79.9z"/>
			<path class="st1" d="M116,585.5v20.5h-6.1v-4.7c-1.5,2.6-5.8,5.6-11.1,5.6c-6.4,0-12.1-3.9-12.1-10c0-10.7,13-10.9,17.7-10.9
				c1.7,0,4.6,0,5.5,0c0-5.2-1.1-9.2-8.1-9.2c-3.6,0-7.3,1.8-8.8,3l-4.3-3.3c3.8-3.4,8.9-5.3,14.3-5.3
				C112.7,571.2,116,577.4,116,585.5z M109.9,590.8c-0.2,0-1.9,0-2.4,0c-6.3,0-14.6-0.1-14.6,5.9c0,2.6,1.7,5.3,7.1,5.3
				c5.8,0,9.4-4.1,9.8-5.6V590.8z"/>
			<path class="st1" d="M181.8,559.1v28.7c0,12.9-7.3,19.1-19.6,19.1c-12.3,0-19.7-6.2-19.7-19.1v-28.7H154v27.6
				c0,6.2,3,9.2,8.1,9.2c5.1,0,8.1-3,8.1-9.2v-27.6H181.8z"/>
			<path class="st1" d="M222.2,584.8v21.3h-10.9v-18.3c0-3.9-2.4-5.8-5.4-5.8c-3.2,0-5.4,2.1-5.4,5.8v18.3h-10.9v-34h10.9v3.2
				c1.9-2.2,4.9-4,9.3-4C218.2,571.2,222.2,578,222.2,584.8z"/>
			<path class="st1" d="M229.3,562.5c0-3.2,2.6-5.7,5.7-5.7s5.7,2.6,5.7,5.7s-2.6,5.8-5.7,5.8S229.3,565.7,229.3,562.5z M229.6,572
				h10.9v34h-10.9V572z"/>
			<path class="st1" d="M282.6,559.1v47h-10.9v-3.3c-2,2.4-5,4.2-9.6,4.2c-10.6,0-16.3-8.9-16.3-17.9s5.7-17.9,16.3-17.9
				c4.6,0,7.6,1.7,9.6,4.2v-16.3H282.6z M271.4,589.1c0-4.6-3.2-7.3-7.3-7.3c-4.5,0-7.3,3.1-7.3,7.3c0,4.2,2.8,7.3,7.3,7.3
				C268.2,596.4,271.4,593.6,271.4,589.1z"/>
			<path class="st1" d="M319.8,584.9v21.2H309v-3.2c-1.8,2.6-5.8,4-9.3,4c-4.6,0-11.6-1.7-11.6-10c0-11.3,14.6-11.3,16.9-11.3
				c1.5,0,3.3,0,4,0v-0.1c0-3.2-1.6-5.5-5.6-5.5c-2.8,0-5.1,1.1-6.4,2.1l-7.1-4.8c3.7-3.9,8.8-6.1,15.3-6.1
				C316,571.2,319.8,576.8,319.8,584.9z M309,591.1c-0.3,0-0.6,0-0.9,0c-5.4,0-9.1,1-9.1,4.4c0,2.5,2,3.4,4.4,3.4
				c2.4,0,4.6-1.1,5.6-2.4V591.1z"/>
			<path class="st1" d="M362,559.1v47h-10.9v-3.3c-2,2.4-5,4.2-9.6,4.2c-10.6,0-16.3-8.9-16.3-17.9s5.7-17.9,16.3-17.9
				c4.6,0,7.6,1.7,9.6,4.2v-16.3H362z M350.8,589.1c0-4.6-3.2-7.3-7.3-7.3c-4.5,0-7.3,3.1-7.3,7.3c0,4.2,2.8,7.3,7.3,7.3
				C347.6,596.4,350.8,593.6,350.8,589.1z"/>
			<path class="st1" d="M421.6,559.1v47h-10.9v-3.3c-2,2.4-5,4.2-9.6,4.2c-10.6,0-16.3-8.9-16.3-17.9s5.7-17.9,16.3-17.9
				c4.6,0,7.6,1.7,9.6,4.2v-16.3H421.6z M410.4,589.1c0-4.6-3.2-7.3-7.3-7.3c-4.5,0-7.3,3.1-7.3,7.3c0,4.2,2.8,7.3,7.3,7.3
				C407.2,596.4,410.4,593.6,410.4,589.1z"/>
			<path class="st1" d="M462.2,592.4h-24.6c1.1,4,4.4,5.8,8.5,5.8c3.5,0,5.9-1.7,7-3l7.7,4.6c-2.8,4.2-8,7.2-14.6,7.2
				c-11.5,0-19.1-7.3-19.1-17.9c0-10.1,7.9-17.9,17.6-17.9C454.7,571.2,463.5,578.1,462.2,592.4z M452.3,585.8
				c-0.8-4-3.6-5.8-7.4-5.8c-3.4,0-6.3,2-7.3,5.8H452.3z"/>
			<path class="st1" d="M70.3,624v47H58.8v-47H70.3z"/>
			<path class="st1" d="M110.7,649.8v21.3H99.7v-18.3c0-3.9-2.4-5.8-5.4-5.8c-3.2,0-5.4,2.1-5.4,5.8v18.3H78v-34h10.9v3.2
				c1.9-2.2,4.9-4,9.3-4C106.7,636.2,110.7,642.9,110.7,649.8z"/>
			<path class="st1" d="M150.7,637l-13.2,34h-10.5l-13.2-34h11.6l6.9,21.8l6.9-21.8H150.7z"/>
			<path class="st1" d="M186.9,657.4h-24.6c1.1,4,4.4,5.8,8.5,5.8c3.5,0,5.9-1.7,7-3l7.7,4.6c-2.8,4.2-8,7.2-14.6,7.2
				c-11.5,0-19.1-7.3-19.1-17.9c0-10.1,7.9-17.9,17.6-17.9C179.4,636.2,188.3,643.1,186.9,657.4z M177,650.8c-0.8-4-3.6-5.8-7.4-5.8
				c-3.4,0-6.3,2-7.3,5.8H177z"/>
			<path class="st1" d="M219.9,660.5c0,7.2-5.3,11.4-15.2,11.4c-6.8,0-13.4-2.2-14.8-8.2l9.9-3.1c0.4,1.3,1.7,2.8,4.8,2.8
				c2.3,0,4.1-0.7,4.1-2.4c0-2.4-3.6-2.2-7.6-3.1c-6.5-1.5-10.1-3.8-10.1-10.5c0-7.1,6.1-11.2,14.6-11.2c5.8,0,11.6,2.9,13.1,8.7
				l-9.1,2.2c-0.4-1.6-1.9-2.5-3.9-2.5c-2.1,0-4.2,0.6-4.2,2.5c0,2.2,3.7,2.3,6.4,2.9C216.5,651.8,219.9,654.3,219.9,660.5z"/>
			<path class="st1" d="M237.3,646v10.7c0,3.6,1.3,5.4,4.6,5.4c0.9,0,1.5-0.1,2.1-0.2v9.1c-1.1,0.4-2.6,0.6-4.7,0.6
				c-10.5,0-12.9-7.1-12.9-13.8V646h-4.2v-9h4.2v-7.1h10.9v7.1h6.7v9H237.3z"/>
			<path class="st1" d="M250.8,627.5c0-3.2,2.6-5.7,5.7-5.7s5.7,2.6,5.7,5.7s-2.6,5.8-5.7,5.8S250.8,630.6,250.8,627.5z M251.1,637
				H262v34h-10.9V637z"/>
			<path class="st1" d="M304.2,637v31.1c0,9.7-7,16.5-19.1,16.5c-7.4,0-13.9-2.9-16.5-7.1l8.1-4.8c1.1,1.6,4,3.2,7.9,3.2
				c6.6,0,8.7-3.6,8.7-8.9v-1.5c-1.9,2.4-4.8,4.2-9.5,4.2c-10.4,0-16.4-7.7-16.4-16.7c0-8.9,5.9-16.7,16.4-16.7
				c4.6,0,7.7,1.9,9.5,4.5V637H304.2z M292.9,652.9c0-4.5-3.2-7.3-7.3-7.3c-4.5,0-7.3,3.1-7.3,7.3c0,4.2,2.8,7.3,7.3,7.3
				C289.7,660.1,292.9,657.4,292.9,652.9z"/>
			<path class="st1" d="M340.7,649.9v21.2h-10.9v-3.2c-1.8,2.6-5.8,4-9.3,4c-4.6,0-11.6-1.7-11.6-10c0-11.3,14.6-11.3,16.9-11.3
				c1.5,0,3.3,0,4,0v-0.1c0-3.2-1.6-5.5-5.6-5.5c-2.8,0-5.1,1.1-6.4,2.1l-7.1-4.8c3.7-3.9,8.8-6.1,15.3-6.1
				C336.9,636.2,340.7,641.8,340.7,649.9z M329.8,656.1c-0.3,0-0.6,0-0.9,0c-5.4,0-9.1,1-9.1,4.4c0,2.5,2,3.4,4.4,3.4
				c2.4,0,4.6-1.1,5.6-2.4V656.1z"/>
			<path class="st1" d="M370.4,658.2l9.4,5.6c-3.1,4.9-8.7,8.1-15.5,8.1c-10.6,0-18.3-7.8-18.3-17.9c0-10.1,7.7-17.9,18.3-17.9
				c6.8,0,12.4,3.2,15.5,8.1l-9.4,5.6c-1.3-1.9-3.4-3.2-6.1-3.2c-4.4,0-7.3,3.4-7.3,7.3s2.9,7.3,7.3,7.3
				C367,661.3,369.2,660,370.4,658.2z"/>
			<path class="st1" d="M383.9,627.5c0-3.2,2.6-5.7,5.7-5.7s5.7,2.6,5.7,5.7s-2.6,5.8-5.7,5.8S383.9,630.6,383.9,627.5z M384.2,637
				h10.9v34h-10.9V637z"/>
			<path class="st1" d="M437,654.1c0,10.1-7.6,17.9-18.3,17.9c-10.6,0-18.3-7.8-18.3-17.9c0-10.1,7.7-17.9,18.3-17.9
				C429.4,636.2,437,643.9,437,654.1z M426,654.1c0-4-2.9-7.3-7.3-7.3c-4.4,0-7.3,3.4-7.3,7.3s2.9,7.3,7.3,7.3
				C423.1,661.3,426,658,426,654.1z M429,622.9l-6.5,9.4h-8.7l4.4-9.4H429z"/>
			<path class="st1" d="M475.1,649.8v21.3h-10.9v-18.3c0-3.9-2.4-5.8-5.4-5.8c-3.2,0-5.4,2.1-5.4,5.8v18.3h-10.9v-34h10.9v3.2
				c1.9-2.2,4.9-4,9.3-4C471,636.2,475.1,642.9,475.1,649.8z"/>
		</g>
	</g>
	<g>
		<path class="st2" d="M158.6,6c64.1,0,128.1,0,192.2,0c0.1,0.8,0.5,1.2,1.2,1.5c10.1,4.2,14.3,12.1,14.3,22.7c0,8.7,0,17.4,0,26
			c-8.2,5-16,10.5-22.5,17.7c-20.8,23.2-25.7,57.8-12.1,85.7c3.8,7.7,8.9,14.3,14.2,20.9c-19.9,0-39.8,0.1-59.6,0
			c-1.4,0-2.8-0.4-4.2-0.6c-7.4-2.4-12-7.4-13.6-15.1c-0.9-4.5-2.1-8.9-3.3-13.3c-2.2-7.7-7.1-12.8-15.2-14.3
			c-6.6-1.1-13.3-0.4-20-0.4c-1.1,0-2.1-0.1-3.2-0.1c-27.7,0-55.4,0-83.1,0c0-36.7-0.1-73.4,0-110.1c0-6.7,3-12.1,8.4-16.2
			C154.3,8.9,157,8.2,158.6,6z M261.4,44.2c25.3,0,50.6,0,75.9,0c5.6,0,8.3-1.7,8.4-5.3c0.1-3.7-2.6-5.4-8.3-5.4
			c-50.9,0-101.7,0-152.6,0c-1.2,0-2.4-0.1-3.5,0.1c-2.9,0.4-4.4,2.1-4.5,5c-0.2,3.7,2.2,5.6,6.8,5.7
			C209.6,44.2,235.5,44.2,261.4,44.2z M244.9,76.8c16.7,0,33.4,0,50.1,0c4.2,0,8.5,0.1,12.7-0.1c3.6-0.1,5.5-2.6,5-6.2
			c-0.4-2.9-2.6-4.5-6.5-4.5c-40.9,0-81.9,0-122.8,0c-0.7,0-1.4,0-2.1,0.1c-3.5,0.7-5.4,4.4-4,7.6c1.2,2.7,3.6,3,6.2,3
			C203.9,76.8,224.4,76.8,244.9,76.8z M239.3,109.8c18.7,0,37.4,0,56.1,0c4.2,0,6.7-2.2,6.6-5.7c-0.1-3.2-2.5-5.3-6.5-5.5
			c-0.6,0-1.2,0-1.8,0c-36.4,0-72.7,0-109.1,0c-1.2,0-2.4-0.1-3.5,0.2c-2.3,0.6-4,2-4.4,4.5c-0.4,2.2,0.5,3.9,2.1,5.2
			c1.5,1.2,3.2,1.2,5,1.2C202.4,109.8,220.9,109.8,239.3,109.8z"/>
		<path class="st3" d="M392.6,48.5c39.7-5.6,79,22.3,86.3,63.1c0.4,2,0,4.3,1.3,6.1c0,5.9,0,11.8,0,17.7c-1.8,6.4-2.7,13-5.3,19.1
			c-11.9,27.6-32.4,44.1-62.3,48.8c-2,0.3-3.9,0.5-5.9,0.8c-4.5-0.5-9,0.6-13.4-0.7c0.4-0.2,0.7-0.6,1.1-0.7
			c18.6-3.5,33.9-12.4,46-27c10.6-12.8,16.4-27.5,17.8-43.9c1-11.9-0.8-23.6-5.5-34.7c-8.5-20-22.6-34.5-42.7-43.1
			C404.3,51.4,398.3,50.4,392.6,48.5z"/>
		<path class="st4" d="M373.4,6c0.1,1.5,1.4,1.7,2.4,2.2c8.3,4.3,12.2,11.3,12.4,20.4c0.2,6.8,0.1,13.6,0.1,20.4
			c-7.6,1.4-14.8,4.1-21.9,7.2c0-8.7,0-17.4,0-26c0-10.6-4.2-18.5-14.3-22.7c-0.8-0.3-1.2-0.7-1.2-1.5C358.3,6,365.9,6,373.4,6z"/>
		<path class="st5" d="M367.8,367.7c-2.1,0-4.2,0.1-6.4,0.1c-73.1,0-146.2-0.2-219.3,0.2c-13.5,0.1-24-10.6-24-23.8
			c0.3-60.4,0.4-120.8,0-181.2c-0.1-15.3,8.5-26.5,25.6-26.2c27.7,0,55.4,0,83.1,0c1.1,0,2.1,0.1,3.2,0.1c0.1,0.9,0.7,1.1,1.4,1.3
			c6.8,2.7,10.7,7.7,12.2,14.8c0.9,4.5,2.1,8.9,3.4,13.3c1.4,4.6,3.6,8.6,7.9,11.3c3.1,2,6.2,3.2,9.9,3c5.8-0.4,11.7,0.7,17.5-0.6
			c1.4,0.2,2.8,0.6,4.2,0.6c19.9,0,39.8,0,59.6,0c1.9,1.6,4,2.9,5.5,5c-2.5,4.1-5.2,8.2-7.1,12.7c-2.3,3.8-4.6,7.7-6.9,11.5
			c-6.9-2.2-11.1-1-14.2,4c-14.5,25.1-29.2,50.2-43.6,75.4c-7.4,13-2.6,27.2,11.1,34.6c12.4,5.3,25,1,31.9-11
			c13.9-24,27.7-47.9,41.6-71.9c4.3-7.5,3.8-11.2-2.4-17c2.2-3.8,4.4-7.7,6.5-11.5c2.9-4,5.2-8.3,7.4-12.7c3,0.8,6,1.6,8.9,2.4
			c0,1.8-0.1,3.5-0.1,5.3c0,46.2,0,92.4,0,138.6c0,3-0.6,5.8-1.8,8.5C380.1,361.4,374.3,365,367.8,367.7z"/>
		<path class="st6" d="M351.4,185.5c-1.4-2.1-3.6-3.4-5.5-5c-5.3-6.6-10.4-13.2-14.2-20.9c-13.7-27.9-8.7-62.5,12.1-85.7
			c6.5-7.3,14.3-12.7,22.5-17.7c7.1-3.1,14.3-5.8,21.9-7.2c1.4-0.1,2.8-0.9,4.3-0.5c5.7,1.9,11.7,2.9,17.4,5.3
			c20.1,8.6,34.2,23.1,42.7,43.1c4.7,11.1,6.5,22.8,5.5,34.7c-1.4,16.4-7.1,31.1-17.8,43.9c-12.1,14.6-27.4,23.5-46,27
			c-0.4,0.1-0.8,0.5-1.1,0.7c-2.8-0.4-5.6-0.8-8.4-1.2c-3-0.8-6-1.6-8.9-2.4C367.2,195.8,358.9,191.3,351.4,185.5z M392.5,78.8
			c-11.5,2.1-20.6,8-27.9,16.9c-12.4,15.4-13.8,37.1-4.3,53.8c7.3,13,18.7,20.3,32.9,23.8c1.3,0.3,2.5,0.7,3.8,0.7
			c16.9,1,31.4-4.2,42.4-17.5c10.3-12.4,13.7-26.7,9.7-42.2c-5-19.9-18.4-31.9-38.4-36.3C404.7,76.9,398.5,76.8,392.5,78.8z"/>
		<path class="st7" d="M261.4,44.2c-25.9,0-51.8,0-77.7,0c-4.7,0-7-1.9-6.8-5.7c0.1-2.9,1.6-4.6,4.5-5c1.2-0.2,2.4-0.1,3.5-0.1
			c50.9,0,101.7,0,152.6,0c5.6,0,8.3,1.7,8.3,5.4c0,3.6-2.8,5.3-8.4,5.3C312.1,44.2,286.7,44.2,261.4,44.2z"/>
		<path class="st7" d="M244.9,76.8c-20.5,0-40.9,0-61.4,0c-2.6,0-5-0.3-6.2-3c-1.4-3.2,0.5-6.9,4-7.6c0.7-0.1,1.4-0.1,2.1-0.1
			c40.9,0,81.9,0,122.8,0c3.9,0,6.1,1.6,6.5,4.5c0.5,3.5-1.4,6-5,6.2c-4.2,0.2-8.5,0.1-12.7,0.1C278.3,76.8,261.6,76.8,244.9,76.8z"
			/>
		<path class="st8" d="M239.3,109.8c-18.5,0-36.9,0-55.4,0c-1.8,0-3.5-0.1-5-1.2c-1.7-1.3-2.5-3.1-2.1-5.2c0.5-2.5,2.1-3.9,4.4-4.5
			c1.1-0.3,2.3-0.2,3.5-0.2c36.4,0,72.7,0,109.1,0c0.6,0,1.2,0,1.8,0c4,0.2,6.5,2.3,6.5,5.5c0.1,3.5-2.4,5.7-6.6,5.7
			C276.7,109.8,258,109.8,239.3,109.8z"/>
		<path class="st9" d="M282.2,180c-5.8,1.3-11.7,0.2-17.5,0.6c-3.7,0.3-6.8-1-9.9-3c-4.2-2.7-6.5-6.7-7.9-11.3
			c-1.3-4.4-2.5-8.8-3.4-13.3c-1.5-7.1-5.4-12.1-12.2-14.8c-0.7-0.3-1.3-0.5-1.4-1.3c6.7,0,13.4-0.7,20,0.4
			c8.2,1.4,13,6.5,15.2,14.3c1.3,4.4,2.4,8.8,3.3,13.3C270.2,172.6,274.8,177.5,282.2,180z"/>
		<path class="st10" d="M384.8,202c2.8,0.4,5.6,0.8,8.4,1.2c4.4,1.3,9,0.2,13.4,0.7c0,47.4,0,94.8,0,142.3
			c0,11.9-9.7,21.5-21.5,21.6c-5.8,0-11.5,0-17.3-0.1c6.5-2.8,12.3-6.3,15.1-13.3c1.1-2.8,1.8-5.5,1.8-8.5c0-46.2,0-92.4,0-138.6
			C384.7,205.6,384.8,203.8,384.8,202z"/>
		<path class="st11" d="M290.8,323.7c-13.7-7.4-18.5-21.6-11.1-34.6c14.3-25.3,29-50.3,43.6-75.4c1,1.6,2.6,2.3,4.1,3.1
			c4.1,2.5,8.4,4.7,12.4,7.3c5.9,3.8,6.8,9.4,3.3,15.5c-7.4,12.6-14.7,25.3-22,38c-6.7,11.7-13.5,23.3-20.1,35.1
			C298.4,317.3,294.2,320.1,290.8,323.7z"/>
		<path class="st12" d="M290.8,323.7c3.4-3.6,7.6-6.4,10.1-10.9c6.6-11.8,13.3-23.4,20.1-35.1c7.3-12.7,14.6-25.4,22-38
			c3.6-6.1,2.7-11.7-3.3-15.5c-4-2.6-8.3-4.9-12.4-7.3c-1.5-0.9-3.2-1.5-4.1-3.1c3.1-5,7.3-6.2,14.2-4c8,4.9,16.2,9.8,24.5,14.1
			c6.2,5.8,6.7,9.6,2.4,17c-13.9,24-27.7,48-41.6,71.9C315.8,324.8,303.2,329,290.8,323.7z"/>
		<path class="st13" d="M351.4,185.5c7.5,5.9,15.8,10.3,24.4,14.2c-2.3,4.3-4.6,8.7-7.4,12.7c-8.7-3.7-16.8-8.2-24.1-14.1
			C346.2,193.7,348.9,189.6,351.4,185.5z"/>
		<path class="st7" d="M344.3,198.2c7.3,5.9,15.5,10.5,24.1,14.1c-2.2,3.8-4.4,7.7-6.5,11.5c-8.4-4.4-16.5-9.2-24.5-14.1
			C339.7,205.8,342,202,344.3,198.2z"/>
		<path class="st14" d="M393.2,173.4c-14.2-3.5-25.5-10.8-32.9-23.8c-9.5-16.8-8.1-38.5,4.3-53.8c7.2-9,16.4-14.8,27.9-16.9
			c0.8,0.9,2.1,1,3.2,1.4c23.4,8,36.7,32,31.9,55.2c-3.3,15.9-12.7,27.4-27.5,34.4C397.8,170.9,394.7,170.8,393.2,173.4z"/>
		<path class="st15" d="M393.2,173.4c1.5-2.6,4.6-2.5,6.9-3.6c14.8-7,24.2-18.5,27.5-34.4c4.8-23.2-8.5-47.2-31.9-55.2
			c-1.1-0.4-2.3-0.4-3.2-1.4c6-2,12.2-1.9,18.3-0.6c20,4.4,33.3,16.3,38.4,36.3c3.9,15.5,0.5,29.7-9.7,42.2
			c-11,13.3-25.5,18.5-42.4,17.5C395.7,174.1,394.5,173.7,393.2,173.4z"/>
	</g>
</g>
</svg>
