<?xml version="1.0" encoding="utf-8"?>
<!-- Generator: Adobe Illustrator 26.5.2, SVG Export Plug-In . SVG Version: 6.00 Build 0)  -->
<svg version="1.1" id="Capa_1" xmlns="http://www.w3.org/2000/svg" xmlns:xlink="http://www.w3.org/1999/xlink" x="0px" y="0px"
	 viewBox="0 0 587.5 711" style="enable-background:new 0 0 587.5 711;" xml:space="preserve">
<style type="text/css">
	.st0{fill:#8079B2;}
	.st1{fill:#FEFEFE;}
	.st2{fill:#345A96;}
	.st3{fill:#EBF4FD;}
	.st4{fill:#DE9380;}
	.st5{fill:#D9E4E9;}
	.st6{fill:#B7C1CB;}
	.st7{fill:#9EACB4;}
	.st8{fill:#B1E3F9;}
</style>
<g>
	<path class="st0" d="M586,387.2v283.6c0,20.5-23.6,37.2-52.8,37.2H54.3c-29.2,0-52.8-16.7-52.8-37.2l0-279.8
		c0-118.8,140.3-215.9,308.7-209.3C464,187.8,586,277.4,586,387.2"/>
	<g>
		<g>
			<path class="st1" d="M162.7,424.3V472h-5.9l-24.7-35.1V472h-6.8v-47.6h5.9l24.7,35.1v-35.1H162.7z"/>
			<path class="st1" d="M202,437.5V472h-6.2v-4.8c-2,3.1-5.4,5.6-10.6,5.6c-7.8,0-13.3-6.5-13.3-13.8v-21.6h6.2v19.8
				c0,4.9,2,9.7,8.5,9.7c6.5,0,9.2-5.6,9.2-9.7v-19.8H202z M195.2,422.5l-6.6,9.5h-4.6l4.5-9.5H195.2z"/>
			<path class="st1" d="M259.4,449.2V472h-6.2v-21c0-4.9-2.4-8.5-7.4-8.5c-4.8,0-7.6,4.1-7.6,8.5v21H232v-21c0-4.9-2.4-8.5-7.4-8.5
				c-4.9,0-7.6,4.1-7.6,8.5v21h-6.2v-34.5h6.2v4.1c1.9-2.7,4.9-4.9,9.3-4.9c4.2,0,7.8,2.2,9.9,5.6c2.2-3.1,5.9-5.6,11-5.6
				C253.8,436.7,259.4,441.9,259.4,449.2z"/>
			<path class="st1" d="M300.2,457.4h-27.4c1,5.6,5.2,9.5,11.9,9.5c3.7,0,7.1-1.4,9.1-3.9l5.1,3.3c-3.1,4.2-8.1,6.5-14.2,6.5
				c-11.4,0-18.5-8.2-18.5-18.1s7.4-18.1,17.5-18.1C293,436.7,301.8,444.6,300.2,457.4z M293.9,452.1c-0.8-5.9-4.4-9.6-10.3-9.6
				c-5.9,0-9.9,3.9-10.9,9.6H293.9z"/>
			<path class="st1" d="M324.9,436.7v7c-10.2-1.2-11.5,6.5-11.5,12.9V472h-6.2v-34.5h6.2v6C315.7,438.8,320.5,436.7,324.9,436.7z"/>
			<path class="st1" d="M364.5,454.8c0,9.9-7.7,18.1-18.1,18.1c-10.4,0-18.1-8.2-18.1-18.1s7.7-18.1,18.1-18.1
				C356.8,436.7,364.5,444.8,364.5,454.8z M358.2,454.8c0-7.1-5-12.3-11.8-12.3c-6.8,0-11.7,5.2-11.7,12.3c0,7,4.9,12.2,11.7,12.2
				C353.2,467,358.2,461.8,358.2,454.8z"/>
			<path class="st1" d="M423.6,424.3V472h-6.2v-4.8c-2.6,3.3-6.5,5.7-12.5,5.7c-10.8,0-17.2-9.1-17.2-18.1c0-9.1,6.5-18.1,17.2-18.1
				c6,0,9.9,2.5,12.5,5.6v-18H423.6z M417.4,454.8c0-6.8-4.4-12.3-11.9-12.3c-7.1,0-11.4,5.3-11.4,12.3s4.3,12.2,11.4,12.2
				C413,467,417.4,461.6,417.4,454.8z"/>
			<path class="st1" d="M464.4,457.4H437c1,5.6,5.2,9.5,11.9,9.5c3.7,0,7.1-1.4,9.1-3.9l5.1,3.3c-3.1,4.2-8.1,6.5-14.2,6.5
				c-11.4,0-18.5-8.2-18.5-18.1s7.4-18.1,17.5-18.1C457.3,436.7,466.1,444.6,464.4,457.4z M458.2,452.1c-0.8-5.9-4.4-9.6-10.3-9.6
				c-5.9,0-9.9,3.9-10.9,9.6H458.2z"/>
			<path class="st1" d="M90.3,523.3H62.9c1,5.6,5.2,9.5,11.9,9.5c3.7,0,7.1-1.4,9.1-3.9l5.1,3.3c-3.1,4.2-8.1,6.5-14.2,6.5
				c-11.4,0-18.5-8.2-18.5-18.1s7.4-18.1,17.5-18.1C83.2,502.5,92,510.4,90.3,523.3z M84.1,518c-0.8-5.9-4.4-9.6-10.3-9.6
				c-5.9,0-9.9,3.9-10.9,9.6H84.1z"/>
			<path class="st1" d="M117.4,537.8l-8.4-12.5l-8.4,12.5h-7.6l12-17.8l-11.5-16.7h7.6l7.8,12.2l7.9-12.2h7.6l-11.6,16.8l12.1,17.7
				H117.4z"/>
			<path class="st1" d="M166.6,520.6c0,9.1-6.4,18.1-17.2,18.1c-6,0-10-2.5-12.6-5.7v18h-6.2v-47.6h6.2v4.8
				c2.6-3.2,6.6-5.6,12.6-5.6C160.3,502.5,166.6,511.6,166.6,520.6z M160.3,520.6c0-6.9-4.4-12.3-11.4-12.3c-7.6,0-12,5.4-12,12.3
				s4.4,12.2,12,12.2C156,532.8,160.3,527.6,160.3,520.6z"/>
			<path class="st1" d="M205.4,523.3H178c1,5.6,5.2,9.5,11.9,9.5c3.7,0,7.1-1.4,9.1-3.9l5.1,3.3c-3.1,4.2-8.1,6.5-14.2,6.5
				c-11.4,0-18.5-8.2-18.5-18.1s7.4-18.1,17.5-18.1C198.3,502.5,207.1,510.4,205.4,523.3z M199.2,518c-0.8-5.9-4.4-9.6-10.3-9.6
				c-5.9,0-9.9,3.9-10.9,9.6H199.2z"/>
			<path class="st1" d="M246.4,490.2v47.6h-6.2V533c-2.6,3.3-6.5,5.7-12.5,5.7c-10.8,0-17.2-9.1-17.2-18.1c0-9.1,6.5-18.1,17.2-18.1
				c6,0,9.9,2.5,12.5,5.6v-18H246.4z M240.2,520.6c0-6.8-4.4-12.3-11.9-12.3c-7.1,0-11.4,5.3-11.4,12.3s4.3,12.2,11.4,12.2
				C235.8,532.8,240.2,527.4,240.2,520.6z"/>
			<path class="st1" d="M254.8,493.7c0-1.9,1.6-3.5,3.5-3.5s3.5,1.6,3.5,3.5c0,2-1.6,3.5-3.5,3.5S254.8,495.6,254.8,493.7z
				 M255.2,503.3h6.3v34.5h-6.3V503.3z"/>
			<path class="st1" d="M302.3,523.3h-27.4c1,5.6,5.2,9.5,11.9,9.5c3.7,0,7.1-1.4,9.1-3.9l5.1,3.3c-3.1,4.2-8.1,6.5-14.2,6.5
				c-11.4,0-18.5-8.2-18.5-18.1s7.4-18.1,17.5-18.1C295.2,502.5,303.9,510.4,302.3,523.3z M296,518c-0.8-5.9-4.4-9.6-10.3-9.6
				c-5.9,0-9.9,3.9-10.9,9.6H296z"/>
			<path class="st1" d="M339.4,516.3v21.6h-6.2V518c0-4.8-2-9.7-8.5-9.7c-6.5,0-9.2,5.6-9.2,9.7v19.8h-6.2v-34.5h6.2v4.8
				c2-3.1,5.4-5.6,10.7-5.6C333.9,502.5,339.4,509,339.4,516.3z"/>
			<path class="st1" d="M356.7,509.3v15.1c0,4.9,0.1,8.2,5.4,8.2c1,0,1.8-0.1,2.5-0.1v5.4c-0.9,0.2-2,0.3-3.3,0.3
				c-7.5,0-10.8-4-10.8-11.6v-17.4h-5.4v-5.9h5.4v-7.2h6.2v7.2h8v5.9H356.7z"/>
			<path class="st1" d="M403.9,523.3h-27.4c1,5.6,5.2,9.5,11.9,9.5c3.7,0,7.1-1.4,9.1-3.9l5.1,3.3c-3.1,4.2-8.1,6.5-14.2,6.5
				c-11.4,0-18.5-8.2-18.5-18.1s7.4-18.1,17.5-18.1C396.7,502.5,405.5,510.4,403.9,523.3z M397.6,518c-0.8-5.9-4.4-9.6-10.3-9.6
				c-5.9,0-9.9,3.9-10.9,9.6H397.6z"/>
			<path class="st1" d="M435.2,527.5c0,6.1-4.4,11.2-13.5,11.2c-6.8,0-12.5-2.7-13.9-7.9l6.1-2c0.5,1.8,2.4,4.2,8,4.2
				c4.5,0,7-1.8,7-4.9c0-4-5.8-4-10.6-5.1c-6.5-1.4-9.3-4.6-9.3-9.7c0-6.3,5.2-10.8,12.7-10.8c5.6,0,10.6,2.9,11.8,8l-5.8,1.6
				c-0.6-1.9-2.7-3.9-6.5-3.9c-3.4,0-5.9,1.9-5.9,4.8c0,3.9,4.8,4.2,8.7,5C432.4,519.6,435.2,522.3,435.2,527.5z"/>
			<path class="st1" d="M492.1,523.3h-27.4c1,5.6,5.2,9.5,11.9,9.5c3.7,0,7.1-1.4,9.1-3.9l5.1,3.3c-3.1,4.2-8.1,6.5-14.2,6.5
				c-11.4,0-18.5-8.2-18.5-18.1s7.4-18.1,17.5-18.1C484.9,502.5,493.7,510.4,492.1,523.3z M485.8,518c-0.8-5.9-4.4-9.6-10.3-9.6
				c-5.9,0-9.9,3.9-10.9,9.6H485.8z"/>
			<path class="st1" d="M529.2,516.3v21.6H523V518c0-4.8-2-9.7-8.5-9.7c-6.5,0-9.2,5.6-9.2,9.7v19.8h-6.2v-34.5h6.2v4.8
				c2-3.1,5.4-5.6,10.7-5.6C523.7,502.5,529.2,509,529.2,516.3z"/>
			<path class="st1" d="M104.4,556v47.6h-6.2V556H104.4z"/>
			<path class="st1" d="M140.9,582.9v20.8h-6.2v-4.8c-1.6,2.7-5.9,5.6-11.3,5.6c-6.5,0-12.3-3.9-12.3-10.1c0-10.8,13.1-11.1,18-11.1
				c1.8,0,4.7,0,5.6,0c0-5.2-1.1-9.3-8.2-9.3c-3.6,0-7.4,1.8-8.9,3.1l-4.4-3.3c3.8-3.5,9.1-5.4,14.5-5.4
				C137.7,568.4,140.9,574.6,140.9,582.9z M134.7,588.2c-0.2,0-2,0-2.4,0c-6.4,0-14.8-0.1-14.8,6c0,2.7,1.7,5.4,7.2,5.4
				c5.9,0,9.5-4.2,9.9-5.7V588.2z"/>
			<path class="st1" d="M207.6,556v29.1c0,13.1-7.4,19.4-19.9,19.4c-12.5,0-19.9-6.3-19.9-19.4V556h11.7v28c0,6.3,3,9.3,8.2,9.3
				c5.2,0,8.2-3,8.2-9.3v-28H207.6z"/>
			<path class="st1" d="M248.6,582.1v21.6h-11.1v-18.6c0-3.9-2.5-5.9-5.5-5.9c-3.2,0-5.5,2.1-5.5,5.9v18.6h-11v-34.5h11v3.2
				c2-2.2,5-4,9.5-4C244.5,568.4,248.6,575.2,248.6,582.1z"/>
			<path class="st1" d="M255.8,559.5c0-3.2,2.6-5.8,5.8-5.8s5.8,2.6,5.8,5.8s-2.6,5.9-5.8,5.9S255.8,562.7,255.8,559.5z
				 M256.1,569.2h11v34.5h-11V569.2z"/>
			<path class="st1" d="M309.9,556v47.6h-11v-3.3c-2,2.5-5.1,4.2-9.7,4.2c-10.8,0-16.5-9.1-16.5-18.1c0-9.1,5.8-18.1,16.5-18.1
				c4.6,0,7.7,1.8,9.7,4.2V556H309.9z M298.5,586.5c0-4.6-3.3-7.4-7.4-7.4c-4.6,0-7.4,3.1-7.4,7.4c0,4.2,2.8,7.4,7.4,7.4
				C295.2,593.8,298.5,591,298.5,586.5z"/>
			<path class="st1" d="M347.6,582.2v21.4h-11v-3.2c-1.8,2.7-5.9,4.1-9.5,4.1c-4.6,0-11.8-1.8-11.8-10.1c0-11.4,14.8-11.4,17.2-11.4
				c1.6,0,3.3,0,4.1,0v-0.1c0-3.3-1.6-5.6-5.6-5.6c-2.8,0-5.2,1.1-6.5,2.2l-7.2-4.9c3.7-3.9,8.9-6.2,15.5-6.2
				C343.7,568.4,347.6,574,347.6,582.2z M336.5,588.5c-0.3,0-0.6,0-0.9,0c-5.5,0-9.2,1-9.2,4.5c0,2.5,2,3.5,4.4,3.5
				c2.4,0,4.7-1.2,5.6-2.5V588.5z"/>
			<path class="st1" d="M390.3,556v47.6h-11v-3.3c-2,2.5-5.1,4.2-9.7,4.2c-10.8,0-16.5-9.1-16.5-18.1c0-9.1,5.8-18.1,16.5-18.1
				c4.6,0,7.7,1.8,9.7,4.2V556H390.3z M378.9,586.5c0-4.6-3.3-7.4-7.4-7.4c-4.6,0-7.4,3.1-7.4,7.4c0,4.2,2.8,7.4,7.4,7.4
				C375.7,593.8,378.9,591,378.9,586.5z"/>
			<path class="st1" d="M450.7,556v47.6h-11v-3.3c-2,2.5-5.1,4.2-9.7,4.2c-10.8,0-16.5-9.1-16.5-18.1c0-9.1,5.8-18.1,16.5-18.1
				c4.6,0,7.7,1.8,9.7,4.2V556H450.7z M439.4,586.5c0-4.6-3.3-7.4-7.4-7.4c-4.6,0-7.4,3.1-7.4,7.4c0,4.2,2.8,7.4,7.4,7.4
				C436.1,593.8,439.4,591,439.4,586.5z"/>
			<path class="st1" d="M491.9,589.8h-24.9c1.2,4,4.4,5.9,8.6,5.9c3.5,0,6-1.7,7.1-3l7.8,4.6c-2.8,4.3-8.1,7.3-14.8,7.3
				c-11.6,0-19.4-7.4-19.4-18.1c0-10.2,8-18.1,17.8-18.1C484.2,568.4,493.2,575.3,491.9,589.8z M481.8,583.1c-0.8-4-3.7-5.9-7.5-5.9
				c-3.5,0-6.4,2-7.4,5.9H481.8z"/>
			<path class="st1" d="M87.6,655.6c0,7.8-6.7,14.8-18.7,14.8c-8.8,0-17.1-3.4-19.2-12.3l10.8-3.3c0.6,2.7,3.1,5.6,8.3,5.6
				c4,0,7-1.6,7-4.7c0-3.5-4.7-4.1-10.1-5.4c-9.5-2.3-13.8-6.7-13.8-14.7c0-9.1,7.6-14.6,17.5-14.6c8.2,0,15.1,4.4,16.9,11.9
				l-10.8,2.7c-0.6-2.3-2.6-4.6-6.7-4.6c-3.4,0-5.6,1.8-5.6,4.6c0,3.7,5.6,4.6,9.3,5.6C84.2,644.5,87.6,648.2,87.6,655.6z"/>
			<path class="st1" d="M125.8,635v34.5h-11.1v-3.1c-1.9,2.2-4.9,4-9.4,4c-8.6,0-12.7-6.8-12.7-13.8V635h11v18.7
				c0,3.9,2.5,5.9,5.5,5.9c3.3,0,5.5-2.1,5.5-5.9V635H125.8z"/>
			<path class="st1" d="M170.6,652.3c0,9.1-5.8,18.1-16.5,18.1c-4.6,0-7.7-1.8-9.7-4.2v3.3h-11v-47.6h11v16.5c2-2.5,5.1-4.2,9.7-4.2
				C164.8,634.2,170.6,643.3,170.6,652.3z M159.5,652.3c0-4.3-2.8-7.4-7.4-7.4c-4.2,0-7.4,2.8-7.4,7.4c0,4.6,3.2,7.4,7.4,7.4
				C156.7,659.7,159.5,656.5,159.5,652.3z"/>
			<path class="st1" d="M203.8,658.8c0,7.3-5.4,11.6-15.5,11.6c-6.9,0-13.6-2.2-15-8.3l10-3.1c0.4,1.4,1.8,2.8,4.9,2.8
				c2.3,0,4.2-0.7,4.2-2.5c0-2.4-3.6-2.2-7.7-3.1c-6.6-1.5-10.2-3.9-10.2-10.6c0-7.2,6.2-11.4,14.8-11.4c5.9,0,11.8,2.9,13.3,8.8
				l-9.3,2.2c-0.4-1.6-1.9-2.5-3.9-2.5c-2.2,0-4.2,0.6-4.2,2.5c0,2.2,3.7,2.4,6.5,2.9C200.4,650,203.8,652.5,203.8,658.8z"/>
			<path class="st1" d="M221.5,644.1V655c0,3.6,1.3,5.4,4.7,5.4c0.9,0,1.6-0.1,2.1-0.2v9.3c-1.2,0.4-2.6,0.6-4.8,0.6
				c-10.6,0-13.1-7.2-13.1-14v-12h-4.3V635h4.3v-7.2h11v7.2h6.8v9.1H221.5z"/>
			<path class="st1" d="M265.7,648.1v21.4h-11v-3.2c-1.8,2.7-5.9,4.1-9.5,4.1c-4.6,0-11.8-1.8-11.8-10.1c0-11.4,14.8-11.4,17.2-11.4
				c1.6,0,3.3,0,4.1,0v-0.1c0-3.3-1.6-5.6-5.6-5.6c-2.8,0-5.2,1.1-6.5,2.2l-7.2-4.9c3.7-3.9,8.9-6.2,15.5-6.2
				C261.8,634.2,265.7,639.9,265.7,648.1z M254.7,654.4c-0.3,0-0.6,0-0.9,0c-5.5,0-9.2,1-9.2,4.5c0,2.5,2,3.5,4.4,3.5
				s4.7-1.2,5.6-2.5V654.4z"/>
			<path class="st1" d="M306.3,648v21.6h-11.1V651c0-3.9-2.5-5.9-5.5-5.9c-3.2,0-5.5,2.1-5.5,5.9v18.6h-11V635h11v3.2
				c2-2.2,5-4,9.5-4C302.3,634.2,306.3,641,306.3,648z"/>
			<path class="st1" d="M336.5,656.5l9.5,5.7c-3.1,5-8.8,8.2-15.7,8.2c-10.8,0-18.5-7.9-18.5-18.1c0-10.3,7.8-18.1,18.5-18.1
				c6.9,0,12.6,3.2,15.7,8.2l-9.5,5.7c-1.3-2-3.5-3.3-6.2-3.3c-4.4,0-7.4,3.4-7.4,7.4c0,4,2.9,7.4,7.4,7.4
				C333,659.7,335.2,658.4,336.5,656.5z"/>
			<path class="st1" d="M350.2,625.4c0-3.2,2.6-5.8,5.8-5.8s5.8,2.6,5.8,5.8s-2.6,5.9-5.8,5.9S350.2,628.6,350.2,625.4z M350.5,635
				h11v34.5h-11V635z"/>
			<path class="st1" d="M399.2,648.1v21.4h-11v-3.2c-1.8,2.7-5.9,4.1-9.5,4.1c-4.6,0-11.8-1.8-11.8-10.1c0-11.4,14.8-11.4,17.2-11.4
				c1.6,0,3.3,0,4.1,0v-0.1c0-3.3-1.6-5.6-5.6-5.6c-2.8,0-5.2,1.1-6.5,2.2l-7.2-4.9c3.7-3.9,8.9-6.2,15.5-6.2
				C395.3,634.2,399.2,639.9,399.2,648.1z M388.2,654.4c-0.3,0-0.6,0-0.9,0c-5.5,0-9.2,1-9.2,4.5c0,2.5,2,3.5,4.4,3.5
				c2.4,0,4.7-1.2,5.6-2.5V654.4z"/>
			<path class="st1" d="M429.3,656.5l9.5,5.7c-3.1,5-8.8,8.2-15.7,8.2c-10.8,0-18.5-7.9-18.5-18.1c0-10.3,7.8-18.1,18.5-18.1
				c6.9,0,12.6,3.2,15.7,8.2l-9.5,5.7c-1.3-2-3.5-3.3-6.2-3.3c-4.4,0-7.4,3.4-7.4,7.4c0,4,2.9,7.4,7.4,7.4
				C425.9,659.7,428,658.4,429.3,656.5z"/>
			<path class="st1" d="M443,625.4c0-3.2,2.6-5.8,5.8-5.8s5.8,2.6,5.8,5.8s-2.6,5.9-5.8,5.9S443,628.6,443,625.4z M443.3,635h11
				v34.5h-11V635z"/>
			<path class="st1" d="M496.8,652.3c0,10.2-7.7,18.1-18.5,18.1c-10.8,0-18.5-7.9-18.5-18.1c0-10.3,7.8-18.1,18.5-18.1
				C489.1,634.2,496.8,642,496.8,652.3z M485.7,652.3c0-4-2.9-7.4-7.4-7.4c-4.4,0-7.4,3.4-7.4,7.4c0,4,2.9,7.4,7.4,7.4
				C482.8,659.7,485.7,656.3,485.7,652.3z M488.7,620.7l-6.6,9.5h-8.8l4.4-9.5H488.7z"/>
			<path class="st1" d="M535.4,648v21.6h-11.1V651c0-3.9-2.5-5.9-5.5-5.9c-3.2,0-5.5,2.1-5.5,5.9v18.6h-11V635h11v3.2
				c2-2.2,5-4,9.5-4C531.3,634.2,535.4,641,535.4,648z"/>
		</g>
	</g>
	<g>
		<path class="st2" d="M210.8,37.8c0.1-4.4,0.1-8.7,0.1-13.1c0.1-10.7,4.7-17.5,14.5-21.6c0.6-0.3,1.5-0.2,1.7-1.1c3.7,0,7.3,0,11,0
			c0.5,1.2,1.8,0.9,2.8,1.3c8.4,3.2,13.9,10.7,14,19.7c0.1,4.9,0.1,9.9,0.2,14.8c-0.1,5,0,9.9-0.2,14.9c-0.3,7.8-6.7,14.2-14.2,14.3
			c-3.5,0.1-5.9-1.7-6.3-4.7c-0.4-3.2,1.4-5.7,5.1-6.2c3.1-0.5,4.4-2.2,4.3-5.2c-0.1-4.4-0.1-8.7-0.1-13.1c0-4.9,0.3-9.7,0.1-14.6
			c-0.2-6.1-4.9-10.3-11.1-10.2c-6.1,0.1-10.6,4.4-10.7,10.5c-0.1,4.7,0,9.5,0.1,14.2c0,17.4-0.1,34.8-0.1,52.2
			c0,6,4.4,10.1,10.5,10.3c6.1,0.2,10.8-3.9,11.2-10.1c0.2-3,0-6.1,0.1-9.1c0.1-3.5,2.3-5.5,5.5-5.5c3.2,0,5.4,2.1,5.5,5.6
			c0.1,3,0.1,6.1,0,9.1c-0.2,9.2-5.8,16.9-14.4,19.9c-14.7,5.1-29.4-5.1-29.5-20.6C210.9,72.3,210.9,55.1,210.8,37.8z"/>
		<path class="st3" d="M281.9,37.8c30,0,60,0,89.9,0c6.8,3.6,8.8,9.3,8.8,16.8c-0.2,85.4-0.1,170.8-0.1,256.3c0,7.8,0,15.6,0,23.4
			c0,6.1-3.1,10.5-8.6,12.6c-2.1,0.6-4.3,0.7-6.5,0.7c-62.2,0-124.3,0-186.5,0c-4.7,0-9.5-0.3-14.2,0.1c-7.1,0.6-13.7-6.5-13.6-13.5
			c0.3-23,0.1-46,0.1-69c0-71.1,0-142.2,0-213.3c0-9.3,4.7-14,13.8-14c6.5,0,12.9,0.1,19.4,0.1c0,17.9-0.1,35.8-0.1,53.7
			c0,16.9,0,33.8,0,50.7c0,8.3,4.4,13.5,12,13.6c24.7,0.2,49.4,0.2,74.1,0.1c6.6,0,11.6-5.1,11.6-11.6
			C282,108.9,281.9,73.4,281.9,37.8z M307.6,300.7C307.6,300.7,307.6,300.8,307.6,300.7c15.7,0.1,31.4,0.1,47.1,0.1
			c6.1,0,9.1-3.1,9.2-9.2c0-6.8,0-13.6,0-20.4c0-6.7-3-9.7-9.8-9.8c-12.8-0.2-25.5,0.9-38.2,0.7c-19-0.2-38-0.1-56.9-0.1
			c-4.7,0-7.1,1.6-7.7,6.3c-1.1,8-0.9,16-0.2,24c0.6,6.7,3.1,8.4,9.9,8.4C276.4,300.7,292,300.7,307.6,300.7z M273.7,199.9
			c27.1,0,54.3,0,81.4,0c5.1,0,8.6-2.4,8.6-5.9c0-3.4-3.5-5.7-8.7-5.7c-54.1,0-108.1,0-162.2,0c-1,0-2-0.1-2.9,0
			c-3.1,0.4-5.6,3.1-5.6,5.8c0,2.8,2.6,5.4,5.7,5.7c1,0.1,1.9,0,2.9,0C219.9,199.9,246.8,199.9,273.7,199.9z M273.6,227
			c27.1,0,54.3,0,81.4,0c1.1,0,2.2,0.1,3.3-0.1c2.6-0.5,4.4-2.1,5.2-4.6c0.7-2.3-0.6-3.9-2.2-5.4c-1.3-1.2-3-0.9-4.5-0.9
			c-55.3,0-110.5,0-165.8,0c-0.6,0-1.2,0-1.8,0c-2.7,0.2-4.2,1.6-4.4,4.4c-0.4,4.4,1.9,6.6,7,6.6C219.1,227,246.3,227,273.6,227z
			 M184.6,281.2c0,3.5,0,7.1,0,10.6c0,0.2,0,0.5,0,0.7c0.2,5.1,2.7,7.7,7.7,7.8c6.7,0.2,13.4,0.2,20.1,0.2c5.9,0,8.7-2.9,8.8-8.8
			c0.1-7.1,0-14.1,0-21.2c0-6.1-2.8-8.9-8.9-9c-6.7,0-13.4,0.1-20.1,0.3c-4.8,0.1-7.3,2.7-7.5,7.6
			C184.5,273.4,184.6,277.3,184.6,281.2z M337.1,87.7C337.1,87.7,337.1,87.7,337.1,87.7c6.7,0,13.4,0.1,20,0
			c3.9-0.1,6.4-2.4,6.3-5.6c-0.1-3.1-2.5-5.3-6.2-5.3c-13.2-0.1-26.5,0-39.7,0c-2,0-3.8,0.6-5,2.4c-1.2,1.7-1.4,3.6-0.4,5.5
			c1.1,2.2,3.1,3,5.4,3C324,87.8,330.5,87.7,337.1,87.7z"/>
		<path class="st4" d="M281.9,37.8c0,35.5,0.1,71.1,0.1,106.6c0,6.5-4.9,11.6-11.6,11.6c-24.7,0.1-49.4,0.1-74.1-0.1
			c-7.6-0.1-11.9-5.2-12-13.6c-0.1-16.9,0-33.8,0-50.7c0-17.9,0.1-35.8,0.1-53.7c8.8-0.1,17.7-0.1,26.5-0.2
			c0.1,17.3,0,34.5,0.2,51.8c0.1,15.6,14.7,25.8,29.5,20.6c8.6-3,14.3-10.8,14.4-19.9c0.1-3,0.1-6.1,0-9.1c-0.1-3.4-2.3-5.6-5.5-5.6
			c-3.2,0-5.4,2.1-5.5,5.5c-0.1,3,0.1,6.1-0.1,9.1c-0.4,6.1-5.1,10.3-11.2,10.1c-6.1-0.2-10.5-4.3-10.5-10.3
			c-0.1-17.4,0-34.8,0.1-52.2c7.2,0,14.4,0,21.6,0c0,4.4,0.1,8.7,0.1,13.1c0,3-1.2,4.7-4.3,5.2c-3.7,0.6-5.5,3-5.1,6.2
			c0.4,3,2.8,4.8,6.3,4.7c7.5-0.1,13.9-6.6,14.2-14.3c0.2-5,0.1-9.9,0.2-14.9C264,37.8,273,37.8,281.9,37.8z"/>
		<path class="st5" d="M178.9,347.5c62.2,0,124.3,0,186.5,0c2.2,0,4.4-0.1,6.5-0.7c4,1.5,8.1,0.6,12.2,0.6
			c8.6,0.2,14.2-4.4,14.2-13.9c-0.2-87.6-0.1-175.1-0.1-262.7c0-1.5-0.6-3.2,0.6-4.6c0.5,0,1.1,0,1.6,0.1c7.3,3.2,8.8,9,8.8,16.6
			c-0.2,92.9-0.2,185.8,0,278.8c0,6.9-2.4,11.6-8.8,14.3c-41.9,0-83.7,0-125.6,0.1c-27.6,0-55.2,0-82.9,0c-8.4,0-12.9-4.5-13-12.8
			C178.9,358,178.9,352.8,178.9,347.5z"/>
		<path class="st6" d="M398.8,66.3c-1.2,1.4-0.6,3-0.6,4.6c0,87.6-0.1,175.1,0.1,262.7c0,9.5-5.6,14.1-14.2,13.9
			c-4.1-0.1-8.2,0.9-12.2-0.6c5.5-2.1,8.6-6.5,8.6-12.6c0-7.8,0-15.6,0-23.4c0-85.4-0.1-170.8,0.1-256.3c0-7.6-2-13.2-8.8-16.8
			c4.9,0,9.7-0.1,14.6,0c6.7,0.1,11.2,4.7,11.8,11.4C398.9,54.9,398.6,60.6,398.8,66.3z"/>
		<path class="st6" d="M428.1,66.3c4.1,0,8.3-0.1,12.4,0c7.9,0,13,5.1,13.1,13c0,12.7,0,25.3,0,38c0,81.7,0,163.5,0,245.2
			c0,8.8-4.8,13.5-13.4,13.5c-4,0-8,0-12,0c7.3-3.2,8.8-9.2,8.8-16.7c-0.1-92-0.2-184.1,0-276.1C437,75.5,434.8,70,428.1,66.3z"/>
		<path class="st6" d="M400.4,376c6.3-2.7,8.8-7.3,8.8-14.3c-0.1-92.9-0.2-185.8,0-278.8c0-7.5-1.5-13.3-8.8-16.6
			c6.1,0.2,12.2-0.7,18.2,0.6c5.7,3.4,7.4,8.4,7.4,15c-0.1,92.3-0.1,184.7,0,277c0,6.4-0.3,12.2-6.4,15.9c-0.2,0.1-0.2,0.7-0.4,1
			C412.9,375.9,406.6,375.9,400.4,376z"/>
		<path class="st7" d="M419.2,375.9c0.1-0.3,0.1-0.9,0.4-1c6.1-3.8,6.4-9.6,6.4-15.9c-0.1-92.3-0.1-184.7,0-277
			c0-6.6-1.7-11.6-7.4-15c3.1-1.4,6.4-0.4,9.6-0.6c6.7,3.7,8.8,9.2,8.8,16.8c-0.2,92-0.2,184.1,0,276.1c0,7.5-1.5,13.4-8.8,16.7
			C425.1,375.9,422.2,375.9,419.2,375.9z"/>
		<path class="st8" d="M307.6,300.7c-15.6,0-31.1,0-46.7,0c-6.8,0-9.3-1.7-9.9-8.4c-0.7-8-0.9-16,0.2-24c0.7-4.7,3-6.3,7.7-6.3
			c19,0,38-0.2,56.9,0.1c12.8,0.2,25.5-0.9,38.2-0.7c6.8,0.1,9.8,3.1,9.8,9.8c0,6.8,0,13.6,0,20.4c0,6.1-3.1,9.2-9.2,9.2
			C338.9,300.8,323.2,300.8,307.6,300.7C307.6,300.8,307.6,300.7,307.6,300.7z"/>
		<path class="st8" d="M273.7,199.9c-26.9,0-53.8,0-80.7,0c-1,0-2,0.1-2.9,0c-3.1-0.3-5.7-3-5.7-5.7c0-2.7,2.5-5.5,5.6-5.8
			c1-0.1,1.9,0,2.9,0c54.1,0,108.1,0,162.2,0c5.2,0,8.7,2.3,8.7,5.7c0,3.5-3.5,5.9-8.6,5.9C328,199.9,300.8,199.9,273.7,199.9z"/>
		<path class="st8" d="M273.6,227c-27.3,0-54.5,0-81.8,0c-5.1,0-7.4-2.2-7-6.6c0.2-2.7,1.7-4.2,4.4-4.4c0.6,0,1.2,0,1.8,0
			c55.3,0,110.5,0,165.8,0c1.5,0,3.2-0.4,4.5,0.9c1.6,1.5,2.9,3.1,2.2,5.4c-0.8,2.5-2.6,4.1-5.2,4.6c-1.1,0.2-2.2,0.1-3.3,0.1
			C327.9,227,300.7,227,273.6,227z"/>
		<path class="st2" d="M184.6,281.2c0-3.9-0.1-7.8,0-11.7c0.2-4.9,2.7-7.4,7.5-7.6c6.7-0.2,13.4-0.3,20.1-0.3c6.1,0,8.9,2.9,8.9,9
			c0,7.1,0,14.1,0,21.2c0,5.9-2.9,8.8-8.8,8.8c-6.7,0-13.4-0.1-20.1-0.2c-5-0.1-7.5-2.7-7.7-7.8c0-0.2,0-0.5,0-0.7
			C184.6,288.3,184.6,284.7,184.6,281.2z"/>
		<path class="st2" d="M337.1,87.7c-6.6,0-13.1,0-19.7,0c-2.3,0-4.3-0.8-5.4-3c-1-1.9-0.8-3.8,0.4-5.5c1.2-1.8,3-2.4,5-2.4
			c13.2,0,26.5-0.1,39.7,0c3.7,0,6.1,2.2,6.2,5.3c0.1,3.2-2.3,5.6-6.3,5.6C350.5,87.8,343.8,87.8,337.1,87.7
			C337.1,87.7,337.1,87.7,337.1,87.7z"/>
	</g>
</g>
</svg>
