<?xml version="1.0" encoding="utf-8"?>
<!-- Generator: Adobe Illustrator 26.5.2, SVG Export Plug-In . SVG Version: 6.00 Build 0)  -->
<svg version="1.1" id="Capa_1" xmlns="http://www.w3.org/2000/svg" xmlns:xlink="http://www.w3.org/1999/xlink" x="0px" y="0px"
	 viewBox="0 0 563.5 711" style="enable-background:new 0 0 563.5 711;" xml:space="preserve">
<style type="text/css">
	.st0{fill:#8079B2;}
	.st1{fill:#FEFEFE;}
	.st2{fill:#E8A340;}
	.st3{fill:#DF9026;}
	.st4{fill:#ECF1F2;}
	.st5{fill:#9DABB3;}
	.st6{fill:#D9E4E9;}
</style>
<g>
	<path class="st0" d="M560.7,376.7v293.8c0,21.3-22.6,38.5-50.4,38.5H53.2c-27.8,0-50.4-17.2-50.4-38.5l0-289.8
		c0-123,133.9-223.6,294.7-216.8C444.2,170.2,560.7,263.1,560.7,376.7"/>
	<g>
		<g>
			<path class="st1" d="M146,415.2v49.3h-6.1l-25.6-36.4v36.4h-7v-49.3h6.1l25.6,36.4v-36.4H146z"/>
			<path class="st1" d="M186.7,428.8v35.7h-6.4v-4.9c-2.1,3.2-5.6,5.9-11,5.9c-8,0-13.7-6.7-13.7-14.2v-22.4h6.4v20.5
				c0,5.1,2.1,10,8.8,10c6.8,0,9.5-5.8,9.5-10v-20.5H186.7z M179.7,413.3l-6.8,9.9h-4.7l4.7-9.9H179.7z"/>
			<path class="st1" d="M246.1,440.9v23.6h-6.4v-21.7c0-5.1-2.5-8.8-7.7-8.8c-5,0-7.8,4.2-7.8,8.8v21.7h-6.4v-21.7
				c0-5.1-2.5-8.8-7.6-8.8c-5.1,0-7.9,4.2-7.9,8.8v21.7h-6.4v-35.7h6.4v4.2c2-2.8,5.1-5.1,9.6-5.1c4.3,0,8.1,2.3,10.3,5.8
				c2.3-3.2,6.1-5.8,11.4-5.8C240.3,428,246.1,433.4,246.1,440.9z"/>
			<path class="st1" d="M288.4,449.5H260c1,5.9,5.4,9.9,12.3,9.9c3.9,0,7.4-1.5,9.4-4l5.3,3.4c-3.2,4.3-8.4,6.8-14.7,6.8
				c-11.8,0-19.2-8.5-19.2-18.8c0-10.3,7.6-18.8,18.1-18.8C281,428,290.1,436.2,288.4,449.5z M281.9,444c-0.8-6.1-4.6-9.9-10.6-9.9
				c-6.1,0-10.3,4-11.3,9.9H281.9z"/>
			<path class="st1" d="M314,428v7.3c-10.6-1.3-11.9,6.8-11.9,13.3v16h-6.4v-35.7h6.4v6.2C304.5,430.2,309.4,428,314,428z"/>
			<path class="st1" d="M355,446.7c0,10.3-8,18.8-18.8,18.8c-10.8,0-18.8-8.5-18.8-18.8c0-10.3,8-18.8,18.8-18.8
				C347.1,428,355,436.4,355,446.7z M348.5,446.7c0-7.3-5.1-12.7-12.2-12.7c-7,0-12.1,5.4-12.1,12.7c0,7.3,5.1,12.6,12.1,12.6
				C343.3,459.3,348.5,454,348.5,446.7z"/>
			<path class="st1" d="M416.2,415.2v49.3h-6.4v-5c-2.7,3.4-6.8,5.9-13,5.9c-11.1,0-17.8-9.4-17.8-18.8s6.7-18.8,17.8-18.8
				c6.2,0,10.3,2.5,13,5.9v-18.6H416.2z M409.8,446.7c0-7-4.5-12.7-12.3-12.7c-7.4,0-11.8,5.5-11.8,12.7c0,7.2,4.4,12.6,11.8,12.6
				C405.3,459.3,409.8,453.8,409.8,446.7z"/>
			<path class="st1" d="M458.5,449.5h-28.4c1,5.9,5.4,9.9,12.3,9.9c3.9,0,7.4-1.5,9.4-4l5.3,3.4c-3.2,4.3-8.4,6.8-14.7,6.8
				c-11.8,0-19.2-8.5-19.2-18.8c0-10.3,7.6-18.8,18.1-18.8C451.1,428,460.2,436.2,458.5,449.5z M452,444c-0.8-6.1-4.6-9.9-10.6-9.9
				c-6.1,0-10.3,4-11.3,9.9H452z"/>
			<path class="st1" d="M71.1,517.7H42.7c1,5.9,5.4,9.9,12.3,9.9c3.9,0,7.4-1.5,9.4-4l5.3,3.4c-3.2,4.3-8.4,6.8-14.7,6.8
				c-11.8,0-19.2-8.5-19.2-18.8c0-10.3,7.6-18.8,18.1-18.8C63.7,496.2,72.8,504.4,71.1,517.7z M64.6,512.2
				c-0.8-6.1-4.6-9.9-10.6-9.9c-6.1,0-10.3,4-11.3,9.9H64.6z"/>
			<path class="st1" d="M99.1,532.8l-8.7-12.9l-8.7,12.9h-7.8l12.5-18.4L74.3,497h7.9l8,12.6l8.2-12.6h7.9l-12,17.4l12.5,18.3H99.1z
				"/>
			<path class="st1" d="M150.1,514.9c0,9.4-6.6,18.8-17.8,18.8c-6.2,0-10.4-2.5-13-5.9v18.6h-6.4V497h6.4v5c2.7-3.3,6.8-5.9,13-5.9
				C143.5,496.2,150.1,505.6,150.1,514.9z M143.5,514.9c0-7.2-4.5-12.7-11.8-12.7c-7.9,0-12.4,5.6-12.4,12.7c0,7,4.5,12.6,12.4,12.6
				C139,527.5,143.5,522.1,143.5,514.9z"/>
			<path class="st1" d="M190.3,517.7h-28.4c1,5.9,5.4,9.9,12.3,9.9c3.9,0,7.4-1.5,9.4-4l5.3,3.4c-3.2,4.3-8.4,6.8-14.7,6.8
				c-11.8,0-19.2-8.5-19.2-18.8c0-10.3,7.6-18.8,18.1-18.8C182.9,496.2,192,504.4,190.3,517.7z M183.8,512.2
				c-0.8-6.1-4.6-9.9-10.6-9.9c-6.1,0-10.3,4-11.3,9.9H183.8z"/>
			<path class="st1" d="M232.6,483.4v49.3h-6.4v-5c-2.7,3.4-6.8,5.9-13,5.9c-11.1,0-17.8-9.4-17.8-18.8s6.7-18.8,17.8-18.8
				c6.2,0,10.3,2.5,13,5.9v-18.6H232.6z M226.2,514.9c0-7-4.5-12.7-12.3-12.7c-7.4,0-11.8,5.5-11.8,12.7c0,7.2,4.4,12.6,11.8,12.6
				C221.7,527.5,226.2,522,226.2,514.9z"/>
			<path class="st1" d="M241.4,487c0-2,1.6-3.7,3.7-3.7c2,0,3.7,1.7,3.7,3.7c0,2-1.6,3.7-3.7,3.7C243,490.7,241.4,489.1,241.4,487z
				 M241.8,497h6.5v35.7h-6.5V497z"/>
			<path class="st1" d="M290.6,517.7h-28.4c1,5.9,5.4,9.9,12.3,9.9c3.9,0,7.4-1.5,9.4-4l5.3,3.4c-3.2,4.3-8.4,6.8-14.7,6.8
				c-11.8,0-19.2-8.5-19.2-18.8c0-10.3,7.6-18.8,18.1-18.8C283.2,496.2,292.3,504.4,290.6,517.7z M284.1,512.2
				c-0.8-6.1-4.6-9.9-10.6-9.9c-6.1,0-10.3,4-11.3,9.9H284.1z"/>
			<path class="st1" d="M329,510.4v22.3h-6.4v-20.5c0-5-2.1-10-8.8-10c-6.8,0-9.5,5.9-9.5,10v20.5h-6.4V497h6.4v5
				c2.1-3.2,5.6-5.9,11.1-5.9C323.4,496.2,329,502.9,329,510.4z"/>
			<path class="st1" d="M347,503.2v15.7c0,5.1,0.1,8.5,5.6,8.5c1.1,0,1.8-0.1,2.6-0.1v5.6c-0.9,0.2-2,0.4-3.5,0.4
				c-7.8,0-11.2-4.2-11.2-12v-18H335V497h5.6v-7.5h6.4v7.5h8.2v6.1H347z"/>
			<path class="st1" d="M395.8,517.7h-28.4c1,5.9,5.4,9.9,12.3,9.9c3.9,0,7.4-1.5,9.4-4l5.3,3.4c-3.2,4.3-8.4,6.8-14.7,6.8
				c-11.8,0-19.2-8.5-19.2-18.8c0-10.3,7.6-18.8,18.1-18.8C388.4,496.2,397.5,504.4,395.8,517.7z M389.3,512.2
				c-0.8-6.1-4.6-9.9-10.6-9.9c-6.1,0-10.3,4-11.3,9.9H389.3z"/>
			<path class="st1" d="M428.3,522c0,6.3-4.5,11.6-14,11.6c-7,0-13-2.8-14.4-8.2l6.3-2.1c0.6,1.8,2.5,4.4,8.2,4.4
				c4.7,0,7.3-1.9,7.3-5.1c0-4.2-6-4.2-10.9-5.3c-6.7-1.5-9.6-4.7-9.6-10c0-6.6,5.4-11.2,13.2-11.2c5.8,0,10.9,3,12.2,8.2l-6,1.6
				c-0.6-2-2.8-4.1-6.8-4.1c-3.5,0-6.1,2-6.1,4.9c0,4,4.9,4.3,9,5.1C425.4,513.9,428.3,516.7,428.3,522z"/>
			<path class="st1" d="M487.1,517.7h-28.4c1,5.9,5.4,9.9,12.3,9.9c3.9,0,7.4-1.5,9.4-4l5.3,3.4c-3.2,4.3-8.4,6.8-14.7,6.8
				c-11.8,0-19.2-8.5-19.2-18.8c0-10.3,7.6-18.8,18.1-18.8C479.7,496.2,488.8,504.4,487.1,517.7z M480.7,512.2
				c-0.8-6.1-4.6-9.9-10.6-9.9c-6.1,0-10.3,4-11.3,9.9H480.7z"/>
			<path class="st1" d="M525.6,510.4v22.3h-6.4v-20.5c0-5-2.1-10-8.8-10c-6.8,0-9.5,5.9-9.5,10v20.5h-6.4V497h6.4v5
				c2.1-3.2,5.6-5.9,11.1-5.9C519.9,496.2,525.6,502.9,525.6,510.4z"/>
			<path class="st1" d="M137.2,551.6V601h-6.4v-49.3H137.2z"/>
			<path class="st1" d="M175.1,579.4V601h-6.4V596c-1.6,2.7-6.1,5.9-11.7,5.9c-6.8,0-12.7-4.1-12.7-10.5c0-11.2,13.6-11.5,18.6-11.5
				c1.8,0,4.9,0,5.8,0c0-5.4-1.1-9.7-8.5-9.7c-3.7,0-7.7,1.9-9.2,3.2l-4.5-3.5c3.9-3.6,9.4-5.6,15-5.6
				C171.7,564.4,175.1,570.9,175.1,579.4z M168.7,584.9c-0.2,0-2,0-2.5,0c-6.6,0-15.3-0.1-15.3,6.2c0,2.7,1.8,5.6,7.5,5.6
				c6.1,0,9.9-4.3,10.3-5.9V584.9z"/>
			<path class="st1" d="M244.2,551.6v30.2c0,13.5-7.7,20.1-20.6,20.1c-12.9,0-20.7-6.6-20.7-20.1v-30.2h12.1v29
				c0,6.6,3.1,9.7,8.5,9.7c5.4,0,8.5-3.1,8.5-9.7v-29H244.2z"/>
			<path class="st1" d="M286.6,578.6V601h-11.5v-19.2c0-4.1-2.5-6.1-5.7-6.1c-3.3,0-5.7,2.2-5.7,6.1V601h-11.4v-35.7h11.4v3.3
				c2-2.3,5.1-4.2,9.8-4.2C282.4,564.4,286.6,571.4,286.6,578.6z"/>
			<path class="st1" d="M294.1,555.2c0-3.3,2.7-6,6-6c3.3,0,6,2.7,6,6c0,3.3-2.7,6.1-6,6.1C296.8,561.3,294.1,558.5,294.1,555.2z
				 M294.4,565.2h11.4V601h-11.4V565.2z"/>
			<path class="st1" d="M350.1,551.6V601h-11.4v-3.5c-2.1,2.5-5.3,4.4-10.1,4.4c-11.1,0-17.1-9.4-17.1-18.8s6-18.8,17.1-18.8
				c4.8,0,8,1.8,10.1,4.4v-17.1H350.1z M338.3,583.1c0-4.8-3.4-7.7-7.7-7.7c-4.7,0-7.6,3.2-7.6,7.7c0,4.4,2.9,7.6,7.6,7.6
				C334.9,590.7,338.3,587.9,338.3,583.1z"/>
			<path class="st1" d="M389.1,578.8V601h-11.4v-3.3c-1.9,2.7-6.1,4.2-9.8,4.2c-4.8,0-12.2-1.8-12.2-10.5
				c0-11.8,15.4-11.8,17.8-11.8c1.6,0,3.5,0,4.2,0v-0.1c0-3.4-1.7-5.8-5.9-5.8c-2.9,0-5.4,1.1-6.8,2.3l-7.5-5.1
				c3.9-4.1,9.2-6.4,16.1-6.4C385.1,564.4,389.1,570.2,389.1,578.8z M377.7,585.2c-0.3,0-0.6,0-0.9,0c-5.7,0-9.5,1.1-9.5,4.7
				c0,2.6,2.1,3.6,4.6,3.6c2.5,0,4.9-1.2,5.9-2.5V585.2z"/>
			<path class="st1" d="M433.4,551.6V601H422v-3.5c-2.1,2.5-5.3,4.4-10.1,4.4c-11.1,0-17.1-9.4-17.1-18.8s6-18.8,17.1-18.8
				c4.8,0,8,1.8,10.1,4.4v-17.1H433.4z M421.6,583.1c0-4.8-3.4-7.7-7.7-7.7c-4.7,0-7.6,3.2-7.6,7.7c0,4.4,2.9,7.6,7.6,7.6
				C418.2,590.7,421.6,587.9,421.6,583.1z"/>
			<path class="st1" d="M135.5,669.2l-8.3-16.5c-0.2,0-0.4,0-0.7,0h-6.9v16.5h-12.1v-49.3h19c12.5,0,19,7.2,19,17.1
				c0,5.9-2.9,10.4-7.6,13l10.5,19.2H135.5z M119.6,642.5h6.9c3.5,0,6.8-1.4,6.8-5.6c0-3.7-2.7-5.6-6.8-5.6h-6.9V642.5z"/>
			<path class="st1" d="M185.6,654.8h-25.8c1.2,4.2,4.6,6.1,9,6.1c3.7,0,6.2-1.8,7.3-3.1l8,4.8c-2.9,4.4-8.4,7.5-15.4,7.5
				c-12.1,0-20.1-7.6-20.1-18.8c0-10.6,8.2-18.8,18.5-18.8C177.7,632.6,187,639.8,185.6,654.8z M175.3,647.9
				c-0.8-4.2-3.8-6.1-7.8-6.1c-3.6,0-6.6,2.1-7.7,6.1H175.3z"/>
			<path class="st1" d="M220.2,658.1c0,7.5-5.6,12-16,12c-7.2,0-14.1-2.3-15.6-8.6l10.4-3.2c0.4,1.4,1.8,2.9,5.1,2.9
				c2.4,0,4.3-0.7,4.3-2.5c0-2.5-3.7-2.3-8-3.2c-6.8-1.6-10.6-4-10.6-11c0-7.5,6.4-11.8,15.4-11.8c6.1,0,12.2,3,13.7,9.1l-9.6,2.3
				c-0.4-1.7-2-2.6-4.1-2.6c-2.3,0-4.4,0.6-4.4,2.6c0,2.3,3.9,2.5,6.7,3C216.6,648.9,220.2,651.5,220.2,658.1z"/>
			<path class="st1" d="M261.8,651.3c0,10.6-8,18.8-19.2,18.8c-11.1,0-19.2-8.2-19.2-18.8c0-10.6,8-18.8,19.2-18.8
				C253.8,632.6,261.8,640.7,261.8,651.3z M250.3,651.3c0-4.2-3-7.7-7.7-7.7c-4.6,0-7.6,3.5-7.6,7.7s3,7.6,7.6,7.6
				C247.2,658.9,250.3,655.5,250.3,651.3z"/>
			<path class="st1" d="M278.9,619.8v49.3h-11.5v-49.3H278.9z"/>
			<path class="st1" d="M321,633.4v35.7h-11.5v-3.2c-2,2.3-5.1,4.2-9.7,4.2c-9,0-13.1-7-13.1-14.2v-22.4h11.4v19.3
				c0,4.1,2.6,6.1,5.7,6.1c3.4,0,5.7-2.2,5.7-6.1v-19.3H321z"/>
			<path class="st1" d="M342.5,642.9v11.3c0,3.7,1.3,5.6,4.9,5.6c0.9,0,1.6-0.1,2.2-0.2v9.6c-1.2,0.4-2.7,0.6-4.9,0.6
				c-11,0-13.5-7.5-13.5-14.5v-12.5h-4.4v-9.4h4.4V626h11.4v7.5h7v9.4H342.5z"/>
			<path class="st1" d="M392.5,651.3c0,10.6-8,18.8-19.2,18.8c-11.1,0-19.2-8.2-19.2-18.8c0-10.6,8-18.8,19.2-18.8
				C384.5,632.6,392.5,640.7,392.5,651.3z M381,651.3c0-4.2-3-7.7-7.7-7.7c-4.6,0-7.6,3.5-7.6,7.7s3,7.6,7.6,7.6
				C377.9,658.9,381,655.5,381,651.3z"/>
			<path class="st1" d="M420.8,632.6v12.3c-10.2-1.6-11.3,4.2-11.3,10.2v14.1h-11.4v-35.7h11.4v5.4
				C412.1,634.8,416.6,632.6,420.8,632.6z"/>
			<path class="st1" d="M456.3,647v22.2h-11.4v-3.3c-1.9,2.7-6.1,4.2-9.8,4.2c-4.8,0-12.2-1.8-12.2-10.5c0-11.8,15.4-11.8,17.8-11.8
				c1.6,0,3.5,0,4.2,0v-0.1c0-3.4-1.7-5.8-5.9-5.8c-2.9,0-5.4,1.1-6.8,2.3l-7.5-5.1c3.9-4.1,9.2-6.4,16.1-6.4
				C452.3,632.6,456.3,638.4,456.3,647z M444.9,653.4c-0.3,0-0.6,0-0.9,0c-5.7,0-9.5,1.1-9.5,4.7c0,2.6,2.1,3.6,4.6,3.6
				c2.5,0,4.9-1.2,5.9-2.5V653.4z"/>
		</g>
	</g>
	<g>
		<path class="st2" d="M101.3,342.2c0-1.4-0.1-2.9-0.1-4.3c0-81.8,0-163.6,0-245.4c0-17.5,10.3-27.7,27.9-27.8
			c13.8,0,27.6-0.1,41.3-0.1c10.2,0,20.5,0.1,30.7,0.1c15.1,0,26.1,10.9,26.1,26c0,11.8,0,23.6,0,35.4c0,9.3,5,14.2,14.4,14.2
			c29.9,0,59.8,0,89.7,0c11.5,0,23.1,0.1,34.6,0.1c0,6.6-0.1,13.1,0,19.7c0,2.7-0.7,3.4-3.1,1.8c-3.2-2-6.7-2.8-10.4-2.8
			c-7.6,0.1-15.2,0-22.8,0c-5.1,0-7.8,2.2-7.8,6.2c-0.1,4.1,2.7,6.4,7.6,6.4c7.5,0,15,0,22.4,0c5.7,0,7.7,2.1,7.7,7.9
			c0,7.6,0,15.2,0,22.8c0,2.4,0.5,4.7,2.6,5.8c2.4,1.3,2.5,3.3,2.1,5.3c-1.4,8.1-3.1,16.2-5.8,24c-9.9,29.1-26.6,53.5-51,72.5
			c-25.1,19.5-53.7,30-85.4,31.7c-16.2,0.9-32.5,0.1-48.8,0.2c-1.6,0-2.6-0.4-3.2-2.1c-1.1-3.3-3.8-4.3-7.1-4.3
			c-7.3,0.1-14.7,0-22.1,0c-6.3,0-8.3-1.9-8.3-8.1c0-7.5,0-15,0-22.4c0-4.7-2.4-7.3-6.4-7.3c-4,0-6.2,2.7-6.2,7.4
			c0,7.7,0.1,15.5,0,23.2c-0.1,3.8,0.8,7.3,2.8,10.4c1.5,2.4,0.9,3.1-1.8,3.1C114.5,342.1,107.9,342.2,101.3,342.2z"/>
		<path class="st3" d="M101.3,342.2c6.6,0,13.1-0.1,19.7,0c2.7,0,3.4-0.7,1.8-3.1c-2-3.2-2.8-6.7-2.8-10.4c0.1-7.7,0-15.5,0-23.2
			c0-4.7,2.3-7.4,6.2-7.4c4,0,6.4,2.6,6.4,7.3c0,7.5,0,15,0,22.4c0,6.2,2,8.1,8.3,8.1c7.4,0,14.7,0.1,22.1,0c3.4,0,6,1,7.1,4.3
			c0.6,1.7,1.6,2.1,3.2,2.1c16.3,0,32.6,0.7,48.8-0.2c31.6-1.7,60.3-12.2,85.4-31.7c24.3-18.9,41.1-43.3,51-72.5
			c2.6-7.8,4.4-15.9,5.8-24c0.4-2.1,0.3-4-2.1-5.3c-2.1-1.2-2.6-3.4-2.6-5.8c0.1-7.6,0-15.2,0-22.8c0-5.8-2-7.9-7.7-7.9
			c-7.5,0-15,0-22.4,0c-5,0-7.7-2.3-7.6-6.4c0.1-4.1,2.7-6.2,7.8-6.2c7.6,0,15.2,0.1,22.8,0c3.8-0.1,7.3,0.8,10.4,2.8
			c2.4,1.5,3.1,0.9,3.1-1.8c-0.1-6.6,0-13.1,0-19.7c13.4-0.5,25.1,10.8,25.1,24.3c0.1,34.7,0.1,69.3,0.1,104c0,19.2,0,38.3-0.1,57.5
			c0,2.7,1,3.3,3.4,3.2c12.1-0.1,24.2-0.2,36.2,0c3.6,0.1,4.6-0.9,4.6-4.5c-0.1-49.2-0.1-98.5-0.1-147.7c0-1.3-0.1-2.6-0.2-3.9
			c0.1-11,0.2-22,0.3-33c9.5,0,18.9,0.1,28.4-0.1c2.6,0,3.2,0.8,3.2,3.3c-0.1,62.1,0,124.2-0.1,186.4c-0.1,20.8-17.1,37.4-37.8,37.4
			c-78.8,0-157.6,0-236.4,0c-22.5,0-44.9,0.1-67.4,0C112,367.3,100.8,355.4,101.3,342.2z"/>
		<path class="st4" d="M391.3,268.8c0-34.7,0-69.3-0.1-104c0-13.5-11.8-24.8-25.1-24.3c-11.5,0-23.1-0.1-34.6-0.1
			c-29.9,0-59.8,0-89.7,0c-9.4,0-14.4-4.9-14.4-14.2c0-11.8,0-23.6,0-35.4c0-15-11-25.9-26.1-26c-10.2,0-20.5-0.1-30.7-0.1
			c0-19.5,0.1-39.1,0-58.6c0-3.5,0.9-4.4,4.4-4.4c64.5,0.1,129.1,0.1,193.6,0.1c1.3,0,2.6-0.3,3.8,0.4c0,21.8,0,43.6-0.1,65.3
			c0,3.1,1,3.7,3.8,3.7c18.4-0.1,36.7,0,55.1-0.1c1.2,0,2.7,0.5,3.6-0.9c1.1,1.2,0.6,2.8,0.6,4.1c0,22,0,44,0,66.1
			c-0.1,11-0.2,22-0.3,33c-1.1,0.3-1.2,1.1-1.3,2.1c-1.1,10.7-3.6,21.1-6.8,31.3c-5.1,16.1-12.5,31.1-21.9,45
			C401,257.9,397.1,264.2,391.3,268.8z M324.8,121.5c23.2,0,46.5,0,69.7,0c1.1,0,2.1,0.1,3.2,0c3.7-0.3,6.2-2.9,6.1-6.4
			c-0.1-3.3-2.4-5.8-5.9-6.2c-0.8-0.1-1.6,0-2.4,0c-47,0-94,0-141,0c-0.8,0-1.6,0-2.4,0c-3.5,0.3-5.9,2.8-5.9,6.2
			c-0.1,3.5,2.4,6.1,6.1,6.4c1,0.1,2.1,0,3.2,0C278.6,121.5,301.7,121.5,324.8,121.5z M277.6,45.8c22.3,0,44.6,0,67,0
			c1.2,0,2.4,0.1,3.5-0.1c3.4-0.7,5.3-2.8,5.3-6.3c-0.1-3.3-2-5.3-5.2-6c-1-0.2-2.1-0.1-3.1-0.1c-44.9,0-89.8,0-134.7,0
			c-0.9,0-1.9-0.1-2.8,0.1c-3.4,0.6-5.4,2.7-5.5,6.2c0,3.5,1.9,5.6,5.3,6.3c1.1,0.2,2.4,0.1,3.5,0.1
			C233.2,45.8,255.4,45.8,277.6,45.8z M299.6,71.1c15.6,0,31.2,0,46.9,0c4.3,0,7-2.6,6.9-6.4c-0.1-3.6-2.6-6.2-6.7-6.2
			c-31.2,0-62.5,0-93.7,0c-2.7,0-4.8,1-6.1,3.6c-2.2,4.6,1,9,6.6,9C268.9,71.1,284.2,71.1,299.6,71.1z M299.6,96.3
			c15.6,0,31.2,0,46.9,0c4.3,0,7-2.6,6.9-6.4c0-3.6-2.6-6.2-6.7-6.2c-31.2,0-62.5,0-93.7,0c-2.7,0-4.8,1-6.1,3.6c-2.2,4.6,1,9,6.6,9
			C268.9,96.3,284.2,96.3,299.6,96.3z"/>
		<path class="st5" d="M434.7,70.2c-0.9,1.4-2.4,0.9-3.6,0.9c-18.4,0-36.7,0-55.1,0.1c-2.8,0-3.8-0.6-3.8-3.7
			c0.1-21.8,0.1-43.6,0.1-65.3c8.3,7.8,15.5,16.7,23.2,25C408.7,41.4,421.7,55.9,434.7,70.2z"/>
		<path class="st6" d="M391.3,268.8c5.8-4.6,9.7-10.9,13.8-16.9c9.4-13.9,16.8-28.9,21.9-45c3.2-10.2,5.7-20.6,6.8-31.3
			c0.1-1,0.2-1.8,1.3-2.1c0.1,1.3,0.2,2.6,0.2,3.9c0,49.2,0,98.5,0.1,147.7c0,3.6-1,4.6-4.6,4.5c-12.1-0.2-24.2-0.1-36.2,0
			c-2.5,0-3.5-0.5-3.4-3.2C391.3,307.2,391.3,288,391.3,268.8z"/>
		<path class="st5" d="M324.8,121.5c-23.1,0-46.2,0-69.3,0c-1.1,0-2.1,0.1-3.2,0c-3.7-0.3-6.2-2.9-6.1-6.4c0.1-3.3,2.4-5.8,5.9-6.2
			c0.8-0.1,1.6,0,2.4,0c47,0,94,0,141,0c0.8,0,1.6,0,2.4,0c3.5,0.3,5.9,2.8,5.9,6.2c0.1,3.5-2.4,6.1-6.1,6.4c-1,0.1-2.1,0-3.2,0
			C371.3,121.5,348.1,121.5,324.8,121.5z"/>
		<path class="st5" d="M277.6,45.8c-22.2,0-44.4,0-66.6,0c-1.2,0-2.4,0.1-3.5-0.1c-3.4-0.7-5.4-2.8-5.3-6.3c0-3.5,2-5.6,5.5-6.2
			c0.9-0.2,1.8-0.1,2.8-0.1c44.9,0,89.8,0,134.7,0c1,0,2.1-0.1,3.1,0.1c3.2,0.7,5.1,2.7,5.2,6c0.1,3.5-1.9,5.6-5.3,6.3
			c-1.1,0.2-2.4,0.1-3.5,0.1C322.2,45.8,299.9,45.8,277.6,45.8z"/>
		<path class="st5" d="M299.6,71.1c-15.4,0-30.7,0-46.1,0c-5.7,0-8.9-4.5-6.6-9c1.2-2.5,3.3-3.6,6.1-3.6c31.2,0,62.5,0,93.7,0
			c4.1,0,6.7,2.5,6.7,6.2c0.1,3.8-2.6,6.4-6.9,6.4C330.9,71.1,315.2,71.1,299.6,71.1z"/>
		<path class="st5" d="M299.6,96.3c-15.4,0-30.7,0-46.1,0c-5.7,0-8.9-4.5-6.6-9c1.2-2.5,3.3-3.6,6.1-3.6c31.2,0,62.5,0,93.7,0
			c4.1,0,6.6,2.6,6.7,6.2c0,3.8-2.6,6.4-6.9,6.4C330.8,96.3,315.2,96.3,299.6,96.3z"/>
	</g>
</g>
</svg>
